{"glyphs":{"0":{"ha":694,"x_min":47,"x_max":647,"o":"m 47 459 q 122 815 47 694 q 347 937 196 937 q 573 815 498 937 q 647 459 647 694 q 573 103 647 224 q 347 -19 498 -19 q 122 103 196 -19 q 47 459 47 224 m 458 459 q 454 599 458 538 q 439 701 451 660 q 406 763 427 742 q 347 784 384 784 q 289 763 311 784 q 255 701 267 742 q 240 599 243 660 q 237 459 237 538 q 240 319 237 380 q 255 217 243 258 q 289 155 267 176 q 347 134 311 134 q 406 155 384 134 q 439 217 428 176 q 454 319 451 258 q 458 459 458 380 z "},"1":{"ha":694,"x_min":43,"x_max":633,"o":"m 94 154 l 277 154 l 277 639 l 286 736 l 218 663 l 115 595 l 43 703 l 350 935 l 454 935 l 454 154 l 633 154 l 633 0 l 94 0 l 94 154 z "},"2":{"ha":694,"x_min":35,"x_max":595,"o":"m 593 692 q 567 550 593 620 q 502 417 541 481 q 416 296 463 353 q 330 193 370 239 l 256 138 l 256 134 l 357 154 l 595 154 l 595 0 l 35 0 l 35 92 q 130 177 83 132 q 217 270 176 222 q 292 367 258 318 q 351 465 326 416 q 390 559 376 513 q 404 648 404 606 q 370 740 404 706 q 279 774 337 774 q 193 756 232 774 q 118 707 155 738 l 42 838 q 173 911 106 886 q 321 937 241 937 q 427 922 377 937 q 513 876 476 907 q 571 799 550 845 q 593 692 593 753 z "},"3":{"ha":694,"x_min":35,"x_max":620,"o":"m 270 136 q 346 147 314 136 q 397 177 377 158 q 427 222 418 197 q 437 276 437 248 q 389 381 437 348 q 241 415 341 415 l 151 415 l 151 513 l 313 717 l 376 774 l 277 766 l 66 766 l 66 920 l 583 920 l 583 821 l 408 600 l 330 541 l 391 543 q 479 520 437 538 q 552 471 520 503 q 602 392 583 439 q 620 285 620 346 q 594 150 620 208 q 522 56 568 93 q 412 0 476 18 q 273 -18 349 -18 q 209 -16 242 -18 q 143 -8 176 -13 q 83 5 111 -3 q 35 24 55 14 l 85 176 q 168 148 122 159 q 270 136 213 136 z "},"4":{"ha":694,"x_min":14,"x_max":686,"o":"m 686 254 l 571 254 l 571 0 l 398 0 l 398 254 l 14 254 l 14 356 l 418 926 l 571 926 l 571 396 l 686 396 l 686 254 m 398 585 l 401 692 l 353 599 l 241 443 l 193 391 l 273 396 l 398 396 l 398 585 z "},"5":{"ha":694,"x_min":57,"x_max":629,"o":"m 269 144 q 348 156 314 144 q 402 189 381 168 q 434 238 424 210 q 445 299 445 266 q 391 407 445 370 q 227 437 337 443 l 113 432 l 113 920 l 584 920 l 584 749 l 273 749 l 273 585 l 333 591 q 457 567 402 589 q 550 507 512 545 q 609 415 589 469 q 629 296 629 361 q 603 159 629 218 q 530 61 577 100 q 417 2 483 22 q 271 -18 351 -18 q 151 -6 206 -18 q 57 22 96 5 l 107 176 q 140 164 123 170 q 176 154 157 159 q 217 147 195 150 q 269 144 240 144 z "},"6":{"ha":694,"x_min":33,"x_max":658,"o":"m 658 293 q 636 176 658 232 q 575 76 615 119 q 477 7 535 33 q 346 -18 419 -18 q 215 5 273 -18 q 116 74 157 29 q 54 184 76 119 q 33 331 33 249 q 71 563 33 458 q 177 746 110 668 q 336 873 244 825 q 533 937 427 922 l 571 795 q 431 750 492 779 q 327 683 370 722 q 256 595 283 644 q 218 489 229 546 q 253 521 234 506 q 292 547 271 536 q 336 564 313 557 q 385 570 359 570 q 501 550 450 570 q 587 493 552 530 q 640 405 622 456 q 658 293 658 354 m 479 277 q 447 381 479 347 q 343 416 415 416 q 296 409 317 416 q 259 390 275 401 q 230 365 242 378 q 212 338 218 351 q 209 317 209 324 q 209 300 209 310 q 215 241 209 271 q 238 188 222 212 q 281 150 254 165 q 349 136 308 136 q 406 147 382 136 q 447 177 431 158 q 471 222 463 197 q 479 277 479 248 z "},"7":{"ha":694,"x_min":49,"x_max":654,"o":"m 100 0 l 387 660 l 446 753 l 345 746 l 49 746 l 49 920 l 654 920 l 654 868 l 281 0 l 100 0 z "},"8":{"ha":694,"x_min":35,"x_max":660,"o":"m 35 227 q 47 310 35 273 q 82 375 60 346 q 135 426 104 404 q 203 469 165 449 q 149 513 174 490 q 103 562 123 536 q 73 621 84 589 q 62 693 62 652 q 81 788 62 744 q 138 866 100 833 q 230 918 175 899 q 355 937 284 937 q 471 921 420 937 q 559 875 523 905 q 614 805 595 846 q 633 714 633 764 q 624 643 633 675 q 596 583 614 610 q 552 531 578 555 q 494 486 526 507 q 565 438 536 463 q 615 386 593 413 q 660 247 660 332 q 637 139 660 188 q 573 56 614 91 q 473 1 532 20 q 342 -18 414 -18 q 214 0 271 -18 q 117 50 157 18 q 56 128 77 83 q 35 227 35 173 m 484 245 q 468 298 484 275 q 429 342 453 322 q 374 378 404 361 q 312 410 343 395 q 271 383 290 398 q 237 349 252 368 q 214 307 222 330 q 205 257 205 284 q 216 204 205 227 q 247 166 228 182 q 292 143 267 151 q 346 136 317 136 q 448 164 413 136 q 484 245 484 192 m 237 690 q 250 636 237 659 q 284 594 262 612 q 333 562 305 576 q 390 535 360 548 q 448 603 431 568 q 465 677 465 639 q 457 722 465 703 q 433 755 448 742 q 397 777 418 769 q 351 784 376 784 q 298 777 319 784 q 263 756 276 769 q 243 727 250 744 q 237 690 237 709 z "},"9":{"ha":694,"x_min":40,"x_max":662,"o":"m 40 631 q 61 750 40 694 q 122 848 82 806 q 220 913 162 890 q 352 937 278 937 q 481 913 424 937 q 579 843 539 888 q 641 734 619 798 q 662 590 662 669 q 643 405 662 488 q 591 256 625 321 q 511 141 557 190 q 409 58 465 92 q 291 6 353 24 q 162 -18 228 -13 l 123 122 q 260 158 201 132 q 361 220 319 183 q 429 305 403 258 q 467 407 455 353 q 431 377 448 389 q 398 358 415 365 q 362 350 381 352 q 317 347 342 347 q 213 365 263 347 q 124 417 163 382 q 63 505 86 452 q 40 631 40 558 m 218 640 q 345 494 218 494 q 394 500 372 494 q 433 516 416 507 q 462 535 450 525 q 482 553 474 545 q 485 579 484 568 q 486 602 486 591 q 480 670 486 636 q 458 731 474 704 q 415 774 442 758 q 345 791 387 791 q 252 751 286 791 q 218 640 218 711 z "},"\u0000":{"ha":0,"x_min":0,"x_max":0,"o":""},"\r":{"ha":347,"x_min":0,"x_max":0,"o":""}," ":{"ha":347,"x_min":0,"x_max":0,"o":""},"!":{"ha":463,"x_min":117,"x_max":347,"o":"m 136 920 l 328 920 l 328 490 l 292 278 l 173 278 l 136 490 l 136 920 m 117 89 q 149 165 117 138 q 231 193 180 193 q 315 165 283 193 q 347 89 347 138 q 315 14 347 43 q 231 -15 283 -15 q 149 14 180 -15 q 117 89 117 43 z "},"\"":{"ha":771,"x_min":180,"x_max":552,"o":"m 180 920 l 342 920 l 292 633 l 180 633 l 180 920 m 389 920 l 552 920 l 502 633 l 389 633 l 389 920 z "},"#":{"ha":694,"x_min":2,"x_max":692,"o":"m 361 267 l 234 267 l 183 65 l 36 65 l 87 267 l 2 267 l 34 399 l 121 399 l 155 533 l 73 533 l 104 666 l 189 666 l 238 854 l 385 854 l 337 666 l 464 666 l 513 854 l 660 854 l 611 666 l 692 666 l 657 533 l 577 533 l 541 399 l 619 399 l 585 267 l 507 267 l 457 65 l 311 65 l 361 267 m 268 399 l 396 399 l 430 533 l 302 533 l 268 399 z "},"$":{"ha":694,"x_min":28,"x_max":667,"o":"m 271 -18 q 127 -1 189 -15 q 33 30 66 13 l 87 189 q 160 161 114 174 q 271 143 206 148 l 271 390 q 182 429 225 407 q 105 483 139 450 q 50 559 71 515 q 28 666 28 603 q 94 849 28 785 q 271 931 159 913 l 271 1050 l 418 1050 l 418 935 q 529 919 482 931 q 615 889 576 907 l 566 734 q 505 756 543 745 q 418 773 466 767 l 418 545 q 508 506 463 528 q 588 453 553 485 q 645 378 624 421 q 667 275 667 335 q 601 79 667 148 q 418 -9 534 10 l 418 -132 l 271 -132 l 271 -18 m 357 142 q 449 176 421 148 q 477 251 477 205 q 444 314 477 290 q 357 359 410 337 l 357 142 m 332 779 q 275 770 298 777 q 240 750 253 763 q 222 721 227 738 q 218 683 218 704 q 250 622 218 645 q 332 578 282 599 l 332 779 z "},"%":{"ha":1389,"x_min":102,"x_max":1287,"o":"m 102 712 q 120 813 102 771 q 172 882 138 854 q 250 922 205 909 q 351 935 296 935 q 451 923 405 935 q 530 884 496 911 q 582 815 564 857 q 601 712 601 772 q 582 608 601 650 q 530 539 564 566 q 451 501 496 513 q 351 489 405 489 q 250 501 296 489 q 172 539 205 513 q 120 608 138 566 q 102 712 102 650 m 269 712 q 287 632 269 661 q 351 603 305 603 q 414 628 395 603 q 433 712 433 653 q 414 796 433 771 q 351 821 395 821 q 288 796 307 821 q 269 712 269 771 m 789 223 q 807 324 789 282 q 859 393 825 366 q 938 433 892 420 q 1038 446 983 446 q 1138 434 1092 446 q 1217 396 1183 422 q 1269 326 1251 369 q 1287 223 1287 283 q 1269 119 1287 161 q 1217 51 1251 77 q 1138 12 1183 24 q 1038 0 1092 0 q 938 12 983 0 q 859 51 892 24 q 807 119 825 77 q 789 223 789 161 m 956 223 q 974 143 956 172 q 1038 114 992 114 q 1101 139 1082 114 q 1120 223 1120 164 q 1101 307 1120 282 q 1038 332 1082 332 q 974 307 993 332 q 956 223 956 282 m 930 935 l 1038 861 l 445 -38 l 338 33 l 930 935 z "},"&":{"ha":1157,"x_min":110,"x_max":1096,"o":"m 110 242 q 129 337 110 292 q 183 423 149 382 q 267 498 218 463 q 375 560 316 532 q 341 602 357 579 q 314 647 326 624 q 296 695 302 671 q 289 745 289 720 q 304 813 289 779 q 351 875 319 848 q 432 920 383 903 q 549 937 481 937 q 661 922 615 937 q 735 882 707 907 q 775 825 763 857 q 788 760 788 793 q 772 688 788 722 q 730 625 756 654 q 668 573 703 597 q 594 533 633 550 q 698 405 647 459 q 802 310 749 351 q 869 390 834 342 q 931 490 904 437 l 1065 414 q 1031 357 1050 385 q 994 305 1013 330 q 956 259 975 280 q 922 222 937 238 q 964 192 940 208 q 1012 161 987 176 q 1059 134 1036 146 q 1096 115 1081 122 l 994 -18 q 951 3 975 -10 q 901 32 926 16 q 850 65 875 47 q 805 100 825 83 q 721 43 762 66 q 638 6 680 20 q 550 -13 595 -7 q 451 -18 504 -18 q 316 -2 378 -18 q 208 48 254 15 q 136 130 162 81 q 110 242 110 178 m 688 203 q 623 262 656 231 q 558 326 589 294 q 501 390 528 358 q 454 452 474 422 q 391 418 420 437 q 340 375 361 399 q 306 323 319 351 q 294 267 294 296 q 308 208 294 233 q 346 167 322 183 q 402 143 370 151 q 467 136 433 136 q 519 138 492 136 q 574 148 546 141 q 631 169 602 155 q 688 203 660 182 m 471 736 q 487 678 471 709 q 530 616 504 647 q 583 646 561 630 q 618 679 605 663 q 637 710 631 695 q 644 738 644 726 q 555 805 644 805 q 524 800 539 805 q 496 785 508 794 q 478 763 485 776 q 471 736 471 750 z "},"'":{"ha":386,"x_min":111,"x_max":274,"o":"m 111 920 l 274 920 l 224 633 l 111 633 l 111 920 z "},"(":{"ha":463,"x_min":79,"x_max":442,"o":"m 317 -289 q 205 -151 250 -226 q 132 4 160 -75 q 91 165 104 84 q 79 319 79 245 q 91 471 79 391 q 133 632 104 551 q 208 791 161 713 q 321 935 255 868 l 439 854 q 356 728 391 795 q 301 593 321 662 q 272 455 281 525 q 262 319 262 386 q 273 186 262 256 q 306 48 284 117 q 361 -87 327 -21 q 442 -208 395 -153 l 317 -289 z "},")":{"ha":463,"x_min":20,"x_max":384,"o":"m 20 -208 q 101 -87 67 -153 q 157 48 136 -21 q 189 186 178 117 q 200 319 200 256 q 191 455 200 386 q 161 593 182 525 q 107 728 141 662 q 23 854 73 795 l 141 935 q 254 791 208 868 q 330 632 301 713 q 371 471 359 551 q 384 319 384 391 q 371 165 384 245 q 331 4 359 84 q 257 -151 302 -75 q 146 -289 212 -226 l 20 -208 z "},"*":{"ha":694,"x_min":140,"x_max":555,"o":"m 284 965 l 323 903 l 345 823 l 366 899 l 405 965 l 493 917 l 451 846 l 384 788 l 475 810 l 555 810 l 555 709 l 479 709 l 393 733 l 463 669 l 498 610 l 409 560 l 371 624 l 343 709 l 325 631 l 284 564 l 195 614 l 237 683 l 300 732 l 221 709 l 140 709 l 140 812 l 222 812 l 305 788 l 235 847 l 195 913 l 284 965 z "},"+":{"ha":791,"x_min":83,"x_max":708,"o":"m 83 522 l 314 522 l 314 758 l 477 758 l 477 522 l 708 522 l 708 363 l 477 363 l 477 126 l 314 126 l 314 363 l 83 363 l 83 522 z "},",":{"ha":347,"x_min":59,"x_max":303,"o":"m 65 88 q 97 160 65 133 q 176 186 129 186 q 269 149 235 186 q 303 52 303 111 q 284 -54 303 -10 q 235 -126 264 -98 q 172 -170 205 -154 q 112 -195 139 -186 l 59 -118 q 123 -74 96 -106 q 155 -5 150 -42 q 95 14 124 -9 q 65 88 65 37 z "},"-":{"ha":463,"x_min":52,"x_max":410,"o":"m 52 460 l 410 460 l 410 297 l 52 297 l 52 460 z "},".":{"ha":347,"x_min":58,"x_max":288,"o":"m 58 89 q 90 165 58 138 q 172 193 121 193 q 257 165 225 193 q 288 89 288 138 q 257 14 288 43 q 172 -15 225 -15 q 90 14 121 -15 q 58 89 58 43 z "},"/":{"ha":386,"x_min":-55,"x_max":441,"o":"m 290 934 l 441 890 l 99 -229 l -55 -184 l 290 934 z "},":":{"ha":463,"x_min":117,"x_max":347,"o":"m 117 89 q 148 165 117 138 q 231 193 180 193 q 315 165 283 193 q 347 89 347 138 q 315 14 347 43 q 231 -15 283 -15 q 148 14 180 -15 q 117 89 117 43 m 117 558 q 148 635 117 607 q 231 663 180 663 q 315 635 283 663 q 347 558 347 607 q 315 484 347 513 q 231 454 283 454 q 148 484 180 454 q 117 558 117 513 z "},";":{"ha":463,"x_min":110,"x_max":354,"o":"m 116 88 q 148 160 116 133 q 227 186 180 186 q 320 149 286 186 q 354 52 354 111 q 335 -54 354 -10 q 286 -126 315 -98 q 223 -170 256 -154 q 163 -195 190 -186 l 110 -118 q 174 -74 147 -106 q 206 -5 201 -42 q 145 14 175 -9 q 116 88 116 37 m 115 558 q 147 635 115 607 q 229 663 178 663 q 314 635 282 663 q 345 558 345 607 q 314 484 345 513 q 229 454 282 454 q 147 484 178 454 q 115 558 115 513 z "},"<":{"ha":791,"x_min":75,"x_max":714,"o":"m 75 372 l 75 469 l 631 779 l 708 650 l 392 469 l 262 422 l 391 382 l 714 203 l 640 75 l 75 372 z "},"=":{"ha":791,"x_min":83,"x_max":709,"o":"m 83 649 l 709 649 l 709 491 l 83 491 l 83 649 m 83 394 l 709 394 l 709 237 l 83 237 l 83 394 z "},">":{"ha":791,"x_min":77,"x_max":717,"o":"m 717 482 l 717 385 l 158 74 l 84 205 l 401 385 l 531 432 l 402 471 l 77 652 l 151 781 l 717 482 z "},"?":{"ha":694,"x_min":47,"x_max":629,"o":"m 208 278 q 214 402 200 352 q 254 486 229 452 q 312 543 280 520 q 371 587 343 566 q 418 631 399 608 q 437 687 437 654 q 410 759 437 733 q 313 784 383 784 q 263 779 290 784 q 210 764 237 773 q 159 744 184 755 q 119 718 135 732 l 47 854 q 171 914 101 890 q 343 937 241 937 q 553 877 476 937 q 629 714 629 817 q 610 600 629 644 q 562 526 591 555 q 498 475 532 496 q 435 429 465 454 q 387 370 406 405 q 368 278 368 335 l 208 278 m 180 89 q 212 165 180 138 q 294 193 243 193 q 378 165 347 193 q 410 89 410 138 q 378 14 410 43 q 294 -15 347 -15 q 212 14 243 -15 q 180 89 180 43 z "},"@":{"ha":1292,"x_min":64,"x_max":1242,"o":"m 850 583 l 942 583 l 878 260 q 873 235 875 246 q 871 214 871 223 q 884 172 871 184 q 922 159 897 159 q 986 174 955 159 q 1042 219 1018 189 q 1082 294 1067 249 q 1097 401 1097 340 q 1064 556 1097 491 q 976 662 1032 621 q 845 723 920 703 q 683 742 769 742 q 553 726 614 742 q 439 681 492 710 q 345 611 387 652 q 273 520 302 570 q 227 413 243 471 q 211 292 211 355 q 239 121 211 198 q 323 -10 267 45 q 465 -94 380 -64 q 665 -123 550 -123 q 756 -114 709 -123 q 843 -89 804 -104 l 883 -215 q 766 -250 824 -241 q 646 -260 707 -260 q 409 -223 516 -260 q 226 -117 302 -187 q 107 54 149 -47 q 64 285 64 155 q 86 453 64 374 q 150 597 109 532 q 248 716 191 663 q 374 804 305 768 q 523 859 444 840 q 686 878 602 878 q 908 844 806 878 q 1084 747 1010 810 q 1200 594 1158 684 q 1242 394 1242 505 q 1213 250 1242 317 q 1135 134 1185 183 q 1018 56 1085 84 q 871 27 950 27 q 810 34 838 27 q 763 56 783 40 q 735 100 744 73 q 730 168 726 127 l 726 168 q 683 114 705 139 q 632 69 660 88 q 572 38 605 50 q 498 27 539 27 q 439 40 467 27 q 390 76 411 52 q 357 132 369 99 q 345 204 345 164 q 357 299 345 252 q 391 389 369 347 q 442 469 412 432 q 509 533 472 506 q 587 575 545 560 q 672 591 628 591 q 750 578 718 591 q 809 544 781 566 l 850 583 m 767 430 q 731 451 749 445 q 684 458 713 458 q 611 438 644 458 q 554 387 578 418 q 517 319 530 356 q 504 249 504 282 q 508 213 504 229 q 521 185 512 197 q 546 166 530 173 q 583 159 561 159 q 623 170 603 159 q 663 197 644 180 q 701 238 683 215 q 734 288 720 262 l 767 430 z "},"A":{"ha":1003,"x_min":27,"x_max":976,"o":"m 687 195 l 305 195 l 222 0 l 27 0 l 429 926 l 572 926 l 976 0 l 770 0 l 687 195 m 371 349 l 622 349 l 541 541 l 500 660 l 494 660 l 452 540 l 371 349 z "},"B":{"ha":926,"x_min":142,"x_max":857,"o":"m 827 703 q 817 635 827 669 q 786 573 807 602 q 730 523 764 544 q 648 492 696 501 l 648 485 q 729 465 691 481 q 796 421 768 449 q 841 352 825 393 q 857 258 857 312 q 823 135 857 186 q 736 51 790 84 q 612 3 682 18 q 471 -13 543 -13 q 407 -13 447 -13 q 320 -11 366 -13 q 227 -5 274 -9 q 142 6 180 -1 l 142 913 q 207 921 170 917 q 286 927 244 924 q 372 931 328 929 q 458 932 416 932 q 548 928 503 932 q 634 914 593 924 q 710 887 675 904 q 771 845 745 870 q 812 784 797 819 q 827 703 827 749 m 469 144 q 538 151 505 144 q 597 173 572 158 q 638 211 623 188 q 653 268 653 235 q 635 335 653 310 q 587 372 616 359 q 521 388 557 385 q 448 391 485 391 l 330 391 l 330 153 q 353 148 336 149 q 391 145 370 146 q 433 144 412 144 q 469 144 454 144 m 406 536 q 429 536 416 536 q 453 537 441 536 q 477 538 466 537 q 498 540 489 538 q 591 587 554 557 q 629 667 629 616 q 614 722 629 701 q 573 755 598 743 q 516 771 548 767 q 453 774 485 774 q 382 773 416 774 q 330 770 348 772 l 330 536 l 406 536 z "},"C":{"ha":1003,"x_min":95,"x_max":941,"o":"m 941 70 q 856 30 899 46 q 769 2 812 13 q 688 -14 727 -9 q 616 -18 649 -18 q 523 -15 572 -18 q 426 0 474 -11 q 333 32 378 12 q 250 85 288 52 q 186 153 215 115 q 138 238 158 191 q 106 340 117 284 q 95 461 95 395 q 130 652 95 565 q 235 808 165 739 q 311 866 269 842 q 399 906 352 890 q 497 929 446 922 q 602 937 548 937 q 768 919 688 937 q 927 863 848 901 l 871 697 q 742 749 806 732 q 609 767 677 767 q 490 751 547 767 q 388 693 432 736 q 325 595 349 654 q 301 461 301 535 q 326 321 301 384 q 395 220 351 258 q 447 185 421 199 q 502 165 473 172 q 563 155 530 158 q 632 153 595 153 q 698 158 665 153 q 764 174 731 164 q 828 198 797 184 q 886 229 859 212 l 941 70 z "},"D":{"ha":1003,"x_min":136,"x_max":931,"o":"m 136 920 q 203 926 164 924 q 285 930 243 928 q 367 932 327 932 q 437 932 408 932 q 663 898 569 932 q 816 801 756 863 q 903 654 876 739 q 931 467 931 569 q 920 347 931 406 q 883 234 908 288 q 817 134 857 180 q 720 56 777 89 q 589 4 663 22 q 420 -15 514 -15 q 381 -14 405 -15 q 330 -12 357 -13 q 273 -9 302 -11 q 217 -7 243 -8 q 169 -4 191 -5 q 136 -1 147 -3 l 136 920 m 452 762 q 418 762 436 762 q 384 761 401 762 q 353 760 368 760 q 330 758 338 759 l 330 161 q 351 159 336 160 q 385 158 367 158 q 418 157 402 157 q 440 157 434 157 q 579 183 524 157 q 667 252 634 209 q 712 351 699 296 q 725 465 725 406 q 722 515 725 490 q 713 567 720 541 q 696 616 707 592 q 670 662 686 640 q 587 733 640 705 q 452 762 534 762 z "},"E":{"ha":926,"x_min":142,"x_max":822,"o":"m 142 920 l 816 920 l 816 749 l 337 749 l 337 549 l 779 549 l 779 378 l 337 378 l 337 171 l 822 171 l 822 0 l 142 0 l 142 920 z "},"F":{"ha":848,"x_min":142,"x_max":794,"o":"m 142 920 l 794 920 l 794 749 l 337 749 l 337 535 l 749 535 l 749 363 l 337 363 l 337 0 l 142 0 l 142 920 z "},"G":{"ha":1080,"x_min":95,"x_max":968,"o":"m 600 484 l 968 484 l 968 71 q 873 26 922 43 q 779 -2 825 8 q 691 -15 733 -12 q 613 -18 648 -18 q 510 -12 562 -18 q 408 9 458 -5 q 312 50 358 24 q 229 111 267 75 q 129 262 163 175 q 95 462 95 349 q 105 562 95 515 q 131 651 115 610 q 171 727 148 692 q 220 790 194 762 q 307 861 260 833 q 406 906 355 889 q 510 930 457 923 q 611 937 562 937 q 784 922 697 937 q 947 871 871 906 l 890 704 q 766 749 833 731 q 631 767 699 767 q 565 764 598 767 q 501 752 532 760 q 442 730 470 744 q 391 694 414 715 q 325 594 348 654 q 301 457 301 535 q 335 299 301 365 q 429 199 370 234 q 520 163 470 174 q 633 153 570 153 q 673 154 650 153 q 721 159 696 155 q 768 170 745 163 q 810 187 792 177 l 810 345 l 600 365 l 600 484 z "},"H":{"ha":1080,"x_min":142,"x_max":938,"o":"m 743 380 l 336 380 l 336 0 l 142 0 l 142 920 l 336 920 l 336 550 l 743 550 l 743 920 l 938 920 l 938 0 l 743 0 l 743 380 z "},"I":{"ha":541,"x_min":64,"x_max":476,"o":"m 174 814 l 64 814 l 64 920 l 476 920 l 476 814 l 368 814 l 368 105 l 476 105 l 476 0 l 64 0 l 64 105 l 174 105 l 174 814 z "},"J":{"ha":694,"x_min":30,"x_max":559,"o":"m 364 920 l 559 920 l 559 263 q 536 141 559 198 q 469 45 513 85 q 426 17 450 28 q 373 -3 401 5 q 315 -14 345 -11 q 257 -18 286 -18 q 203 -15 231 -18 q 146 -5 176 -12 q 88 15 117 2 q 30 49 58 28 l 94 206 q 141 177 119 187 q 179 161 162 166 q 211 155 197 156 q 237 154 225 154 q 293 164 269 154 q 333 193 317 174 q 357 237 349 211 q 364 293 364 262 l 364 920 z "},"K":{"ha":1080,"x_min":149,"x_max":1071,"o":"m 432 389 l 343 389 l 343 0 l 149 0 l 149 920 l 343 920 l 343 515 l 422 535 l 789 920 l 1032 920 l 642 532 l 587 482 l 645 429 l 1071 0 l 809 0 l 432 389 z "},"L":{"ha":926,"x_min":149,"x_max":876,"o":"m 876 0 l 149 0 l 149 920 l 343 920 l 343 171 l 876 171 l 876 0 z "},"M":{"ha":1311,"x_min":142,"x_max":1168,"o":"m 974 468 l 983 625 l 978 625 l 918 521 l 683 164 l 623 164 l 374 522 l 317 623 l 313 623 l 326 469 l 326 0 l 142 0 l 142 920 l 319 920 l 612 495 l 662 414 l 668 414 l 712 498 l 994 920 l 1168 920 l 1168 0 l 974 0 l 974 468 z "},"N":{"ha":1003,"x_min":122,"x_max":881,"o":"m 376 488 l 301 607 l 296 607 l 307 480 l 307 0 l 122 0 l 122 926 l 262 926 l 631 428 l 704 299 l 710 299 l 697 435 l 697 920 l 881 920 l 881 -6 l 741 -6 l 376 488 z "},"O":{"ha":1080,"x_min":78,"x_max":1002,"o":"m 78 458 q 111 662 78 572 q 205 812 144 751 q 351 905 266 873 q 539 937 435 937 q 735 903 649 937 q 880 805 821 868 q 971 654 940 742 q 1002 460 1002 566 q 971 264 1002 353 q 880 113 940 176 q 735 16 821 50 q 539 -19 649 -19 q 351 13 435 -19 q 205 106 266 45 q 111 256 144 168 q 78 458 78 345 m 283 460 q 302 322 283 380 q 354 226 320 264 q 434 170 387 188 q 539 151 481 151 q 653 175 605 151 q 733 240 702 199 q 780 338 765 281 q 795 460 795 395 q 780 581 795 525 q 733 679 765 637 q 653 743 702 720 q 539 767 605 767 q 434 749 481 767 q 354 692 387 730 q 302 596 320 654 q 283 460 283 538 z "},"P":{"ha":848,"x_min":125,"x_max":793,"o":"m 125 910 q 254 927 184 921 q 395 932 323 932 q 474 929 434 932 q 553 917 515 925 q 627 893 592 908 q 689 857 661 879 q 764 763 736 821 q 793 625 793 705 q 761 479 793 540 q 676 379 729 418 q 554 322 623 340 q 412 304 485 304 q 392 305 405 304 q 366 306 380 305 q 340 308 353 307 q 319 310 327 309 l 319 0 l 125 0 l 125 910 m 408 762 q 357 760 379 762 q 319 755 335 758 l 319 482 q 335 479 325 481 q 357 477 346 478 q 380 476 369 476 q 397 475 391 475 q 470 482 435 475 q 530 505 504 488 q 571 550 555 522 q 586 621 586 578 q 572 688 586 661 q 534 732 558 715 q 477 755 510 748 q 408 762 445 762 z "},"Q":{"ha":1080,"x_min":78,"x_max":1002,"o":"m 78 458 q 111 662 78 572 q 205 812 144 751 q 351 905 266 873 q 539 937 435 937 q 735 903 649 937 q 880 805 821 868 q 971 654 940 742 q 1002 460 1002 566 q 977 282 1002 363 q 904 140 952 201 q 785 39 855 79 q 625 -13 715 0 q 660 -94 631 -67 q 748 -121 688 -121 q 782 -118 764 -121 q 817 -111 800 -115 q 849 -100 833 -106 q 878 -85 865 -94 l 912 -241 q 869 -265 894 -255 q 818 -281 844 -275 q 768 -291 792 -288 q 727 -294 744 -294 q 614 -282 661 -294 q 531 -242 567 -269 q 460 -148 484 -207 q 433 -9 437 -90 q 287 43 352 5 q 175 141 221 81 q 103 280 128 200 q 78 458 78 360 m 283 460 q 302 322 283 380 q 354 226 320 264 q 434 170 387 188 q 539 151 481 151 q 653 175 605 151 q 733 240 702 199 q 780 338 765 281 q 795 460 795 395 q 780 581 795 525 q 733 679 765 637 q 653 743 702 720 q 539 767 605 767 q 434 749 481 767 q 354 692 387 730 q 302 596 320 654 q 283 460 283 538 z "},"R":{"ha":1003,"x_min":142,"x_max":972,"o":"m 142 910 q 216 920 174 916 q 300 927 257 924 q 383 931 342 930 q 454 932 424 932 q 527 929 490 932 q 601 919 565 926 q 671 900 637 911 q 731 871 704 888 q 813 785 782 838 q 844 659 844 732 q 828 557 844 602 q 786 479 812 512 q 723 426 759 447 q 645 395 686 405 l 692 348 l 972 0 l 732 0 l 463 356 l 336 372 l 336 0 l 142 0 l 142 910 m 457 762 q 424 761 441 762 q 390 761 407 761 q 359 759 374 760 q 336 757 345 758 l 336 503 l 442 503 q 517 508 479 503 q 582 530 554 514 q 623 572 608 546 q 637 642 637 599 q 624 694 637 668 q 586 735 610 720 q 528 756 562 750 q 457 762 494 762 z "},"S":{"ha":772,"x_min":47,"x_max":722,"o":"m 527 252 q 511 298 527 279 q 469 334 496 318 q 408 362 443 349 q 334 388 373 375 q 240 426 287 404 q 155 480 193 448 q 94 558 117 513 q 70 665 70 604 q 94 785 70 734 q 162 870 118 836 q 269 921 207 904 q 406 937 331 937 q 571 922 494 937 q 699 880 649 907 l 637 717 q 596 736 621 726 q 541 753 572 745 q 475 765 511 760 q 402 770 439 770 q 300 747 336 770 q 264 683 264 724 q 275 644 264 661 q 302 614 285 627 q 343 590 320 600 q 391 570 366 579 q 443 552 416 561 q 492 532 469 543 q 576 491 535 514 q 650 437 617 468 q 702 366 682 406 q 722 275 722 326 q 695 143 722 199 q 621 52 669 88 q 506 -1 573 16 q 359 -18 439 -18 q 257 -12 306 -18 q 168 3 208 -6 q 96 22 127 12 q 47 42 65 33 l 112 212 q 152 193 126 203 q 209 172 177 182 q 277 156 241 163 q 349 149 313 149 q 482 174 437 149 q 527 252 527 199 z "},"T":{"ha":926,"x_min":47,"x_max":879,"o":"m 879 749 l 560 749 l 560 0 l 366 0 l 366 749 l 47 749 l 47 920 l 879 920 l 879 749 z "},"U":{"ha":1003,"x_min":125,"x_max":878,"o":"m 694 920 l 878 920 l 878 330 q 851 175 878 240 q 774 67 823 110 q 659 4 726 24 q 515 -16 593 -16 q 350 4 422 -16 q 227 65 277 24 q 151 166 177 105 q 125 307 125 227 l 125 920 l 319 920 l 319 343 q 365 202 319 248 q 513 155 411 155 q 589 166 555 155 q 646 199 623 176 q 682 257 669 222 q 694 343 694 293 l 694 920 z "},"V":{"ha":1003,"x_min":28,"x_max":975,"o":"m 471 389 l 512 266 l 518 266 l 561 390 l 770 920 l 975 920 l 572 -6 l 433 -6 l 28 920 l 254 920 l 471 389 z "},"W":{"ha":1389,"x_min":47,"x_max":1341,"o":"m 406 414 l 435 292 l 440 292 l 470 416 l 644 920 l 769 920 l 939 414 l 970 292 l 976 292 l 1006 416 l 1142 920 l 1341 920 l 1041 -6 l 910 -6 l 732 494 l 701 608 l 692 608 l 662 492 l 484 -6 l 346 -6 l 47 920 l 260 920 l 406 414 z "},"X":{"ha":1003,"x_min":37,"x_max":966,"o":"m 372 467 l 66 920 l 301 920 l 469 660 l 511 590 l 555 660 l 736 920 l 951 920 l 628 479 l 966 0 l 733 0 l 537 279 l 490 347 l 444 279 l 252 0 l 37 0 l 372 467 z "},"Y":{"ha":1003,"x_min":22,"x_max":981,"o":"m 404 338 l 22 920 l 262 920 l 468 587 l 510 509 l 515 509 l 557 589 l 762 920 l 981 920 l 599 340 l 599 0 l 404 0 l 404 338 z "},"Z":{"ha":926,"x_min":79,"x_max":859,"o":"m 79 171 l 572 694 l 639 749 l 92 749 l 92 920 l 847 920 l 847 749 l 351 220 l 288 171 l 859 171 l 859 0 l 79 0 l 79 171 z "},"[":{"ha":463,"x_min":88,"x_max":421,"o":"m 88 920 l 421 920 l 421 766 l 264 766 l 264 -148 l 421 -148 l 421 -302 l 88 -302 l 88 920 z "},"\\":{"ha":386,"x_min":-55,"x_max":441,"o":"m 441 -184 l 287 -229 l -55 890 l 96 934 l 441 -184 z "},"]":{"ha":463,"x_min":41,"x_max":374,"o":"m 374 -302 l 41 -302 l 41 -148 l 198 -148 l 198 766 l 41 766 l 41 920 l 374 920 l 374 -302 z "},"^":{"ha":807,"x_min":82,"x_max":724,"o":"m 361 926 l 460 926 l 724 540 l 538 540 l 444 689 l 405 774 l 361 688 l 260 540 l 82 540 l 361 926 z "},"_":{"ha":694,"x_min":10,"x_max":685,"o":"m 10 -148 l 685 -148 l 685 -297 l 10 -297 l 10 -148 z "},"`":{"ha":463,"x_min":77,"x_max":359,"o":"m 359 749 l 262 749 l 77 918 l 77 958 l 271 958 l 359 749 z "},"a":{"ha":694,"x_min":58,"x_max":630,"o":"m 100 594 q 172 621 138 611 q 239 637 206 631 q 304 645 271 643 q 374 646 338 646 q 487 630 441 646 q 561 585 533 614 q 602 514 589 555 q 614 422 614 473 q 609 300 614 360 q 604 172 604 239 q 610 82 604 125 q 630 -1 616 39 l 492 -1 l 465 93 l 450 93 q 408 43 431 63 q 359 12 385 23 q 306 -5 334 0 q 251 -9 279 -9 q 172 3 208 -9 q 111 41 136 16 q 72 101 85 66 q 58 183 58 137 q 81 288 58 245 q 150 357 105 331 q 228 385 184 376 q 322 393 273 393 q 344 393 330 393 q 374 390 358 392 q 409 386 391 389 q 444 378 427 382 q 447 402 446 391 q 448 422 448 412 q 441 460 448 445 q 423 486 435 475 q 388 504 412 497 q 332 511 364 511 q 278 507 303 511 q 230 497 253 503 q 186 483 208 491 q 144 466 165 475 l 100 594 m 314 125 q 358 132 337 125 q 396 151 378 139 q 426 177 413 162 q 446 208 438 192 l 446 279 q 424 284 436 281 q 399 289 412 287 q 373 292 386 291 q 348 294 359 294 q 293 285 315 294 q 257 263 271 277 q 237 233 243 250 q 231 200 231 216 q 252 143 231 161 q 314 125 273 125 z "},"b":{"ha":772,"x_min":102,"x_max":711,"o":"m 102 934 l 271 934 l 271 581 l 286 581 q 319 610 300 597 q 362 632 339 623 q 412 646 386 641 q 465 650 438 650 q 648 570 585 650 q 711 334 711 490 q 689 186 711 252 q 624 76 667 121 q 519 7 581 31 q 379 -16 458 -16 q 293 -13 334 -16 q 215 -3 251 -9 q 150 10 179 3 q 102 26 121 18 l 102 934 m 271 144 q 323 129 295 132 q 384 125 351 125 q 499 177 462 125 q 537 331 537 228 q 508 464 537 418 q 414 509 478 509 q 326 483 364 509 q 271 408 288 458 l 271 144 z "},"c":{"ha":616,"x_min":61,"x_max":583,"o":"m 583 43 q 537 17 562 28 q 485 -2 513 6 q 426 -14 456 -9 q 365 -18 395 -18 q 226 6 283 -18 q 132 75 168 31 q 78 181 95 119 q 61 317 61 242 q 85 457 61 396 q 148 564 109 519 q 247 630 187 608 q 381 652 307 652 q 498 638 449 652 q 583 606 547 624 l 542 471 q 476 493 509 484 q 401 503 442 503 q 333 493 363 503 q 281 461 303 483 q 247 402 259 438 q 235 317 235 366 q 243 243 235 277 q 272 185 252 210 q 321 146 291 160 q 394 132 351 132 q 480 144 441 132 q 545 170 518 157 l 583 43 z "},"d":{"ha":772,"x_min":61,"x_max":677,"o":"m 665 222 q 666 117 665 172 q 677 -1 667 62 l 559 -1 l 536 87 l 521 87 q 478 39 500 59 q 433 6 457 19 q 381 -13 410 -7 q 319 -18 353 -18 q 207 4 255 -18 q 126 68 159 26 q 77 171 94 111 q 61 306 61 231 q 80 449 61 385 q 136 558 98 513 q 229 627 173 603 q 361 651 286 651 q 435 644 404 651 q 496 628 466 637 l 496 934 l 665 934 l 665 222 m 361 123 q 450 150 418 123 q 496 223 481 176 l 496 477 q 473 492 485 486 q 449 502 462 498 q 420 508 436 506 q 385 510 405 510 q 310 494 339 510 q 264 450 281 477 q 241 385 248 422 q 235 307 235 349 q 241 236 235 269 q 262 178 248 203 q 301 139 277 154 q 361 123 325 125 z "},"e":{"ha":616,"x_min":41,"x_max":579,"o":"m 559 41 q 467 -2 523 14 q 342 -18 412 -18 q 219 -1 273 -18 q 128 53 166 16 q 62 165 83 97 q 41 313 41 234 q 65 460 41 395 q 126 567 89 524 q 218 631 164 610 q 336 652 272 652 q 441 634 395 652 q 517 583 486 616 q 564 502 548 550 q 579 394 579 454 q 576 331 579 364 q 568 273 573 298 l 213 273 q 220 209 213 239 q 245 157 227 179 q 292 124 262 134 q 359 115 322 115 q 440 129 404 115 q 502 161 477 143 l 559 41 m 326 519 q 272 507 294 519 q 238 475 251 495 q 219 429 225 455 q 213 376 214 403 l 421 376 q 423 413 423 396 q 397 490 422 461 q 326 519 372 519 z "},"f":{"ha":463,"x_min":24,"x_max":498,"o":"m 24 635 l 123 635 l 123 734 q 139 824 123 786 q 182 886 155 863 q 253 923 213 913 q 338 934 294 934 q 389 932 368 934 q 429 928 411 931 q 463 921 446 925 q 498 911 479 917 l 467 779 q 440 788 452 784 q 417 794 429 792 q 394 798 406 797 q 368 800 382 800 q 331 792 348 800 q 307 774 315 784 q 294 745 299 765 q 289 700 289 725 l 289 635 l 433 635 l 433 494 l 292 494 l 292 0 l 123 0 l 123 494 l 24 494 l 24 635 z "},"g":{"ha":694,"x_min":41,"x_max":612,"o":"m 612 24 q 596 -100 612 -47 q 546 -190 580 -154 q 459 -244 512 -226 q 334 -263 407 -263 q 247 -257 287 -263 q 173 -241 206 -251 q 113 -218 139 -231 q 68 -192 87 -205 l 134 -71 q 207 -109 163 -92 q 305 -125 251 -125 q 381 -113 353 -125 q 424 -80 410 -101 q 443 -32 439 -59 q 448 26 448 -4 l 448 79 l 433 79 q 418 59 429 70 q 391 38 408 48 q 350 22 374 28 q 294 15 326 15 q 104 91 168 15 q 41 316 41 167 q 126 567 41 482 q 374 651 211 651 q 510 640 453 651 q 612 613 567 628 l 612 24 m 328 146 q 371 152 353 146 q 403 167 389 157 q 426 189 416 176 q 443 218 435 202 l 443 490 q 399 505 420 500 q 354 510 378 510 q 291 499 317 510 q 246 467 264 489 q 220 409 229 444 q 212 323 212 373 q 242 189 212 231 q 328 146 272 146 z "},"h":{"ha":772,"x_min":102,"x_max":680,"o":"m 511 0 l 511 349 q 507 403 511 376 q 491 452 503 430 q 458 489 479 475 q 403 503 437 503 q 324 473 358 503 q 271 391 290 442 l 271 0 l 102 0 l 102 934 l 271 934 l 271 557 l 286 557 q 319 594 300 576 q 362 624 338 611 q 415 645 386 637 q 478 652 444 652 q 557 640 520 652 q 621 596 593 627 q 664 514 648 566 q 680 386 680 463 l 680 0 l 511 0 z "},"i":{"ha":386,"x_min":86,"x_max":324,"o":"m 108 635 l 277 635 l 277 0 l 108 0 l 108 635 m 86 865 q 95 903 86 886 q 120 933 104 921 q 157 953 136 946 q 202 960 178 960 q 252 953 230 960 q 291 933 275 946 q 315 903 307 921 q 324 865 324 886 q 291 793 324 818 q 202 768 258 768 q 157 775 178 768 q 120 793 136 781 q 95 824 104 806 q 86 865 86 842 z "},"j":{"ha":463,"x_min":26,"x_max":376,"o":"m 160 635 l 329 635 l 329 -4 q 326 -58 329 -31 q 317 -109 323 -84 q 302 -154 311 -133 q 282 -190 294 -174 q 250 -221 269 -208 q 209 -244 231 -235 q 161 -258 186 -254 q 111 -263 136 -263 q 67 -260 91 -263 q 26 -252 43 -258 l 26 -111 q 41 -112 31 -112 q 56 -113 50 -113 q 106 -104 84 -113 q 140 -81 129 -96 q 157 -37 154 -62 q 160 24 160 -12 l 160 635 m 138 865 q 148 903 138 886 q 172 933 157 921 q 209 953 188 946 q 254 960 230 960 q 304 953 282 960 q 343 933 327 946 q 368 903 359 921 q 376 865 376 886 q 343 793 376 818 q 254 768 310 768 q 209 775 230 768 q 172 793 188 781 q 148 824 157 806 q 138 865 138 842 z "},"k":{"ha":772,"x_min":102,"x_max":762,"o":"m 334 263 l 272 263 l 272 0 l 102 0 l 102 934 l 272 934 l 272 360 l 330 383 l 541 635 l 729 635 l 511 395 l 461 339 l 514 286 l 762 0 l 557 0 l 334 263 z "},"l":{"ha":386,"x_min":75,"x_max":382,"o":"m 243 222 q 254 153 243 176 q 300 130 265 130 q 334 135 317 130 q 372 148 352 140 l 382 12 q 310 -12 346 -3 q 231 -20 274 -20 q 115 24 155 -20 q 75 146 75 68 l 75 934 l 243 934 l 243 222 z "},"m":{"ha":1157,"x_min":102,"x_max":1072,"o":"m 500 0 l 500 331 q 498 389 500 359 q 485 445 495 419 q 456 487 475 470 q 404 503 437 503 q 356 494 378 503 q 317 470 334 484 q 288 441 300 456 q 271 413 276 425 l 271 0 l 102 0 l 102 635 l 233 635 l 252 547 l 268 547 q 303 586 283 567 q 347 620 322 605 q 401 644 371 635 q 470 652 432 652 q 581 624 534 652 q 652 529 627 596 q 741 620 687 588 q 860 652 794 652 q 948 639 909 652 q 1015 593 987 626 q 1057 505 1042 560 q 1072 366 1072 450 l 1072 0 l 903 0 l 903 339 q 898 409 903 378 q 882 461 893 440 q 851 492 870 481 q 802 503 831 503 q 755 494 777 503 q 716 470 733 484 q 687 438 699 455 q 670 405 675 420 l 670 0 l 500 0 z "},"n":{"ha":772,"x_min":102,"x_max":687,"o":"m 517 0 l 517 348 q 489 467 517 430 q 409 503 461 503 q 360 493 382 503 q 320 467 338 483 q 290 433 302 452 q 271 397 277 414 l 271 0 l 102 0 l 102 635 l 235 635 l 253 544 l 271 544 q 306 585 285 565 q 352 620 326 604 q 406 644 377 635 q 467 652 435 652 q 554 640 514 652 q 624 596 594 627 q 670 514 653 566 q 687 383 687 462 l 687 0 l 517 0 z "},"o":{"ha":694,"x_min":41,"x_max":654,"o":"m 41 317 q 61 452 41 391 q 120 558 81 514 q 216 628 159 603 q 348 652 273 652 q 481 627 424 652 q 577 556 539 602 q 634 450 615 511 q 654 317 654 389 q 634 183 654 245 q 577 77 615 122 q 481 6 539 32 q 348 -19 424 -19 q 216 6 273 -19 q 120 75 159 31 q 61 181 81 119 q 41 317 41 243 m 215 317 q 224 229 215 266 q 251 169 234 192 q 293 134 269 145 q 348 123 317 123 q 409 137 384 123 q 450 178 434 152 q 473 239 466 203 q 481 317 481 275 q 473 394 481 359 q 450 456 466 430 q 409 496 434 481 q 348 511 384 511 q 293 499 317 511 q 251 465 269 488 q 224 405 234 441 q 215 317 215 368 z "},"p":{"ha":772,"x_min":102,"x_max":711,"o":"m 102 635 l 222 635 l 243 556 l 258 556 q 467 652 332 652 q 653 571 595 652 q 711 332 711 489 q 692 188 711 252 q 636 77 673 123 q 541 5 598 31 q 408 -20 484 -20 q 334 -12 368 -20 q 271 9 301 -4 l 271 -249 l 102 -249 l 102 635 m 414 511 q 322 485 357 511 q 271 405 288 460 l 271 158 q 320 132 292 142 q 387 122 349 122 q 456 133 428 122 q 503 167 485 143 q 529 229 521 191 q 537 323 537 267 q 532 398 537 364 q 512 457 526 433 q 475 496 498 482 q 414 511 451 511 z "},"q":{"ha":772,"x_min":61,"x_max":671,"o":"m 671 -249 l 501 -249 l 501 60 l 487 60 q 421 2 463 23 q 314 -18 379 -18 q 124 65 187 -18 q 61 303 61 148 q 150 562 61 473 q 410 651 238 651 q 485 648 448 651 q 557 639 523 644 q 621 627 591 633 q 671 612 650 620 l 671 -249 m 363 123 q 414 131 391 123 q 454 151 437 138 q 483 182 471 164 q 501 219 495 199 l 501 492 q 449 506 479 502 q 383 510 418 510 q 315 496 343 510 q 269 456 287 481 q 243 393 252 430 q 235 310 235 355 q 267 172 235 220 q 363 123 298 123 z "},"r":{"ha":616,"x_min":111,"x_max":593,"o":"m 238 635 l 262 543 l 277 543 q 325 596 301 575 q 373 628 349 616 q 422 645 397 640 q 475 649 447 649 q 533 641 502 649 q 593 612 564 632 l 538 456 q 513 471 527 465 q 487 483 500 478 q 461 491 473 488 q 439 494 448 494 q 354 472 395 494 q 280 398 313 450 l 280 0 l 111 0 l 111 635 l 238 635 z "},"s":{"ha":541,"x_min":34,"x_max":507,"o":"m 83 171 q 126 146 105 157 q 168 129 146 136 q 212 118 189 121 q 262 115 235 115 q 321 131 304 115 q 338 170 338 146 q 326 207 338 193 q 295 231 313 221 q 253 247 276 240 q 210 260 231 253 q 156 282 184 268 q 104 320 127 297 q 66 377 81 343 q 51 456 51 410 q 68 541 51 504 q 116 602 85 577 q 192 640 147 627 q 290 652 236 652 q 341 650 317 652 q 388 643 366 648 q 434 629 411 637 q 484 610 458 621 l 448 482 q 374 508 412 496 q 293 519 336 519 q 240 505 259 519 q 221 463 221 491 q 234 426 221 439 q 267 404 247 412 q 310 390 286 395 q 355 377 334 384 q 412 353 385 368 q 460 317 439 339 q 494 265 481 296 q 507 193 507 235 q 492 108 507 146 q 448 41 478 69 q 371 -2 418 14 q 258 -18 323 -18 q 128 -2 186 -18 q 34 35 71 14 l 83 171 z "},"t":{"ha":463,"x_min":14,"x_max":456,"o":"m 14 635 l 109 635 l 109 779 l 279 823 l 279 635 l 435 635 l 435 494 l 279 494 l 279 267 q 281 202 279 229 q 292 160 284 176 q 314 137 300 144 q 351 130 328 130 q 373 132 362 130 q 395 138 385 134 q 413 145 405 141 q 426 153 421 149 l 456 22 q 433 9 449 16 q 396 -4 417 2 q 351 -15 375 -11 q 303 -20 327 -20 q 222 -8 258 -20 q 161 27 186 3 q 122 88 136 51 q 109 176 109 125 l 109 494 l 14 494 l 14 635 z "},"u":{"ha":772,"x_min":92,"x_max":688,"o":"m 262 635 l 262 283 q 265 230 262 257 q 279 181 269 203 q 310 145 290 159 q 363 132 330 132 q 412 142 389 132 q 452 167 435 152 q 481 199 469 182 q 498 230 492 216 l 498 635 l 667 635 l 667 193 q 672 92 667 142 q 688 0 677 41 l 563 0 l 530 99 l 517 99 q 427 12 481 42 q 304 -18 372 -18 q 216 -5 255 -18 q 149 39 176 8 q 107 121 121 71 q 92 246 92 172 l 92 635 l 262 635 z "},"v":{"ha":694,"x_min":10,"x_max":685,"o":"m 333 319 l 359 241 l 363 241 l 388 321 l 503 635 l 685 635 l 402 -5 l 305 -5 l 10 635 l 208 635 l 333 319 z "},"w":{"ha":1003,"x_min":14,"x_max":989,"o":"m 578 635 l 694 319 l 721 234 l 726 234 l 746 321 l 835 635 l 989 635 l 787 -5 l 665 -5 l 530 323 l 507 391 l 503 391 l 478 321 l 351 -5 l 223 -5 l 14 635 l 197 635 l 288 335 l 311 238 l 315 238 l 344 336 l 453 635 l 578 635 z "},"x":{"ha":694,"x_min":16,"x_max":678,"o":"m 226 325 l 30 635 l 235 635 l 305 512 l 356 420 l 408 512 l 483 635 l 669 635 l 471 330 l 678 0 l 478 0 l 394 142 l 342 233 l 288 143 l 203 0 l 16 0 l 226 325 z "},"y":{"ha":694,"x_min":17,"x_max":681,"o":"m 349 306 l 377 218 l 380 218 l 401 306 l 507 635 l 681 635 l 475 60 q 450 -7 463 26 q 423 -71 437 -41 q 396 -126 410 -101 q 370 -171 382 -152 q 290 -242 334 -222 q 194 -263 245 -263 q 124 -252 163 -263 q 53 -217 85 -241 l 93 -95 q 118 -106 105 -102 q 141 -113 130 -111 q 162 -116 153 -115 q 176 -117 171 -117 q 217 -110 195 -117 q 257 -85 240 -103 q 283 -44 271 -71 q 303 8 296 -18 l 17 635 l 221 635 l 349 306 z "},"z":{"ha":616,"x_min":47,"x_max":570,"o":"m 47 144 l 310 425 l 309 425 l 387 494 l 64 494 l 64 635 l 570 635 l 570 490 l 313 206 l 314 206 l 234 142 l 570 142 l 570 0 l 47 0 l 47 144 z "},"{":{"ha":547,"x_min":64,"x_max":500,"o":"m 178 122 q 148 214 178 189 q 64 239 119 239 l 64 378 q 148 405 119 378 q 178 490 178 432 l 178 757 q 214 874 178 827 q 330 921 250 921 l 500 921 l 500 767 l 428 767 q 372 748 390 767 q 355 687 355 729 l 355 441 q 324 354 355 383 q 254 318 293 324 l 254 304 q 324 265 293 300 q 355 176 355 231 l 355 -68 q 372 -129 355 -109 q 429 -148 390 -148 l 500 -148 l 500 -302 l 330 -302 q 217 -259 256 -302 q 178 -139 178 -217 l 178 122 z "},"|":{"ha":306,"x_min":77,"x_max":229,"o":"m 77 920 l 229 920 l 229 -171 l 77 -171 l 77 920 z "},"}":{"ha":547,"x_min":47,"x_max":484,"o":"m 370 496 q 399 405 370 430 q 484 380 429 380 l 484 241 q 399 214 429 241 q 370 129 370 186 l 370 -136 q 331 -255 370 -208 q 213 -302 292 -302 l 47 -302 l 47 -148 l 119 -148 q 175 -129 157 -148 q 193 -68 193 -111 l 193 177 q 223 265 193 235 q 293 300 254 294 l 293 313 q 224 353 255 319 q 193 442 193 387 l 193 687 q 176 747 193 728 q 117 767 158 767 l 47 767 l 47 921 l 217 921 q 331 877 292 921 q 370 757 370 833 l 370 496 z "},"~":{"ha":722,"x_min":26,"x_max":697,"o":"m 26 499 q 146 569 93 549 q 245 589 199 589 q 321 577 286 589 q 390 553 357 566 q 454 529 422 540 q 519 517 486 517 q 572 526 545 517 q 630 557 600 535 l 697 415 q 604 365 646 378 q 525 351 562 351 q 451 362 486 351 q 384 390 417 374 q 318 417 351 405 q 250 429 286 429 q 174 414 214 429 q 87 361 134 399 l 26 499 z "},"¡":{"ha":463,"x_min":116,"x_max":346,"o":"m 323 -263 l 132 -263 l 132 167 l 168 378 l 285 378 l 323 167 l 323 -263 m 116 568 q 148 644 116 616 q 230 671 179 671 q 314 644 283 671 q 346 568 346 616 q 314 493 346 522 q 230 464 283 464 q 148 493 179 464 q 116 568 116 522 z "},"¢":{"ha":694,"x_min":86,"x_max":617,"o":"m 482 136 q 536 150 513 142 q 576 168 559 158 l 617 39 q 560 12 593 23 q 488 -7 527 0 l 488 -121 l 331 -121 l 331 -14 q 217 21 264 -5 q 142 88 171 47 q 99 182 113 128 q 86 302 86 237 q 149 518 86 437 q 331 616 211 598 l 331 725 l 488 725 l 488 616 q 555 603 526 612 q 608 583 584 595 l 567 445 q 526 458 547 452 q 482 467 505 464 l 482 136 m 360 464 q 281 413 307 452 q 255 302 255 374 q 279 203 255 248 q 360 143 303 159 l 360 464 z "},"£":{"ha":694,"x_min":34,"x_max":661,"o":"m 34 520 l 142 520 q 114 586 128 546 q 100 679 100 626 q 121 785 100 738 q 180 867 142 833 q 273 919 219 901 q 395 937 328 937 q 473 932 437 937 q 538 919 509 927 q 593 900 568 910 q 640 878 618 889 l 579 711 q 501 748 543 732 q 413 764 460 764 q 288 652 288 764 q 293 613 288 632 q 306 577 298 594 q 322 546 313 560 q 340 520 332 531 l 530 520 l 530 371 l 398 371 q 399 356 398 363 q 399 340 399 348 q 384 255 399 296 q 338 185 369 214 l 285 148 l 285 142 l 373 163 l 661 163 l 661 0 l 41 0 l 41 163 q 170 209 126 165 q 201 257 193 231 q 210 315 210 283 q 209 342 210 328 q 203 371 207 356 l 34 371 l 34 520 z "},"¤":{"ha":694,"x_min":2,"x_max":693,"o":"m 108 802 l 189 720 l 213 671 q 344 709 267 709 q 416 700 382 709 q 476 671 450 690 l 501 720 l 588 803 l 693 693 l 608 608 l 559 589 q 586 526 578 560 q 593 454 593 491 q 585 379 593 413 q 559 321 576 345 l 608 300 l 684 224 l 578 116 l 501 191 l 479 238 q 418 209 454 219 q 344 199 382 199 q 213 238 267 199 l 189 191 l 113 113 l 7 221 l 83 300 l 130 323 q 107 381 116 349 q 98 454 98 413 q 107 524 98 491 q 133 587 117 556 l 83 609 l 2 693 l 108 802 m 247 454 q 254 411 247 431 q 274 376 261 391 q 304 353 286 361 q 345 345 323 345 q 387 353 369 345 q 418 376 406 361 q 437 411 431 391 q 444 454 444 431 q 436 497 444 477 q 417 532 429 517 q 386 556 404 547 q 345 564 368 564 q 304 555 322 564 q 273 530 286 546 q 254 495 260 515 q 247 454 247 475 z "},"¥":{"ha":694,"x_min":7,"x_max":688,"o":"m 53 444 l 198 444 l 7 920 l 212 920 l 343 542 l 350 542 l 481 920 l 688 920 l 486 444 l 621 444 l 621 321 l 434 321 l 434 244 l 621 244 l 621 121 l 434 121 l 434 0 l 239 0 l 239 121 l 53 121 l 53 244 l 239 244 l 239 321 l 53 321 l 53 444 z "},"¦":{"ha":306,"x_min":77,"x_max":229,"o":"m 77 279 l 229 279 l 229 -171 l 77 -171 l 77 279 m 229 469 l 77 469 l 77 920 l 229 920 l 229 469 z "},"§":{"ha":694,"x_min":46,"x_max":648,"o":"m 46 464 q 51 505 46 484 q 65 545 56 526 q 87 582 74 564 q 118 612 100 599 l 178 629 q 116 683 139 650 q 94 768 94 715 q 155 890 94 843 q 342 937 216 937 q 474 929 408 937 q 604 893 540 921 l 558 745 q 469 773 515 763 q 372 784 422 784 q 298 771 319 784 q 277 736 277 758 q 293 709 277 720 q 336 690 309 698 q 397 674 363 682 q 466 658 431 667 q 534 633 501 648 q 592 595 567 618 q 633 538 618 572 q 648 456 648 504 q 643 414 648 435 q 628 374 637 393 q 606 337 618 354 q 578 310 593 321 l 513 292 q 549 268 532 281 q 577 238 565 255 q 596 199 589 220 q 603 151 603 178 q 579 69 603 102 q 519 17 556 36 q 438 -11 483 -3 q 351 -18 393 -18 q 215 -6 281 -18 q 87 41 149 6 l 137 180 q 166 167 148 175 q 207 152 184 159 q 259 140 231 145 q 320 136 288 136 q 396 147 373 136 q 418 184 418 158 q 390 221 418 209 q 320 244 361 234 q 229 265 278 254 q 158 290 190 274 q 101 330 125 306 q 63 387 77 354 q 46 464 49 420 m 465 454 q 454 493 465 477 q 421 520 443 509 q 368 542 399 532 q 293 564 336 551 q 247 522 264 548 q 230 466 230 496 q 240 428 230 444 q 272 400 251 412 q 325 378 294 388 q 398 359 356 369 q 447 400 429 374 q 465 454 465 425 z "},"¨":{"ha":463,"x_min":-14,"x_max":477,"o":"m -14 863 q 15 936 -14 909 q 87 964 43 964 q 159 936 132 964 q 186 863 186 909 q 159 796 186 823 q 87 768 132 768 q 15 796 43 768 q -14 863 -14 823 m 278 863 q 305 936 278 909 q 376 964 332 964 q 450 936 422 964 q 477 863 477 909 q 450 796 477 823 q 376 768 422 768 q 305 796 332 768 q 278 863 278 823 z "},"©":{"ha":1038,"x_min":35,"x_max":1002,"o":"m 35 374 q 53 509 35 444 q 101 631 70 574 q 177 733 133 687 q 275 813 221 780 q 390 864 328 846 q 519 882 452 882 q 647 864 585 882 q 763 813 709 846 q 861 733 817 780 q 936 631 905 687 q 985 509 968 574 q 1002 374 1002 444 q 985 240 1002 304 q 936 118 968 175 q 861 16 905 62 q 763 -64 817 -31 q 647 -115 709 -97 q 519 -133 585 -133 q 390 -115 452 -133 q 275 -64 328 -97 q 177 16 221 -31 q 101 118 133 62 q 53 240 70 175 q 35 374 35 304 m 175 375 q 202 230 175 298 q 276 111 229 161 q 385 31 322 60 q 519 1 448 1 q 653 31 590 1 q 762 111 715 60 q 836 230 808 161 q 863 375 863 298 q 836 520 863 452 q 762 639 808 589 q 653 719 715 690 q 519 749 590 749 q 385 719 448 749 q 276 639 322 690 q 202 520 229 589 q 175 375 175 452 m 718 154 q 640 121 688 133 q 538 109 592 109 q 366 180 425 109 q 306 376 306 252 q 370 572 306 503 q 538 642 433 642 q 631 630 591 642 q 709 597 671 618 l 662 471 q 618 487 638 484 q 579 491 597 491 q 518 466 541 491 q 495 376 495 442 q 589 258 495 258 q 634 263 614 258 q 676 279 654 268 l 718 154 z "},"ª":{"ha":416,"x_min":9,"x_max":393,"o":"m 16 882 q 53 900 33 891 q 99 915 73 908 q 157 926 125 922 q 233 930 190 930 q 306 919 277 930 q 354 886 336 907 q 379 836 372 865 q 387 768 387 806 q 387 726 387 746 q 385 687 386 706 q 384 648 385 667 q 383 609 383 629 q 385 551 383 578 q 393 499 387 524 l 273 499 l 262 560 l 256 560 q 235 535 247 547 q 209 514 224 523 q 176 499 194 505 q 136 494 158 494 q 83 504 106 494 q 43 531 60 513 q 18 572 27 548 q 9 625 9 596 q 61 733 9 695 q 226 771 112 771 q 241 770 236 771 q 256 770 246 770 q 246 812 258 800 q 226 826 239 820 q 191 831 212 831 q 146 827 167 831 q 106 818 125 823 q 73 806 88 812 q 47 795 58 800 l 16 882 m 185 600 q 213 606 201 600 q 234 620 225 612 q 249 635 243 627 q 256 646 254 642 l 256 695 q 236 697 245 696 q 217 697 228 697 q 158 684 174 697 q 141 644 141 670 q 153 611 141 623 q 185 600 164 600 z "},"«":{"ha":694,"x_min":45,"x_max":649,"o":"m 323 343 l 544 625 l 641 543 l 529 393 l 484 341 l 529 296 l 649 147 l 551 64 l 323 343 m 45 340 l 275 642 l 384 550 l 264 395 l 216 341 l 264 294 l 393 142 l 282 50 l 45 340 z "},"¬":{"ha":791,"x_min":80,"x_max":711,"o":"m 80 547 l 711 547 l 711 241 l 547 241 l 547 389 l 80 389 l 80 547 z "},"®":{"ha":1038,"x_min":120,"x_max":918,"o":"m 120 572 q 152 740 120 666 q 239 866 184 814 q 366 943 294 917 q 519 969 438 969 q 674 943 602 969 q 801 866 747 917 q 887 740 856 814 q 918 572 918 666 q 885 402 918 477 q 799 277 853 328 q 673 199 745 226 q 519 173 600 173 q 364 199 437 173 q 236 277 291 226 q 151 402 182 328 q 120 572 120 477 m 256 572 q 277 454 256 504 q 335 370 299 404 q 419 319 371 336 q 519 303 467 303 q 623 319 575 303 q 706 369 671 336 q 762 452 742 402 q 782 572 782 503 q 761 689 782 638 q 704 773 741 739 q 620 823 668 806 q 519 840 572 840 q 412 821 460 840 q 329 768 363 802 q 275 683 294 733 q 256 572 256 633 m 375 754 q 438 764 397 760 q 514 768 479 768 q 616 743 574 768 q 659 658 659 718 q 630 590 659 614 q 559 564 601 566 l 597 544 l 688 391 l 602 391 l 514 537 l 447 558 l 447 391 l 375 391 l 375 754 m 500 705 q 471 705 485 705 q 447 701 456 704 l 447 600 l 496 600 q 559 613 536 600 q 581 655 581 625 q 559 692 581 679 q 500 705 538 705 z "},"¯":{"ha":694,"x_min":117,"x_max":578,"o":"m 117 892 l 578 892 l 578 767 l 117 767 l 117 892 z "},"°":{"ha":555,"x_min":42,"x_max":513,"o":"m 42 715 q 61 805 42 764 q 112 875 80 846 q 187 921 144 905 q 275 937 230 937 q 367 922 324 937 q 443 879 410 907 q 494 809 475 850 q 513 715 513 768 q 494 624 513 665 q 443 556 475 584 q 367 513 410 528 q 275 498 324 498 q 187 513 230 498 q 112 556 144 528 q 61 624 80 584 q 42 715 42 665 m 184 717 q 211 655 184 677 q 277 633 239 633 q 343 655 315 633 q 372 717 372 677 q 343 780 372 758 q 277 802 315 802 q 211 780 239 802 q 184 717 184 757 z "},"±":{"ha":762,"x_min":68,"x_max":694,"o":"m 68 693 l 299 693 l 299 922 l 463 922 l 463 693 l 694 693 l 694 536 l 463 536 l 463 391 l 299 391 l 299 536 l 68 536 l 68 693 m 68 332 l 694 332 l 694 174 l 68 174 l 68 332 z "},"²":{"ha":416,"x_min":20,"x_max":405,"o":"m 386 888 q 376 817 386 850 q 350 757 366 785 q 312 707 333 730 q 267 668 290 685 l 229 642 l 229 638 l 280 642 l 405 642 l 405 498 l 21 498 l 21 601 q 94 653 58 624 q 159 714 130 682 q 206 781 188 747 q 224 848 224 815 q 207 899 224 882 q 160 915 191 915 q 129 911 144 915 q 102 903 115 908 q 80 893 90 899 q 65 885 71 888 l 20 1014 q 53 1030 35 1022 q 94 1045 72 1039 q 140 1056 115 1052 q 190 1060 164 1060 q 334 1016 281 1060 q 386 888 386 971 z "},"³":{"ha":416,"x_min":-1,"x_max":397,"o":"m 155 627 q 204 634 186 627 q 232 650 222 641 q 243 671 241 660 q 245 691 245 682 q 233 725 245 713 q 203 742 221 737 q 164 748 185 747 q 124 749 143 749 l 75 749 l 75 802 l 162 899 l 191 924 l 141 923 l 11 923 l 11 1055 l 368 1055 l 368 967 l 264 854 l 230 827 l 258 828 q 314 817 289 826 q 358 789 340 807 q 387 745 376 771 q 397 684 397 719 q 381 608 397 643 q 337 548 366 574 q 267 509 308 523 q 174 494 225 494 q 76 504 118 494 q -1 527 34 513 l 33 652 q 86 635 52 642 q 155 627 120 627 z "},"´":{"ha":463,"x_min":115,"x_max":380,"o":"m 194 958 l 380 958 l 380 920 l 214 749 l 115 749 l 194 958 z "},"µ":{"ha":800,"x_min":95,"x_max":720,"o":"m 264 604 l 264 283 q 292 167 264 207 q 386 127 319 127 q 480 156 448 127 q 530 241 513 186 l 530 604 l 699 604 l 699 197 q 703 97 699 146 q 720 0 707 47 l 594 0 l 552 96 l 547 96 q 475 14 517 43 q 374 -15 433 -15 q 300 2 331 -15 q 243 49 270 19 l 237 49 l 265 -81 l 265 -249 l 95 -249 l 95 604 l 264 604 z "},"¶":{"ha":750,"x_min":15,"x_max":646,"o":"m 494 920 l 646 920 l 646 -171 l 494 -171 l 494 920 m 230 383 q 143 407 182 383 q 75 467 104 430 q 31 553 46 504 q 15 653 15 602 q 34 752 15 704 q 87 837 52 800 q 170 897 121 875 q 277 920 218 920 l 383 920 l 383 -171 l 230 -171 l 230 383 z "},"·":{"ha":463,"x_min":117,"x_max":347,"o":"m 117 417 q 148 494 117 466 q 231 522 180 522 q 315 494 283 522 q 347 417 347 466 q 315 342 347 372 q 231 313 283 313 q 148 342 180 313 q 117 417 117 372 z "},"¸":{"ha":463,"x_min":74,"x_max":381,"o":"m 247 -68 q 345 -96 309 -73 q 381 -170 381 -119 q 365 -224 381 -201 q 320 -262 349 -247 q 253 -286 291 -278 q 170 -294 214 -294 q 123 -293 146 -294 q 74 -286 99 -292 l 87 -224 q 153 -224 128 -227 q 192 -215 178 -220 q 210 -200 205 -209 q 214 -182 214 -192 q 184 -148 214 -159 q 87 -133 155 -136 l 169 -7 l 283 -7 l 247 -68 z "},"¹":{"ha":416,"x_min":15,"x_max":408,"o":"m 146 832 l 153 886 l 117 851 l 85 827 l 15 926 l 193 1061 l 304 1061 l 304 641 l 408 641 l 408 499 l 35 499 l 35 641 l 146 641 l 146 832 z "},"º":{"ha":458,"x_min":20,"x_max":438,"o":"m 20 712 q 37 812 20 770 q 83 882 54 854 q 149 922 111 909 q 229 935 187 935 q 309 923 271 935 q 375 884 347 911 q 421 815 404 857 q 438 712 438 772 q 421 609 438 651 q 375 539 404 566 q 309 501 347 513 q 229 489 271 489 q 149 501 187 489 q 83 539 111 513 q 37 609 54 566 q 20 712 20 651 m 157 712 q 176 632 157 661 q 229 603 194 603 q 282 628 264 603 q 300 712 300 653 q 282 796 300 771 q 229 821 264 821 q 176 796 195 821 q 157 712 157 771 z "},"»":{"ha":694,"x_min":45,"x_max":649,"o":"m 143 64 l 45 147 l 165 296 l 210 341 l 165 393 l 54 543 l 151 625 l 371 343 l 143 64 m 412 50 l 302 142 l 431 294 l 478 341 l 431 395 l 311 550 l 420 642 l 649 340 l 412 50 z "},"¼":{"ha":1042,"x_min":7,"x_max":1035,"o":"m 138 700 l 145 754 l 109 719 l 77 695 l 7 793 l 185 928 l 296 928 l 296 368 l 138 368 l 138 700 m 733 935 l 840 861 l 248 -38 l 140 33 l 733 935 m 1035 99 l 946 99 l 946 0 l 804 0 l 804 99 l 528 99 l 528 193 l 820 562 l 946 562 l 946 222 l 1035 222 l 1035 99 m 804 328 l 809 386 l 774 336 l 707 254 l 678 217 l 732 222 l 804 222 l 804 328 z "},"½":{"ha":1042,"x_min":7,"x_max":1035,"o":"m 139 700 l 146 754 l 110 719 l 77 695 l 7 793 l 186 928 l 296 928 l 296 368 l 139 368 l 139 700 m 725 935 l 832 861 l 239 -38 l 132 33 l 725 935 m 1016 390 q 1006 319 1016 351 q 980 259 996 286 q 942 209 963 231 q 897 170 920 186 l 859 143 l 859 140 l 910 143 l 1035 143 l 1035 0 l 651 0 l 651 102 q 724 155 688 125 q 789 216 760 184 q 836 282 818 248 q 854 349 854 317 q 837 400 854 384 q 790 416 821 416 q 759 413 774 416 q 732 405 745 410 q 710 395 720 400 q 695 387 701 390 l 650 515 q 683 532 665 524 q 724 547 702 541 q 770 557 745 553 q 820 562 794 562 q 964 517 911 562 q 1016 390 1016 473 z "},"¾":{"ha":1042,"x_min":7,"x_max":1034,"o":"m 162 492 q 212 499 194 492 q 239 515 230 506 q 250 536 248 525 q 252 556 252 547 q 240 590 252 578 q 211 607 229 602 q 172 613 193 612 q 132 614 151 614 l 82 614 l 82 667 l 170 764 l 198 789 l 149 788 l 18 788 l 18 920 l 375 920 l 375 832 l 272 719 l 237 692 l 265 693 q 322 682 296 691 q 366 654 347 672 q 394 610 384 636 q 404 549 404 584 q 389 473 404 508 q 345 413 374 439 q 274 374 315 388 q 181 359 233 359 q 83 369 125 359 q 7 392 41 378 l 40 517 q 94 500 60 507 q 162 492 127 492 m 774 935 l 882 861 l 289 -38 l 182 33 l 774 935 m 1034 98 l 945 98 l 945 -1 l 804 -1 l 804 98 l 527 98 l 527 192 l 819 561 l 945 561 l 945 220 l 1034 220 l 1034 98 m 804 327 l 808 385 l 774 335 l 706 252 l 677 216 l 731 220 l 804 220 l 804 327 z "},"¿":{"ha":694,"x_min":66,"x_max":647,"o":"m 486 381 q 479 261 494 310 q 439 179 465 213 q 382 122 413 146 q 322 76 351 98 q 275 30 294 54 q 256 -27 256 6 q 284 -99 256 -73 q 382 -124 312 -124 q 430 -119 404 -124 q 483 -104 456 -113 q 533 -84 509 -96 q 576 -58 557 -72 l 647 -194 q 523 -253 593 -229 q 352 -277 452 -277 q 142 -218 218 -277 q 66 -56 66 -159 q 85 59 66 15 q 134 133 104 102 q 197 184 163 163 q 259 231 231 206 q 308 291 288 256 q 328 381 328 326 l 486 381 m 287 569 q 319 645 287 618 q 401 673 351 673 q 485 645 454 673 q 517 569 517 618 q 485 494 517 523 q 401 465 454 465 q 319 494 351 465 q 287 569 287 523 z "},"À":{"ha":1003,"x_min":27,"x_max":976,"o":"m 687 195 l 305 195 l 222 0 l 27 0 l 429 926 l 572 926 l 976 0 l 770 0 l 687 195 m 371 349 l 622 349 l 541 541 l 500 660 l 494 660 l 452 540 l 371 349 m 585 1008 l 435 1008 l 210 1122 l 210 1163 l 437 1163 l 585 1008 z "},"Á":{"ha":1003,"x_min":27,"x_max":976,"o":"m 687 195 l 305 195 l 222 0 l 27 0 l 429 926 l 572 926 l 976 0 l 770 0 l 687 195 m 371 349 l 622 349 l 541 541 l 500 660 l 494 660 l 452 540 l 371 349 m 550 1163 l 776 1163 l 776 1122 l 547 1008 l 400 1008 l 550 1163 z "},"Â":{"ha":1003,"x_min":27,"x_max":976,"o":"m 687 195 l 305 195 l 222 0 l 27 0 l 429 926 l 572 926 l 976 0 l 770 0 l 687 195 m 371 349 l 622 349 l 541 541 l 500 660 l 494 660 l 452 540 l 371 349 m 437 1183 l 574 1183 l 756 1061 l 756 1008 l 614 1008 l 546 1060 l 503 1099 l 458 1061 l 386 1008 l 246 1008 l 246 1063 l 437 1183 z "},"Ã":{"ha":1003,"x_min":27,"x_max":976,"o":"m 687 195 l 305 195 l 222 0 l 27 0 l 429 926 l 572 926 l 976 0 l 770 0 l 687 195 m 371 349 l 622 349 l 541 541 l 500 660 l 494 660 l 452 540 l 371 349 m 241 1092 q 326 1155 285 1138 q 408 1173 368 1173 q 471 1165 439 1173 q 532 1148 503 1158 q 590 1132 562 1139 q 645 1125 618 1125 q 688 1132 667 1125 q 729 1156 709 1138 l 762 1061 q 687 1014 723 1027 q 615 1001 650 1001 q 552 1008 583 1001 q 492 1025 522 1016 q 434 1041 463 1034 q 378 1048 406 1048 q 325 1039 351 1048 q 272 1002 298 1029 l 241 1092 z "},"Ä":{"ha":1003,"x_min":27,"x_max":976,"o":"m 687 195 l 305 195 l 222 0 l 27 0 l 429 926 l 572 926 l 976 0 l 770 0 l 687 195 m 371 349 l 622 349 l 541 541 l 500 660 l 494 660 l 452 540 l 371 349 m 241 1075 q 267 1132 241 1111 q 350 1154 292 1154 q 431 1132 405 1154 q 456 1075 456 1111 q 431 1021 456 1041 q 350 1000 405 1000 q 267 1021 292 1000 q 241 1075 241 1041 m 547 1075 q 572 1132 547 1111 q 653 1154 598 1154 q 736 1132 711 1154 q 762 1075 762 1111 q 736 1021 762 1041 q 653 1000 711 1000 q 572 1021 598 1000 q 547 1075 547 1041 z "},"Å":{"ha":1003,"x_min":41,"x_max":906,"o":"m 292 1014 q 300 1059 292 1038 q 329 1098 309 1081 q 384 1123 349 1114 q 474 1132 420 1132 q 615 1100 574 1132 q 656 1014 656 1069 q 634 947 656 976 q 553 905 612 918 l 906 0 l 700 0 l 621 195 l 311 195 l 236 0 l 41 0 l 394 905 q 315 946 337 917 q 292 1014 292 975 m 365 349 l 574 349 l 504 541 l 473 687 l 466 687 l 434 540 l 365 349 m 410 1014 q 425 985 410 996 q 474 975 440 975 q 524 984 511 975 q 538 1014 538 994 q 523 1045 538 1035 q 474 1056 508 1056 q 410 1014 410 1056 z "},"Æ":{"ha":1389,"x_min":7,"x_max":1293,"o":"m 616 651 l 559 557 l 444 374 l 619 374 l 619 651 l 616 651 m 619 217 l 354 217 l 214 0 l 7 0 l 613 920 l 1286 920 l 1286 749 l 814 749 l 814 549 l 1251 549 l 1251 378 l 814 378 l 814 171 l 1293 171 l 1293 0 l 619 0 l 619 217 z "},"Ç":{"ha":1003,"x_min":95,"x_max":941,"o":"m 941 70 q 859 31 901 47 q 777 4 817 14 q 698 -12 736 -7 q 628 -18 660 -18 l 601 -68 q 701 -96 665 -73 q 736 -170 736 -119 q 720 -224 736 -201 q 674 -262 703 -247 q 608 -286 646 -278 q 525 -294 570 -294 q 477 -293 501 -294 q 429 -286 454 -292 l 442 -224 q 508 -224 483 -227 q 547 -215 533 -220 q 565 -200 560 -209 q 570 -182 570 -192 q 539 -148 570 -159 q 442 -133 509 -136 l 518 -14 q 447 -4 482 -11 q 376 14 411 3 q 310 43 342 26 q 250 85 277 61 q 186 153 215 115 q 138 238 158 191 q 106 340 117 284 q 95 461 95 395 q 130 652 95 565 q 235 808 165 739 q 311 866 269 842 q 399 906 352 890 q 497 929 446 922 q 602 937 548 937 q 768 919 688 937 q 927 863 848 901 l 871 697 q 742 749 806 732 q 609 767 677 767 q 490 751 547 767 q 388 693 432 736 q 325 595 349 654 q 301 461 301 535 q 326 321 301 384 q 395 220 351 258 q 447 185 421 199 q 502 165 473 172 q 563 155 530 158 q 632 153 595 153 q 698 158 665 153 q 764 174 731 164 q 828 198 797 184 q 886 229 859 212 l 941 70 z "},"È":{"ha":926,"x_min":142,"x_max":822,"o":"m 142 920 l 816 920 l 816 749 l 337 749 l 337 549 l 779 549 l 779 378 l 337 378 l 337 171 l 822 171 l 822 0 l 142 0 l 142 920 m 569 1008 l 419 1008 l 193 1122 l 193 1163 l 420 1163 l 569 1008 z "},"É":{"ha":926,"x_min":142,"x_max":822,"o":"m 142 920 l 816 920 l 816 749 l 337 749 l 337 549 l 779 549 l 779 378 l 337 378 l 337 171 l 822 171 l 822 0 l 142 0 l 142 920 m 519 1163 l 745 1163 l 745 1122 l 516 1008 l 369 1008 l 519 1163 z "},"Ê":{"ha":926,"x_min":142,"x_max":822,"o":"m 142 920 l 816 920 l 816 749 l 337 749 l 337 549 l 779 549 l 779 378 l 337 378 l 337 171 l 822 171 l 822 0 l 142 0 l 142 920 m 418 1183 l 556 1183 l 738 1061 l 738 1008 l 595 1008 l 528 1060 l 485 1099 l 440 1061 l 368 1008 l 228 1008 l 228 1063 l 418 1183 z "},"Ë":{"ha":926,"x_min":142,"x_max":822,"o":"m 142 920 l 816 920 l 816 749 l 337 749 l 337 549 l 779 549 l 779 378 l 337 378 l 337 171 l 822 171 l 822 0 l 142 0 l 142 920 m 224 1075 q 250 1132 224 1111 q 334 1154 276 1154 q 414 1132 389 1154 q 440 1075 440 1111 q 414 1021 440 1041 q 334 1000 389 1000 q 250 1021 276 1000 q 224 1075 224 1041 m 530 1075 q 556 1132 530 1111 q 637 1154 582 1154 q 720 1132 694 1154 q 746 1075 746 1111 q 720 1021 746 1041 q 637 1000 694 1000 q 556 1021 582 1000 q 530 1075 530 1041 z "},"Ì":{"ha":541,"x_min":17,"x_max":476,"o":"m 174 814 l 64 814 l 64 920 l 476 920 l 476 814 l 368 814 l 368 105 l 476 105 l 476 0 l 64 0 l 64 105 l 174 105 l 174 814 m 393 1008 l 243 1008 l 17 1122 l 17 1163 l 244 1163 l 393 1008 z "},"Í":{"ha":541,"x_min":64,"x_max":535,"o":"m 174 814 l 64 814 l 64 920 l 476 920 l 476 814 l 368 814 l 368 105 l 476 105 l 476 0 l 64 0 l 64 105 l 174 105 l 174 814 m 309 1163 l 535 1163 l 535 1122 l 307 1008 l 159 1008 l 309 1163 z "},"Î":{"ha":541,"x_min":16,"x_max":526,"o":"m 174 814 l 64 814 l 64 920 l 476 920 l 476 814 l 368 814 l 368 105 l 476 105 l 476 0 l 64 0 l 64 105 l 174 105 l 174 814 m 206 1183 l 344 1183 l 526 1061 l 526 1008 l 383 1008 l 315 1060 l 273 1099 l 228 1061 l 155 1008 l 16 1008 l 16 1063 l 206 1183 z "},"Ï":{"ha":541,"x_min":10,"x_max":532,"o":"m 174 814 l 64 814 l 64 920 l 476 920 l 476 814 l 368 814 l 368 105 l 476 105 l 476 0 l 64 0 l 64 105 l 174 105 l 174 814 m 10 1075 q 36 1132 10 1111 q 119 1154 62 1154 q 200 1132 174 1154 q 226 1075 226 1111 q 200 1021 226 1041 q 119 1000 174 1000 q 36 1021 62 1000 q 10 1075 10 1041 m 316 1075 q 342 1132 316 1111 q 422 1154 368 1154 q 506 1132 480 1154 q 532 1075 532 1111 q 506 1021 532 1041 q 422 1000 480 1000 q 342 1021 368 1000 q 316 1075 316 1041 z "},"Ð":{"ha":1003,"x_min":25,"x_max":931,"o":"m 25 541 l 136 541 l 136 920 q 203 926 164 924 q 285 930 243 928 q 367 932 327 932 q 437 932 408 932 q 663 898 569 932 q 816 801 756 863 q 903 654 876 739 q 931 467 931 569 q 920 347 931 406 q 883 234 908 288 q 817 134 857 180 q 720 56 777 89 q 589 4 663 22 q 420 -15 514 -15 q 381 -14 405 -15 q 330 -12 357 -13 q 273 -9 302 -11 q 217 -7 243 -8 q 169 -4 191 -5 q 136 -1 147 -3 l 136 387 l 25 387 l 25 541 m 452 762 q 418 762 436 762 q 384 761 401 762 q 353 760 368 760 q 330 758 338 759 l 330 541 l 507 541 l 507 387 l 330 387 l 330 161 q 351 159 336 160 q 385 158 367 158 q 418 157 402 157 q 440 157 434 157 q 579 183 524 157 q 667 252 634 209 q 712 351 699 296 q 725 465 725 406 q 722 515 725 490 q 713 567 720 541 q 696 616 707 592 q 670 662 686 640 q 587 733 640 705 q 452 762 534 762 z "},"Ñ":{"ha":1003,"x_min":122,"x_max":881,"o":"m 376 488 l 301 607 l 296 607 l 307 480 l 307 0 l 122 0 l 122 926 l 262 926 l 631 428 l 704 299 l 710 299 l 697 435 l 697 920 l 881 920 l 881 -6 l 741 -6 l 376 488 m 222 1092 q 307 1155 266 1138 q 389 1173 349 1173 q 452 1165 420 1173 q 513 1148 484 1158 q 571 1132 543 1139 q 626 1125 600 1125 q 669 1132 648 1125 q 710 1156 690 1138 l 743 1061 q 668 1014 704 1027 q 596 1001 631 1001 q 533 1008 564 1001 q 473 1025 503 1016 q 415 1041 444 1034 q 359 1048 387 1048 q 306 1039 332 1048 q 253 1002 279 1029 l 222 1092 z "},"Ò":{"ha":1080,"x_min":78,"x_max":1002,"o":"m 78 458 q 111 662 78 572 q 205 812 144 751 q 351 905 266 873 q 539 937 435 937 q 735 903 649 937 q 880 805 821 868 q 971 654 940 742 q 1002 460 1002 566 q 971 264 1002 353 q 880 113 940 176 q 735 16 821 50 q 539 -19 649 -19 q 351 13 435 -19 q 205 106 266 45 q 111 256 144 168 q 78 458 78 345 m 283 460 q 302 322 283 380 q 354 226 320 264 q 434 170 387 188 q 539 151 481 151 q 653 175 605 151 q 733 240 702 199 q 780 338 765 281 q 795 460 795 395 q 780 581 795 525 q 733 679 765 637 q 653 743 702 720 q 539 767 605 767 q 434 749 481 767 q 354 692 387 730 q 302 596 320 654 q 283 460 283 538 m 619 1008 l 469 1008 l 243 1122 l 243 1163 l 471 1163 l 619 1008 z "},"Ó":{"ha":1080,"x_min":78,"x_max":1002,"o":"m 78 458 q 111 662 78 572 q 205 812 144 751 q 351 905 266 873 q 539 937 435 937 q 735 903 649 937 q 880 805 821 868 q 971 654 940 742 q 1002 460 1002 566 q 971 264 1002 353 q 880 113 940 176 q 735 16 821 50 q 539 -19 649 -19 q 351 13 435 -19 q 205 106 266 45 q 111 256 144 168 q 78 458 78 345 m 283 460 q 302 322 283 380 q 354 226 320 264 q 434 170 387 188 q 539 151 481 151 q 653 175 605 151 q 733 240 702 199 q 780 338 765 281 q 795 460 795 395 q 780 581 795 525 q 733 679 765 637 q 653 743 702 720 q 539 767 605 767 q 434 749 481 767 q 354 692 387 730 q 302 596 320 654 q 283 460 283 538 m 587 1163 l 813 1163 l 813 1122 l 585 1008 l 437 1008 l 587 1163 z "},"Ô":{"ha":1080,"x_min":78,"x_max":1002,"o":"m 78 458 q 111 662 78 572 q 205 812 144 751 q 351 905 266 873 q 539 937 435 937 q 735 903 649 937 q 880 805 821 868 q 971 654 940 742 q 1002 460 1002 566 q 971 264 1002 353 q 880 113 940 176 q 735 16 821 50 q 539 -19 649 -19 q 351 13 435 -19 q 205 106 266 45 q 111 256 144 168 q 78 458 78 345 m 283 460 q 302 322 283 380 q 354 226 320 264 q 434 170 387 188 q 539 151 481 151 q 653 175 605 151 q 733 240 702 199 q 780 338 765 281 q 795 460 795 395 q 780 581 795 525 q 733 679 765 637 q 653 743 702 720 q 539 767 605 767 q 434 749 481 767 q 354 692 387 730 q 302 596 320 654 q 283 460 283 538 m 475 1183 l 613 1183 l 795 1061 l 795 1008 l 652 1008 l 585 1060 l 542 1099 l 497 1061 l 425 1008 l 285 1008 l 285 1063 l 475 1183 z "},"Õ":{"ha":1080,"x_min":78,"x_max":1002,"o":"m 78 458 q 111 662 78 572 q 205 812 144 751 q 351 905 266 873 q 539 937 435 937 q 735 903 649 937 q 880 805 821 868 q 971 654 940 742 q 1002 460 1002 566 q 971 264 1002 353 q 880 113 940 176 q 735 16 821 50 q 539 -19 649 -19 q 351 13 435 -19 q 205 106 266 45 q 111 256 144 168 q 78 458 78 345 m 283 460 q 302 322 283 380 q 354 226 320 264 q 434 170 387 188 q 539 151 481 151 q 653 175 605 151 q 733 240 702 199 q 780 338 765 281 q 795 460 795 395 q 780 581 795 525 q 733 679 765 637 q 653 743 702 720 q 539 767 605 767 q 434 749 481 767 q 354 692 387 730 q 302 596 320 654 q 283 460 283 538 m 280 1092 q 365 1155 323 1138 q 447 1173 406 1173 q 510 1165 478 1173 q 571 1148 541 1158 q 629 1132 601 1139 q 684 1125 657 1125 q 727 1132 705 1125 q 768 1156 748 1138 l 800 1061 q 725 1014 762 1027 q 654 1001 689 1001 q 591 1008 621 1001 q 531 1025 560 1016 q 473 1041 501 1034 q 417 1048 444 1048 q 363 1039 389 1048 q 311 1002 337 1029 l 280 1092 z "},"Ö":{"ha":1080,"x_min":78,"x_max":1002,"o":"m 78 458 q 111 662 78 572 q 205 812 144 751 q 351 905 266 873 q 539 937 435 937 q 735 903 649 937 q 880 805 821 868 q 971 654 940 742 q 1002 460 1002 566 q 971 264 1002 353 q 880 113 940 176 q 735 16 821 50 q 539 -19 649 -19 q 351 13 435 -19 q 205 106 266 45 q 111 256 144 168 q 78 458 78 345 m 283 460 q 302 322 283 380 q 354 226 320 264 q 434 170 387 188 q 539 151 481 151 q 653 175 605 151 q 733 240 702 199 q 780 338 765 281 q 795 460 795 395 q 780 581 795 525 q 733 679 765 637 q 653 743 702 720 q 539 767 605 767 q 434 749 481 767 q 354 692 387 730 q 302 596 320 654 q 283 460 283 538 m 279 1075 q 305 1132 279 1111 q 389 1154 331 1154 q 469 1132 444 1154 q 495 1075 495 1111 q 469 1021 495 1041 q 389 1000 444 1000 q 305 1021 331 1000 q 279 1075 279 1041 m 585 1075 q 611 1132 585 1111 q 692 1154 637 1154 q 775 1132 749 1154 q 801 1075 801 1111 q 775 1021 801 1041 q 692 1000 749 1000 q 611 1021 637 1000 q 585 1075 585 1041 z "},"×":{"ha":791,"x_min":102,"x_max":689,"o":"m 212 728 l 397 551 l 581 728 l 689 610 l 511 445 l 689 276 l 581 160 l 397 336 l 210 159 l 102 275 l 283 445 l 104 610 l 212 728 z "},"Ø":{"ha":1080,"x_min":78,"x_max":1002,"o":"m 78 458 q 111 662 78 572 q 205 812 144 751 q 351 905 266 873 q 539 937 435 937 q 655 926 601 937 q 755 894 709 915 l 804 966 l 929 886 l 876 809 q 970 657 938 745 q 1002 460 1002 569 q 971 264 1002 353 q 880 113 940 176 q 735 16 821 50 q 539 -19 649 -19 q 332 20 424 -19 l 283 -52 l 161 26 l 211 100 q 113 252 147 162 q 78 458 78 341 m 283 460 q 325 267 283 340 l 652 743 q 600 761 628 755 q 539 767 572 767 q 434 749 481 767 q 354 692 387 730 q 302 596 320 654 q 283 460 283 538 m 435 169 q 484 155 458 159 q 539 151 510 151 q 653 175 605 151 q 733 240 702 199 q 780 338 765 281 q 795 460 795 395 q 786 555 795 510 q 758 637 777 600 l 435 169 z "},"Ù":{"ha":1003,"x_min":125,"x_max":878,"o":"m 694 920 l 878 920 l 878 330 q 851 175 878 240 q 774 67 823 110 q 659 4 726 24 q 515 -16 593 -16 q 350 4 422 -16 q 227 65 277 24 q 151 166 177 105 q 125 307 125 227 l 125 920 l 319 920 l 319 343 q 365 202 319 248 q 513 155 411 155 q 589 166 555 155 q 646 199 623 176 q 682 257 669 222 q 694 343 694 293 l 694 920 m 590 1008 l 440 1008 l 214 1122 l 214 1163 l 441 1163 l 590 1008 z "},"Ú":{"ha":1003,"x_min":125,"x_max":878,"o":"m 694 920 l 878 920 l 878 330 q 851 175 878 240 q 774 67 823 110 q 659 4 726 24 q 515 -16 593 -16 q 350 4 422 -16 q 227 65 277 24 q 151 166 177 105 q 125 307 125 227 l 125 920 l 319 920 l 319 343 q 365 202 319 248 q 513 155 411 155 q 589 166 555 155 q 646 199 623 176 q 682 257 669 222 q 694 343 694 293 l 694 920 m 583 1163 l 808 1163 l 808 1122 l 580 1008 l 433 1008 l 583 1163 z "},"Û":{"ha":1003,"x_min":125,"x_max":878,"o":"m 694 920 l 878 920 l 878 330 q 851 175 878 240 q 774 67 823 110 q 659 4 726 24 q 515 -16 593 -16 q 350 4 422 -16 q 227 65 277 24 q 151 166 177 105 q 125 307 125 227 l 125 920 l 319 920 l 319 343 q 365 202 319 248 q 513 155 411 155 q 589 166 555 155 q 646 199 623 176 q 682 257 669 222 q 694 343 694 293 l 694 920 m 437 1183 l 574 1183 l 756 1061 l 756 1008 l 614 1008 l 546 1060 l 503 1099 l 458 1061 l 386 1008 l 246 1008 l 246 1063 l 437 1183 z "},"Ü":{"ha":1003,"x_min":125,"x_max":878,"o":"m 694 920 l 878 920 l 878 330 q 851 175 878 240 q 774 67 823 110 q 659 4 726 24 q 515 -16 593 -16 q 350 4 422 -16 q 227 65 277 24 q 151 166 177 105 q 125 307 125 227 l 125 920 l 319 920 l 319 343 q 365 202 319 248 q 513 155 411 155 q 589 166 555 155 q 646 199 623 176 q 682 257 669 222 q 694 343 694 293 l 694 920 m 241 1075 q 267 1132 241 1111 q 350 1154 292 1154 q 431 1132 405 1154 q 456 1075 456 1111 q 431 1021 456 1041 q 350 1000 405 1000 q 267 1021 292 1000 q 241 1075 241 1041 m 547 1075 q 572 1132 547 1111 q 653 1154 598 1154 q 736 1132 711 1154 q 762 1075 762 1111 q 736 1021 762 1041 q 653 1000 711 1000 q 572 1021 598 1000 q 547 1075 547 1041 z "},"Ý":{"ha":1003,"x_min":22,"x_max":981,"o":"m 404 338 l 22 920 l 262 920 l 468 587 l 510 509 l 515 509 l 557 589 l 762 920 l 981 920 l 599 340 l 599 0 l 404 0 l 404 338 m 551 1163 l 777 1163 l 777 1122 l 548 1008 l 401 1008 l 551 1163 z "},"Þ":{"ha":848,"x_min":125,"x_max":793,"o":"m 125 920 l 319 920 l 319 825 q 359 827 339 826 q 401 827 380 827 q 540 817 477 827 q 656 777 604 806 q 711 736 686 760 q 754 681 736 712 q 783 609 772 649 q 793 520 793 569 q 767 381 793 441 q 695 280 742 321 q 581 220 648 240 q 432 199 514 199 q 410 200 425 199 q 376 201 394 200 q 343 202 359 201 q 319 205 327 203 l 319 0 l 125 0 l 125 920 m 319 377 q 336 374 325 376 q 361 372 348 373 q 386 371 374 372 q 404 371 397 371 q 542 406 496 371 q 587 515 587 441 q 573 580 587 549 q 530 630 560 611 q 414 656 490 656 q 360 655 385 656 q 319 650 335 653 l 319 377 z "},"ß":{"ha":772,"x_min":7,"x_max":735,"o":"m 493 722 q 489 745 493 731 q 474 771 485 759 q 443 793 463 784 q 391 802 422 802 q 332 789 359 802 q 292 756 304 777 q 275 715 279 736 q 271 663 271 694 l 271 0 l 102 0 l 102 494 l 7 494 l 7 635 l 102 644 q 171 858 102 789 q 266 915 209 896 q 385 934 323 934 q 509 916 456 934 q 596 869 562 898 q 647 806 630 841 q 663 735 663 770 q 652 667 663 695 q 624 617 641 640 q 601 590 616 606 q 571 556 585 574 q 545 521 556 538 q 534 491 534 504 q 541 469 534 479 q 557 451 547 460 q 583 433 568 442 q 614 412 597 424 q 662 373 640 393 q 701 329 684 353 q 726 275 717 304 q 735 207 735 245 q 723 128 735 168 q 684 56 711 88 q 612 2 656 23 q 503 -18 568 -18 q 446 -14 472 -18 q 399 -3 420 -10 q 362 11 378 3 q 335 27 347 19 l 385 147 q 397 139 388 144 q 419 128 406 134 q 449 119 432 123 q 484 115 465 115 q 518 122 503 115 q 544 141 533 129 q 561 168 555 153 q 566 198 566 182 q 558 243 566 223 q 535 280 549 263 q 501 310 520 296 q 462 337 482 323 q 428 360 445 348 q 397 387 410 372 q 374 420 383 401 q 366 465 366 439 q 371 512 366 491 q 385 549 376 533 q 402 574 392 562 q 423 600 412 587 q 445 624 434 612 q 465 646 456 635 q 488 688 483 668 q 493 722 493 709 z "},"à":{"ha":694,"x_min":58,"x_max":630,"o":"m 100 594 q 172 621 138 611 q 239 637 206 631 q 304 645 271 643 q 374 646 338 646 q 487 630 441 646 q 561 585 533 614 q 602 514 589 555 q 614 422 614 473 q 609 300 614 360 q 604 172 604 239 q 610 82 604 125 q 630 -1 616 39 l 492 -1 l 465 93 l 450 93 q 408 43 431 63 q 359 12 385 23 q 306 -5 334 0 q 251 -9 279 -9 q 172 3 208 -9 q 111 41 136 16 q 72 101 85 66 q 58 183 58 137 q 81 288 58 245 q 150 357 105 331 q 228 385 184 376 q 322 393 273 393 q 344 393 330 393 q 374 390 358 392 q 409 386 391 389 q 444 378 427 382 q 447 402 446 391 q 448 422 448 412 q 441 460 448 445 q 423 486 435 475 q 388 504 412 497 q 332 511 364 511 q 278 507 303 511 q 230 497 253 503 q 186 483 208 491 q 144 466 165 475 l 100 594 m 314 125 q 358 132 337 125 q 396 151 378 139 q 426 177 413 162 q 446 208 438 192 l 446 279 q 424 284 436 281 q 399 289 412 287 q 373 292 386 291 q 348 294 359 294 q 293 285 315 294 q 257 263 271 277 q 237 233 243 250 q 231 200 231 216 q 252 143 231 161 q 314 125 273 125 m 404 749 l 307 749 l 122 918 l 122 958 l 315 958 l 404 749 z "},"á":{"ha":694,"x_min":58,"x_max":630,"o":"m 100 594 q 172 621 138 611 q 239 637 206 631 q 304 645 271 643 q 374 646 338 646 q 487 630 441 646 q 561 585 533 614 q 602 514 589 555 q 614 422 614 473 q 609 300 614 360 q 604 172 604 239 q 610 82 604 125 q 630 -1 616 39 l 492 -1 l 465 93 l 450 93 q 408 43 431 63 q 359 12 385 23 q 306 -5 334 0 q 251 -9 279 -9 q 172 3 208 -9 q 111 41 136 16 q 72 101 85 66 q 58 183 58 137 q 81 288 58 245 q 150 357 105 331 q 228 385 184 376 q 322 393 273 393 q 344 393 330 393 q 374 390 358 392 q 409 386 391 389 q 444 378 427 382 q 447 402 446 391 q 448 422 448 412 q 441 460 448 445 q 423 486 435 475 q 388 504 412 497 q 332 511 364 511 q 278 507 303 511 q 230 497 253 503 q 186 483 208 491 q 144 466 165 475 l 100 594 m 314 125 q 358 132 337 125 q 396 151 378 139 q 426 177 413 162 q 446 208 438 192 l 446 279 q 424 284 436 281 q 399 289 412 287 q 373 292 386 291 q 348 294 359 294 q 293 285 315 294 q 257 263 271 277 q 237 233 243 250 q 231 200 231 216 q 252 143 231 161 q 314 125 273 125 m 341 958 l 527 958 l 527 920 l 361 749 l 262 749 l 341 958 z "},"â":{"ha":694,"x_min":58,"x_max":630,"o":"m 100 594 q 172 621 138 611 q 239 637 206 631 q 304 645 271 643 q 374 646 338 646 q 487 630 441 646 q 561 585 533 614 q 602 514 589 555 q 614 422 614 473 q 609 300 614 360 q 604 172 604 239 q 610 82 604 125 q 630 -1 616 39 l 492 -1 l 465 93 l 450 93 q 408 43 431 63 q 359 12 385 23 q 306 -5 334 0 q 251 -9 279 -9 q 172 3 208 -9 q 111 41 136 16 q 72 101 85 66 q 58 183 58 137 q 81 288 58 245 q 150 357 105 331 q 228 385 184 376 q 322 393 273 393 q 344 393 330 393 q 374 390 358 392 q 409 386 391 389 q 444 378 427 382 q 447 402 446 391 q 448 422 448 412 q 441 460 448 445 q 423 486 435 475 q 388 504 412 497 q 332 511 364 511 q 278 507 303 511 q 230 497 253 503 q 186 483 208 491 q 144 466 165 475 l 100 594 m 314 125 q 358 132 337 125 q 396 151 378 139 q 426 177 413 162 q 446 208 438 192 l 446 279 q 424 284 436 281 q 399 289 412 287 q 373 292 386 291 q 348 294 359 294 q 293 285 315 294 q 257 263 271 277 q 237 233 243 250 q 231 200 231 216 q 252 143 231 161 q 314 125 273 125 m 281 987 l 401 987 l 566 741 l 422 741 l 366 831 l 336 887 l 302 832 l 234 741 l 100 741 l 281 987 z "},"ã":{"ha":694,"x_min":58,"x_max":630,"o":"m 100 594 q 172 621 138 611 q 239 637 206 631 q 304 645 271 643 q 374 646 338 646 q 487 630 441 646 q 561 585 533 614 q 602 514 589 555 q 614 422 614 473 q 609 300 614 360 q 604 172 604 239 q 610 82 604 125 q 630 -1 616 39 l 492 -1 l 465 93 l 450 93 q 408 43 431 63 q 359 12 385 23 q 306 -5 334 0 q 251 -9 279 -9 q 172 3 208 -9 q 111 41 136 16 q 72 101 85 66 q 58 183 58 137 q 81 288 58 245 q 150 357 105 331 q 228 385 184 376 q 322 393 273 393 q 344 393 330 393 q 374 390 358 392 q 409 386 391 389 q 444 378 427 382 q 447 402 446 391 q 448 422 448 412 q 441 460 448 445 q 423 486 435 475 q 388 504 412 497 q 332 511 364 511 q 278 507 303 511 q 230 497 253 503 q 186 483 208 491 q 144 466 165 475 l 100 594 m 314 125 q 358 132 337 125 q 396 151 378 139 q 426 177 413 162 q 446 208 438 192 l 446 279 q 424 284 436 281 q 399 289 412 287 q 373 292 386 291 q 348 294 359 294 q 293 285 315 294 q 257 263 271 277 q 237 233 243 250 q 231 200 231 216 q 252 143 231 161 q 314 125 273 125 m 104 889 q 185 959 147 939 q 256 979 222 979 q 312 969 285 979 q 365 948 339 960 q 418 927 391 937 q 475 918 446 918 q 565 952 519 918 l 587 854 q 512 792 547 810 q 444 774 477 774 q 387 785 414 774 q 333 806 360 795 q 277 827 305 817 q 216 837 248 837 q 172 829 195 837 q 123 801 150 822 l 104 889 z "},"ä":{"ha":694,"x_min":58,"x_max":630,"o":"m 100 594 q 172 621 138 611 q 239 637 206 631 q 304 645 271 643 q 374 646 338 646 q 487 630 441 646 q 561 585 533 614 q 602 514 589 555 q 614 422 614 473 q 609 300 614 360 q 604 172 604 239 q 610 82 604 125 q 630 -1 616 39 l 492 -1 l 465 93 l 450 93 q 408 43 431 63 q 359 12 385 23 q 306 -5 334 0 q 251 -9 279 -9 q 172 3 208 -9 q 111 41 136 16 q 72 101 85 66 q 58 183 58 137 q 81 288 58 245 q 150 357 105 331 q 228 385 184 376 q 322 393 273 393 q 344 393 330 393 q 374 390 358 392 q 409 386 391 389 q 444 378 427 382 q 447 402 446 391 q 448 422 448 412 q 441 460 448 445 q 423 486 435 475 q 388 504 412 497 q 332 511 364 511 q 278 507 303 511 q 230 497 253 503 q 186 483 208 491 q 144 466 165 475 l 100 594 m 314 125 q 358 132 337 125 q 396 151 378 139 q 426 177 413 162 q 446 208 438 192 l 446 279 q 424 284 436 281 q 399 289 412 287 q 373 292 386 291 q 348 294 359 294 q 293 285 315 294 q 257 263 271 277 q 237 233 243 250 q 231 200 231 216 q 252 143 231 161 q 314 125 273 125 m 90 863 q 118 936 90 909 q 191 964 146 964 q 263 936 236 964 q 290 863 290 909 q 263 796 290 823 q 191 768 236 768 q 118 796 146 768 q 90 863 90 823 m 382 863 q 409 936 382 909 q 480 964 435 964 q 553 936 526 964 q 581 863 581 909 q 553 796 581 823 q 480 768 526 768 q 409 796 435 768 q 382 863 382 823 z "},"å":{"ha":694,"x_min":58,"x_max":630,"o":"m 100 594 q 172 621 138 611 q 239 637 206 631 q 304 645 271 643 q 374 646 338 646 q 487 630 441 646 q 561 585 533 614 q 602 514 589 555 q 614 422 614 473 q 609 300 614 360 q 604 172 604 239 q 610 82 604 125 q 630 -1 616 39 l 492 -1 l 465 93 l 450 93 q 408 43 431 63 q 359 12 385 23 q 306 -5 334 0 q 251 -9 279 -9 q 172 3 208 -9 q 111 41 136 16 q 72 101 85 66 q 58 183 58 137 q 81 288 58 245 q 150 357 105 331 q 228 385 184 376 q 322 393 273 393 q 344 393 330 393 q 374 390 358 392 q 409 386 391 389 q 444 378 427 382 q 447 402 446 391 q 448 422 448 412 q 441 460 448 445 q 423 486 435 475 q 388 504 412 497 q 332 511 364 511 q 278 507 303 511 q 230 497 253 503 q 186 483 208 491 q 144 466 165 475 l 100 594 m 314 125 q 358 132 337 125 q 396 151 378 139 q 426 177 413 162 q 446 208 438 192 l 446 279 q 424 284 436 281 q 399 289 412 287 q 373 292 386 291 q 348 294 359 294 q 293 285 315 294 q 257 263 271 277 q 237 233 243 250 q 231 200 231 216 q 252 143 231 161 q 314 125 273 125 m 176 873 q 216 966 176 928 q 334 1004 256 1004 q 452 970 410 1004 q 495 873 495 937 q 484 825 495 848 q 452 785 473 802 q 401 756 432 767 q 334 746 371 746 q 217 782 258 746 q 176 873 176 817 m 271 873 q 290 839 271 851 q 334 827 309 827 q 383 839 363 827 q 402 873 402 850 q 381 911 402 899 q 334 924 361 924 q 290 912 309 924 q 271 873 271 900 z "},"æ":{"ha":1003,"x_min":58,"x_max":962,"o":"m 942 41 q 850 -2 906 14 q 725 -18 795 -18 q 655 -12 690 -18 q 588 7 620 -6 q 528 44 555 21 q 479 100 500 66 l 467 100 q 417 47 444 68 q 363 14 391 26 q 307 -4 336 1 q 251 -9 279 -9 q 172 4 208 -9 q 111 44 136 18 q 72 104 85 69 q 58 183 58 140 q 83 289 58 245 q 153 359 109 333 q 228 386 187 378 q 319 393 269 393 q 364 390 336 393 q 427 378 392 387 q 429 402 428 391 q 430 422 430 412 q 402 489 430 467 q 328 511 374 511 q 275 507 300 511 q 229 497 251 503 q 186 483 207 491 q 144 466 165 475 l 100 594 q 167 620 136 610 q 228 636 198 630 q 290 644 258 642 q 357 646 321 646 q 462 629 420 646 q 533 581 503 612 q 619 634 574 615 q 719 652 664 652 q 824 634 779 652 q 900 583 869 616 q 947 502 931 550 q 962 394 962 454 q 959 331 962 364 q 951 273 956 298 l 596 273 q 603 209 596 239 q 628 157 610 179 q 675 124 646 134 q 742 115 705 115 q 824 129 787 115 q 885 161 860 143 l 942 41 m 307 125 q 350 133 330 125 q 384 151 369 140 q 411 177 399 163 q 428 208 422 192 l 428 279 q 389 289 410 284 q 345 294 368 294 q 290 286 312 294 q 255 264 269 277 q 237 235 242 251 q 231 203 231 219 q 249 147 231 169 q 307 125 266 125 m 709 519 q 655 507 677 519 q 621 475 634 495 q 603 429 608 455 q 596 376 597 403 l 804 376 q 806 413 806 396 q 780 490 805 461 q 709 519 755 519 z "},"ç":{"ha":616,"x_min":61,"x_max":583,"o":"m 583 43 q 500 3 548 19 q 400 -17 453 -12 l 374 -62 q 465 -88 432 -66 q 498 -156 498 -110 q 484 -206 498 -184 q 442 -241 469 -227 q 380 -263 416 -256 q 304 -271 345 -271 q 260 -270 282 -271 q 216 -263 239 -269 l 228 -207 q 288 -206 266 -209 q 323 -197 311 -203 q 341 -184 336 -192 q 345 -168 345 -176 q 317 -136 345 -146 q 228 -122 290 -125 l 296 -13 q 189 25 233 -3 q 116 96 144 53 q 74 195 87 139 q 61 317 61 251 q 85 457 61 396 q 148 564 109 519 q 247 630 187 608 q 381 652 307 652 q 498 638 449 652 q 583 606 547 624 l 542 471 q 476 493 509 484 q 401 503 442 503 q 333 493 363 503 q 281 461 303 483 q 247 402 259 438 q 235 317 235 366 q 243 243 235 277 q 272 185 252 210 q 321 146 291 160 q 394 132 351 132 q 480 144 441 132 q 545 170 518 157 l 583 43 z "},"è":{"ha":616,"x_min":41,"x_max":579,"o":"m 559 41 q 467 -2 523 14 q 342 -18 412 -18 q 219 -1 273 -18 q 128 53 166 16 q 62 165 83 97 q 41 313 41 234 q 65 460 41 395 q 126 567 89 524 q 218 631 164 610 q 336 652 272 652 q 441 634 395 652 q 517 583 486 616 q 564 502 548 550 q 579 394 579 454 q 576 331 579 364 q 568 273 573 298 l 213 273 q 220 209 213 239 q 245 157 227 179 q 292 124 262 134 q 359 115 322 115 q 440 129 404 115 q 502 161 477 143 l 559 41 m 326 519 q 272 507 294 519 q 238 475 251 495 q 219 429 225 455 q 213 376 214 403 l 421 376 q 423 413 423 396 q 397 490 422 461 q 326 519 372 519 m 387 749 l 289 749 l 104 918 l 104 958 l 298 958 l 387 749 z "},"é":{"ha":616,"x_min":41,"x_max":579,"o":"m 559 41 q 467 -2 523 14 q 342 -18 412 -18 q 219 -1 273 -18 q 128 53 166 16 q 62 165 83 97 q 41 313 41 234 q 65 460 41 395 q 126 567 89 524 q 218 631 164 610 q 336 652 272 652 q 441 634 395 652 q 517 583 486 616 q 564 502 548 550 q 579 394 579 454 q 576 331 579 364 q 568 273 573 298 l 213 273 q 220 209 213 239 q 245 157 227 179 q 292 124 262 134 q 359 115 322 115 q 440 129 404 115 q 502 161 477 143 l 559 41 m 326 519 q 272 507 294 519 q 238 475 251 495 q 219 429 225 455 q 213 376 214 403 l 421 376 q 423 413 423 396 q 397 490 422 461 q 326 519 372 519 m 334 958 l 519 958 l 519 920 l 354 749 l 254 749 l 334 958 z "},"ê":{"ha":616,"x_min":41,"x_max":579,"o":"m 559 41 q 467 -2 523 14 q 342 -18 412 -18 q 219 -1 273 -18 q 128 53 166 16 q 62 165 83 97 q 41 313 41 234 q 65 460 41 395 q 126 567 89 524 q 218 631 164 610 q 336 652 272 652 q 441 634 395 652 q 517 583 486 616 q 564 502 548 550 q 579 394 579 454 q 576 331 579 364 q 568 273 573 298 l 213 273 q 220 209 213 239 q 245 157 227 179 q 292 124 262 134 q 359 115 322 115 q 440 129 404 115 q 502 161 477 143 l 559 41 m 326 519 q 272 507 294 519 q 238 475 251 495 q 219 429 225 455 q 213 376 214 403 l 421 376 q 423 413 423 396 q 397 490 422 461 q 326 519 372 519 m 257 987 l 377 987 l 541 741 l 397 741 l 342 831 l 312 887 l 278 832 l 210 741 l 75 741 l 257 987 z "},"ë":{"ha":616,"x_min":41,"x_max":579,"o":"m 559 41 q 467 -2 523 14 q 342 -18 412 -18 q 219 -1 273 -18 q 128 53 166 16 q 62 165 83 97 q 41 313 41 234 q 65 460 41 395 q 126 567 89 524 q 218 631 164 610 q 336 652 272 652 q 441 634 395 652 q 517 583 486 616 q 564 502 548 550 q 579 394 579 454 q 576 331 579 364 q 568 273 573 298 l 213 273 q 220 209 213 239 q 245 157 227 179 q 292 124 262 134 q 359 115 322 115 q 440 129 404 115 q 502 161 477 143 l 559 41 m 326 519 q 272 507 294 519 q 238 475 251 495 q 219 429 225 455 q 213 376 214 403 l 421 376 q 423 413 423 396 q 397 490 422 461 q 326 519 372 519 m 77 863 q 105 936 77 909 q 178 964 134 964 q 250 936 223 964 q 277 863 277 909 q 250 796 277 823 q 178 768 223 768 q 105 796 134 768 q 77 863 77 823 m 369 863 q 396 936 369 909 q 467 964 422 964 q 541 936 513 964 q 568 863 568 909 q 541 796 568 823 q 467 768 513 768 q 396 796 422 768 q 369 863 369 823 z "},"ì":{"ha":386,"x_min":-26,"x_max":278,"o":"m 109 635 l 278 635 l 278 0 l 109 0 l 109 635 m 256 749 l 158 749 l -26 918 l -26 958 l 167 958 l 256 749 z "},"í":{"ha":386,"x_min":106,"x_max":372,"o":"m 109 635 l 278 635 l 278 0 l 109 0 l 109 635 m 186 958 l 372 958 l 372 920 l 206 749 l 106 749 l 186 958 z "},"î":{"ha":386,"x_min":-39,"x_max":427,"o":"m 109 635 l 278 635 l 278 0 l 109 0 l 109 635 m 142 987 l 262 987 l 427 741 l 283 741 l 227 831 l 197 887 l 163 832 l 95 741 l -39 741 l 142 987 z "},"ï":{"ha":386,"x_min":-52,"x_max":439,"o":"m 109 635 l 278 635 l 278 0 l 109 0 l 109 635 m -52 863 q -23 936 -52 909 q 50 964 5 964 q 121 936 94 964 q 149 863 149 909 q 121 796 149 823 q 50 768 94 768 q -23 796 5 768 q -52 863 -52 823 m 240 863 q 267 936 240 909 q 338 964 294 964 q 412 936 385 964 q 439 863 439 909 q 412 796 439 823 q 338 768 385 768 q 267 796 294 768 q 240 863 240 823 z "},"ð":{"ha":694,"x_min":50,"x_max":646,"o":"m 396 881 q 520 783 471 840 q 596 659 568 725 q 635 521 624 592 q 646 383 646 450 q 568 82 646 183 q 337 -18 490 -18 q 222 5 275 -18 q 131 71 170 28 q 72 171 93 113 q 50 298 50 229 q 66 412 50 359 q 115 507 82 466 q 202 576 151 551 q 321 602 254 602 q 368 597 345 602 q 409 586 390 593 q 443 569 429 578 q 467 551 458 560 q 454 622 465 585 q 423 690 442 658 q 378 748 404 723 q 322 787 353 774 l 261 707 l 193 757 l 241 819 q 187 829 213 825 q 134 836 161 833 l 199 934 q 262 925 235 931 q 315 912 290 920 l 357 967 l 421 916 l 396 881 m 478 419 q 454 436 467 427 q 426 451 441 444 q 392 462 410 458 q 353 467 374 467 q 287 454 314 467 q 244 418 260 441 q 220 366 228 396 q 213 300 213 335 q 220 236 213 267 q 243 179 227 204 q 284 139 259 155 q 346 123 310 123 q 411 139 384 123 q 454 183 437 155 q 479 253 471 212 q 487 343 487 293 q 485 381 487 359 q 478 419 482 404 z "},"ñ":{"ha":772,"x_min":102,"x_max":687,"o":"m 517 0 l 517 348 q 489 467 517 430 q 409 503 461 503 q 360 493 382 503 q 320 467 338 483 q 290 433 302 452 q 271 397 277 414 l 271 0 l 102 0 l 102 635 l 235 635 l 253 544 l 271 544 q 306 585 285 565 q 352 620 326 604 q 406 644 377 635 q 467 652 435 652 q 554 640 514 652 q 624 596 594 627 q 670 514 653 566 q 687 383 687 462 l 687 0 l 517 0 m 141 889 q 222 959 184 939 q 294 979 260 979 q 349 969 322 979 q 402 948 376 960 q 456 927 429 937 q 513 918 483 918 q 602 952 556 918 l 625 854 q 549 792 585 810 q 481 774 514 774 q 424 785 451 774 q 370 806 397 795 q 314 827 342 817 q 254 837 286 837 q 210 829 232 837 q 161 801 187 822 l 141 889 z "},"ò":{"ha":694,"x_min":41,"x_max":654,"o":"m 41 317 q 61 452 41 391 q 120 558 81 514 q 216 628 159 603 q 348 652 273 652 q 481 627 424 652 q 577 556 539 602 q 634 450 615 511 q 654 317 654 389 q 634 183 654 245 q 577 77 615 122 q 481 6 539 32 q 348 -19 424 -19 q 216 6 273 -19 q 120 75 159 31 q 61 181 81 119 q 41 317 41 243 m 215 317 q 224 229 215 266 q 251 169 234 192 q 293 134 269 145 q 348 123 317 123 q 409 137 384 123 q 450 178 434 152 q 473 239 466 203 q 481 317 481 275 q 473 394 481 359 q 450 456 466 430 q 409 496 434 481 q 348 511 384 511 q 293 499 317 511 q 251 465 269 488 q 224 405 234 441 q 215 317 215 368 m 412 749 l 314 749 l 130 918 l 130 958 l 323 958 l 412 749 z "},"ó":{"ha":694,"x_min":41,"x_max":654,"o":"m 41 317 q 61 452 41 391 q 120 558 81 514 q 216 628 159 603 q 348 652 273 652 q 481 627 424 652 q 577 556 539 602 q 634 450 615 511 q 654 317 654 389 q 634 183 654 245 q 577 77 615 122 q 481 6 539 32 q 348 -19 424 -19 q 216 6 273 -19 q 120 75 159 31 q 61 181 81 119 q 41 317 41 243 m 215 317 q 224 229 215 266 q 251 169 234 192 q 293 134 269 145 q 348 123 317 123 q 409 137 384 123 q 450 178 434 152 q 473 239 466 203 q 481 317 481 275 q 473 394 481 359 q 450 456 466 430 q 409 496 434 481 q 348 511 384 511 q 293 499 317 511 q 251 465 269 488 q 224 405 234 441 q 215 317 215 368 m 355 958 l 541 958 l 541 920 l 376 749 l 276 749 l 355 958 z "},"ô":{"ha":694,"x_min":41,"x_max":654,"o":"m 41 317 q 61 452 41 391 q 120 558 81 514 q 216 628 159 603 q 348 652 273 652 q 481 627 424 652 q 577 556 539 602 q 634 450 615 511 q 654 317 654 389 q 634 183 654 245 q 577 77 615 122 q 481 6 539 32 q 348 -19 424 -19 q 216 6 273 -19 q 120 75 159 31 q 61 181 81 119 q 41 317 41 243 m 215 317 q 224 229 215 266 q 251 169 234 192 q 293 134 269 145 q 348 123 317 123 q 409 137 384 123 q 450 178 434 152 q 473 239 466 203 q 481 317 481 275 q 473 394 481 359 q 450 456 466 430 q 409 496 434 481 q 348 511 384 511 q 293 499 317 511 q 251 465 269 488 q 224 405 234 441 q 215 317 215 368 m 296 987 l 416 987 l 581 741 l 437 741 l 381 831 l 351 887 l 317 832 l 249 741 l 115 741 l 296 987 z "},"õ":{"ha":694,"x_min":41,"x_max":654,"o":"m 41 317 q 61 452 41 391 q 120 558 81 514 q 216 628 159 603 q 348 652 273 652 q 481 627 424 652 q 577 556 539 602 q 634 450 615 511 q 654 317 654 389 q 634 183 654 245 q 577 77 615 122 q 481 6 539 32 q 348 -19 424 -19 q 216 6 273 -19 q 120 75 159 31 q 61 181 81 119 q 41 317 41 243 m 215 317 q 224 229 215 266 q 251 169 234 192 q 293 134 269 145 q 348 123 317 123 q 409 137 384 123 q 450 178 434 152 q 473 239 466 203 q 481 317 481 275 q 473 394 481 359 q 450 456 466 430 q 409 496 434 481 q 348 511 384 511 q 293 499 317 511 q 251 465 269 488 q 224 405 234 441 q 215 317 215 368 m 106 889 q 187 959 149 939 q 258 979 224 979 q 314 969 287 979 q 367 948 341 960 q 420 927 393 937 q 477 918 448 918 q 567 952 521 918 l 589 854 q 514 792 549 810 q 446 774 479 774 q 389 785 416 774 q 335 806 362 795 q 279 827 307 817 q 218 837 250 837 q 174 829 197 837 q 125 801 152 822 l 106 889 z "},"ö":{"ha":694,"x_min":41,"x_max":654,"o":"m 41 317 q 61 452 41 391 q 120 558 81 514 q 216 628 159 603 q 348 652 273 652 q 481 627 424 652 q 577 556 539 602 q 634 450 615 511 q 654 317 654 389 q 634 183 654 245 q 577 77 615 122 q 481 6 539 32 q 348 -19 424 -19 q 216 6 273 -19 q 120 75 159 31 q 61 181 81 119 q 41 317 41 243 m 215 317 q 224 229 215 266 q 251 169 234 192 q 293 134 269 145 q 348 123 317 123 q 409 137 384 123 q 450 178 434 152 q 473 239 466 203 q 481 317 481 275 q 473 394 481 359 q 450 456 466 430 q 409 496 434 481 q 348 511 384 511 q 293 499 317 511 q 251 465 269 488 q 224 405 234 441 q 215 317 215 368 m 102 863 q 131 936 102 909 q 203 964 159 964 q 275 936 248 964 q 302 863 302 909 q 275 796 302 823 q 203 768 248 768 q 131 796 159 768 q 102 863 102 823 m 394 863 q 421 936 394 909 q 492 964 448 964 q 566 936 538 964 q 593 863 593 909 q 566 796 593 823 q 492 768 538 768 q 421 796 448 768 q 394 863 394 823 z "},"÷":{"ha":762,"x_min":68,"x_max":694,"o":"m 68 522 l 694 522 l 694 363 l 68 363 l 68 522 m 267 707 q 298 783 267 755 q 380 810 330 810 q 465 783 433 810 q 496 707 496 755 q 465 632 496 661 q 380 603 433 603 q 298 632 330 603 q 267 707 267 661 m 267 179 q 298 255 267 227 q 380 282 330 282 q 465 255 433 282 q 496 179 496 227 q 465 104 496 133 q 380 75 433 75 q 298 104 330 75 q 267 179 267 133 z "},"ø":{"ha":694,"x_min":41,"x_max":654,"o":"m 41 317 q 61 452 41 391 q 120 558 81 514 q 216 628 159 603 q 348 652 273 652 q 428 644 391 652 q 496 620 465 635 l 536 671 l 638 591 l 592 536 q 638 437 623 493 q 654 317 654 381 q 634 183 654 245 q 577 77 615 122 q 481 6 539 32 q 348 -19 424 -19 q 261 -9 301 -19 q 188 20 221 1 l 147 -31 l 42 49 l 94 110 q 54 204 67 152 q 41 317 41 256 m 481 317 q 478 361 481 342 q 471 400 476 380 l 270 141 q 305 128 286 134 q 348 123 325 123 q 409 137 384 123 q 450 178 434 152 q 473 239 466 203 q 481 317 481 275 m 215 317 q 217 279 215 295 q 222 246 218 263 l 419 496 q 388 507 406 503 q 348 511 370 511 q 293 499 317 511 q 251 465 269 488 q 224 405 234 441 q 215 317 215 368 z "},"ù":{"ha":772,"x_min":92,"x_max":688,"o":"m 262 635 l 262 283 q 265 230 262 257 q 279 181 269 203 q 310 145 290 159 q 363 132 330 132 q 412 142 389 132 q 452 167 435 152 q 481 199 469 182 q 498 230 492 216 l 498 635 l 667 635 l 667 193 q 672 92 667 142 q 688 0 677 41 l 563 0 l 530 99 l 517 99 q 427 12 481 42 q 304 -18 372 -18 q 216 -5 255 -18 q 149 39 176 8 q 107 121 121 71 q 92 246 92 172 l 92 635 l 262 635 m 422 749 l 324 749 l 140 918 l 140 958 l 333 958 l 422 749 z "},"ú":{"ha":772,"x_min":92,"x_max":688,"o":"m 262 635 l 262 283 q 265 230 262 257 q 279 181 269 203 q 310 145 290 159 q 363 132 330 132 q 412 142 389 132 q 452 167 435 152 q 481 199 469 182 q 498 230 492 216 l 498 635 l 667 635 l 667 193 q 672 92 667 142 q 688 0 677 41 l 563 0 l 530 99 l 517 99 q 427 12 481 42 q 304 -18 372 -18 q 216 -5 255 -18 q 149 39 176 8 q 107 121 121 71 q 92 246 92 172 l 92 635 l 262 635 m 364 958 l 550 958 l 550 920 l 385 749 l 285 749 l 364 958 z "},"û":{"ha":772,"x_min":92,"x_max":688,"o":"m 262 635 l 262 283 q 265 230 262 257 q 279 181 269 203 q 310 145 290 159 q 363 132 330 132 q 412 142 389 132 q 452 167 435 152 q 481 199 469 182 q 498 230 492 216 l 498 635 l 667 635 l 667 193 q 672 92 667 142 q 688 0 677 41 l 563 0 l 530 99 l 517 99 q 427 12 481 42 q 304 -18 372 -18 q 216 -5 255 -18 q 149 39 176 8 q 107 121 121 71 q 92 246 92 172 l 92 635 l 262 635 m 308 987 l 428 987 l 592 741 l 448 741 l 393 831 l 363 887 l 329 832 l 260 741 l 126 741 l 308 987 z "},"ü":{"ha":772,"x_min":92,"x_max":688,"o":"m 262 635 l 262 283 q 265 230 262 257 q 279 181 269 203 q 310 145 290 159 q 363 132 330 132 q 412 142 389 132 q 452 167 435 152 q 481 199 469 182 q 498 230 492 216 l 498 635 l 667 635 l 667 193 q 672 92 667 142 q 688 0 677 41 l 563 0 l 530 99 l 517 99 q 427 12 481 42 q 304 -18 372 -18 q 216 -5 255 -18 q 149 39 176 8 q 107 121 121 71 q 92 246 92 172 l 92 635 l 262 635 m 134 863 q 162 936 134 909 q 235 964 190 964 q 307 936 279 964 q 334 863 334 909 q 307 796 334 823 q 235 768 279 768 q 162 796 190 768 q 134 863 134 823 m 425 863 q 452 936 425 909 q 524 964 479 964 q 597 936 570 964 q 624 863 624 909 q 597 796 624 823 q 524 768 570 768 q 452 796 479 768 q 425 863 425 823 z "},"ý":{"ha":694,"x_min":17,"x_max":681,"o":"m 349 306 l 377 218 l 380 218 l 401 306 l 507 635 l 681 635 l 475 60 q 450 -7 463 26 q 423 -71 437 -41 q 396 -126 410 -101 q 370 -171 382 -152 q 290 -242 334 -222 q 194 -263 245 -263 q 124 -252 163 -263 q 53 -217 85 -241 l 93 -95 q 118 -106 105 -102 q 141 -113 130 -111 q 162 -116 153 -115 q 176 -117 171 -117 q 217 -110 195 -117 q 257 -85 240 -103 q 283 -44 271 -71 q 303 8 296 -18 l 17 635 l 221 635 l 349 306 m 366 958 l 552 958 l 552 920 l 387 749 l 287 749 l 366 958 z "},"þ":{"ha":772,"x_min":102,"x_max":710,"o":"m 102 934 l 271 934 l 271 576 l 286 576 q 367 634 323 616 q 461 652 410 652 q 572 634 525 652 q 649 577 618 616 q 695 478 680 538 q 710 333 710 417 q 633 72 710 161 q 404 -18 555 -18 q 365 -17 382 -18 q 332 -11 348 -15 q 302 -2 317 -7 q 271 11 287 3 l 271 -249 l 102 -249 l 102 934 m 408 511 q 271 404 305 511 l 271 160 q 317 133 292 143 q 381 122 342 122 q 451 130 422 122 q 499 161 480 138 q 527 226 518 184 q 536 334 536 267 q 530 407 536 374 q 509 463 524 439 q 469 498 494 486 q 408 511 445 511 z "},"ÿ":{"ha":694,"x_min":17,"x_max":681,"o":"m 349 306 l 377 218 l 380 218 l 401 306 l 507 635 l 681 635 l 475 60 q 450 -7 463 26 q 423 -71 437 -41 q 396 -126 410 -101 q 370 -171 382 -152 q 290 -242 334 -222 q 194 -263 245 -263 q 124 -252 163 -263 q 53 -217 85 -241 l 93 -95 q 118 -106 105 -102 q 141 -113 130 -111 q 162 -116 153 -115 q 176 -117 171 -117 q 217 -110 195 -117 q 257 -85 240 -103 q 283 -44 271 -71 q 303 8 296 -18 l 17 635 l 221 635 l 349 306 m 94 863 q 122 936 94 909 q 195 964 151 964 q 267 936 240 964 q 294 863 294 909 q 267 796 294 823 q 195 768 240 768 q 122 796 151 768 q 94 863 94 823 m 386 863 q 413 936 386 909 q 484 964 439 964 q 557 936 530 964 q 585 863 585 909 q 557 796 585 823 q 484 768 530 768 q 413 796 439 768 q 386 863 386 823 z "},"Ā":{"ha":1003,"x_min":27,"x_max":976,"o":"m 687 195 l 305 195 l 222 0 l 27 0 l 429 926 l 572 926 l 976 0 l 770 0 l 687 195 m 371 349 l 622 349 l 541 541 l 500 660 l 494 660 l 452 540 l 371 349 m 256 1136 l 747 1136 l 747 1015 l 256 1015 l 256 1136 z "},"ā":{"ha":694,"x_min":58,"x_max":630,"o":"m 100 594 q 172 621 138 611 q 239 637 206 631 q 304 645 271 643 q 374 646 338 646 q 487 630 441 646 q 561 585 533 614 q 602 514 589 555 q 614 422 614 473 q 609 300 614 360 q 604 172 604 239 q 610 82 604 125 q 630 -1 616 39 l 492 -1 l 465 93 l 450 93 q 408 43 431 63 q 359 12 385 23 q 306 -5 334 0 q 251 -9 279 -9 q 172 3 208 -9 q 111 41 136 16 q 72 101 85 66 q 58 183 58 137 q 81 288 58 245 q 150 357 105 331 q 228 385 184 376 q 322 393 273 393 q 344 393 330 393 q 374 390 358 392 q 409 386 391 389 q 444 378 427 382 q 447 402 446 391 q 448 422 448 412 q 441 460 448 445 q 423 486 435 475 q 388 504 412 497 q 332 511 364 511 q 278 507 303 511 q 230 497 253 503 q 186 483 208 491 q 144 466 165 475 l 100 594 m 314 125 q 358 132 337 125 q 396 151 378 139 q 426 177 413 162 q 446 208 438 192 l 446 279 q 424 284 436 281 q 399 289 412 287 q 373 292 386 291 q 348 294 359 294 q 293 285 315 294 q 257 263 271 277 q 237 233 243 250 q 231 200 231 216 q 252 143 231 161 q 314 125 273 125 m 119 892 l 580 892 l 580 767 l 119 767 l 119 892 z "},"Ă":{"ha":1003,"x_min":27,"x_max":976,"o":"m 687 195 l 305 195 l 222 0 l 27 0 l 429 926 l 572 926 l 976 0 l 770 0 l 687 195 m 371 349 l 622 349 l 541 541 l 500 660 l 494 660 l 452 540 l 371 349 m 303 1191 q 387 1141 333 1157 q 508 1124 441 1124 q 626 1143 576 1124 q 703 1191 675 1161 l 773 1145 q 728 1081 756 1108 q 663 1036 699 1053 q 587 1009 627 1018 q 507 1000 547 1000 q 428 1007 469 1000 q 350 1030 387 1014 q 281 1074 312 1047 q 229 1139 250 1101 l 303 1191 z "},"ă":{"ha":694,"x_min":58,"x_max":630,"o":"m 100 594 q 172 621 138 611 q 239 637 206 631 q 304 645 271 643 q 374 646 338 646 q 487 630 441 646 q 561 585 533 614 q 602 514 589 555 q 614 422 614 473 q 609 300 614 360 q 604 172 604 239 q 610 82 604 125 q 630 -1 616 39 l 492 -1 l 465 93 l 450 93 q 408 43 431 63 q 359 12 385 23 q 306 -5 334 0 q 251 -9 279 -9 q 172 3 208 -9 q 111 41 136 16 q 72 101 85 66 q 58 183 58 137 q 81 288 58 245 q 150 357 105 331 q 228 385 184 376 q 322 393 273 393 q 344 393 330 393 q 374 390 358 392 q 409 386 391 389 q 444 378 427 382 q 447 402 446 391 q 448 422 448 412 q 441 460 448 445 q 423 486 435 475 q 388 504 412 497 q 332 511 364 511 q 278 507 303 511 q 230 497 253 503 q 186 483 208 491 q 144 466 165 475 l 100 594 m 314 125 q 358 132 337 125 q 396 151 378 139 q 426 177 413 162 q 446 208 438 192 l 446 279 q 424 284 436 281 q 399 289 412 287 q 373 292 386 291 q 348 294 359 294 q 293 285 315 294 q 257 263 271 277 q 237 233 243 250 q 231 200 231 216 q 252 143 231 161 q 314 125 273 125 m 206 956 q 272 899 237 920 q 359 878 308 878 q 442 898 408 878 q 500 956 475 918 l 585 922 q 557 859 575 890 q 511 802 539 827 q 445 762 483 777 q 357 746 406 746 q 213 789 270 746 q 122 913 155 831 l 206 956 z "},"Ą":{"ha":1003,"x_min":27,"x_max":1021,"o":"m 687 195 l 305 195 l 222 0 l 27 0 l 429 926 l 572 926 l 976 0 l 945 0 q 890 -37 910 -16 q 867 -98 865 -63 q 885 -142 867 -124 q 935 -159 903 -159 q 963 -157 949 -159 q 993 -144 976 -154 l 1021 -229 q 952 -261 998 -245 q 852 -277 906 -277 q 730 -241 772 -277 q 688 -149 688 -206 q 728 -58 688 -98 q 822 0 765 -22 l 770 0 l 687 195 m 371 349 l 622 349 l 541 541 l 500 660 l 494 660 l 452 540 l 371 349 z "},"ą":{"ha":694,"x_min":58,"x_max":708,"o":"m 100 594 q 172 621 138 611 q 239 637 206 631 q 304 645 271 643 q 374 646 338 646 q 487 630 441 646 q 561 585 533 614 q 602 514 589 555 q 614 422 614 473 q 609 300 614 360 q 604 172 604 239 q 610 82 604 125 q 630 -1 616 39 q 574 -40 596 -16 q 553 -98 552 -63 q 572 -142 553 -124 q 622 -159 590 -159 q 649 -157 636 -159 q 680 -144 663 -154 l 708 -218 q 639 -251 685 -235 q 539 -267 593 -267 q 416 -231 458 -267 q 374 -149 374 -196 q 415 -58 374 -98 q 505 -1 450 -23 l 492 -1 l 465 93 l 450 93 q 408 43 431 63 q 359 12 385 23 q 306 -5 334 0 q 251 -9 279 -9 q 172 3 208 -9 q 111 41 136 16 q 72 101 85 66 q 58 183 58 137 q 81 288 58 245 q 150 357 105 331 q 228 385 184 376 q 322 393 273 393 q 344 393 330 393 q 374 390 358 392 q 409 386 391 389 q 444 378 427 382 q 447 402 446 391 q 448 422 448 412 q 441 460 448 445 q 423 486 435 475 q 388 504 412 497 q 332 511 364 511 q 278 507 303 511 q 230 497 253 503 q 186 483 208 491 q 144 466 165 475 l 100 594 m 314 125 q 358 132 337 125 q 396 151 378 139 q 426 177 413 162 q 446 208 438 192 l 446 279 q 424 284 436 281 q 399 289 412 287 q 373 292 386 291 q 348 294 359 294 q 293 285 315 294 q 257 263 271 277 q 237 233 243 250 q 231 200 231 216 q 252 143 231 161 q 314 125 273 125 z "},"Ć":{"ha":1003,"x_min":95,"x_max":941,"o":"m 941 70 q 856 30 899 46 q 769 2 812 13 q 688 -14 727 -9 q 616 -18 649 -18 q 523 -15 572 -18 q 426 0 474 -11 q 333 32 378 12 q 250 85 288 52 q 186 153 215 115 q 138 238 158 191 q 106 340 117 284 q 95 461 95 395 q 130 652 95 565 q 235 808 165 739 q 311 866 269 842 q 399 906 352 890 q 497 929 446 922 q 602 937 548 937 q 768 919 688 937 q 927 863 848 901 l 871 697 q 742 749 806 732 q 609 767 677 767 q 490 751 547 767 q 388 693 432 736 q 325 595 349 654 q 301 461 301 535 q 326 321 301 384 q 395 220 351 258 q 447 185 421 199 q 502 165 473 172 q 563 155 530 158 q 632 153 595 153 q 698 158 665 153 q 764 174 731 164 q 828 198 797 184 q 886 229 859 212 l 941 70 m 644 1163 l 870 1163 l 870 1122 l 642 1008 l 494 1008 l 644 1163 z "},"ć":{"ha":616,"x_min":61,"x_max":583,"o":"m 583 43 q 537 17 562 28 q 485 -2 513 6 q 426 -14 456 -9 q 365 -18 395 -18 q 226 6 283 -18 q 132 75 168 31 q 78 181 95 119 q 61 317 61 242 q 85 457 61 396 q 148 564 109 519 q 247 630 187 608 q 381 652 307 652 q 498 638 449 652 q 583 606 547 624 l 542 471 q 476 493 509 484 q 401 503 442 503 q 333 493 363 503 q 281 461 303 483 q 247 402 259 438 q 235 317 235 366 q 243 243 235 277 q 272 185 252 210 q 321 146 291 160 q 394 132 351 132 q 480 144 441 132 q 545 170 518 157 l 583 43 m 381 958 l 567 958 l 567 920 l 401 749 l 302 749 l 381 958 z "},"Ĉ":{"ha":1003,"x_min":95,"x_max":941,"o":"m 941 70 q 856 30 899 46 q 769 2 812 13 q 688 -14 727 -9 q 616 -18 649 -18 q 523 -15 572 -18 q 426 0 474 -11 q 333 32 378 12 q 250 85 288 52 q 186 153 215 115 q 138 238 158 191 q 106 340 117 284 q 95 461 95 395 q 130 652 95 565 q 235 808 165 739 q 311 866 269 842 q 399 906 352 890 q 497 929 446 922 q 602 937 548 937 q 768 919 688 937 q 927 863 848 901 l 871 697 q 742 749 806 732 q 609 767 677 767 q 490 751 547 767 q 388 693 432 736 q 325 595 349 654 q 301 461 301 535 q 326 321 301 384 q 395 220 351 258 q 447 185 421 199 q 502 165 473 172 q 563 155 530 158 q 632 153 595 153 q 698 158 665 153 q 764 174 731 164 q 828 198 797 184 q 886 229 859 212 l 941 70 m 505 1183 l 642 1183 l 824 1061 l 824 1008 l 682 1008 l 614 1060 l 571 1099 l 526 1061 l 454 1008 l 314 1008 l 314 1063 l 505 1183 z "},"ĉ":{"ha":616,"x_min":61,"x_max":583,"o":"m 583 43 q 537 17 562 28 q 485 -2 513 6 q 426 -14 456 -9 q 365 -18 395 -18 q 226 6 283 -18 q 132 75 168 31 q 78 181 95 119 q 61 317 61 242 q 85 457 61 396 q 148 564 109 519 q 247 630 187 608 q 381 652 307 652 q 498 638 449 652 q 583 606 547 624 l 542 471 q 476 493 509 484 q 401 503 442 503 q 333 493 363 503 q 281 461 303 483 q 247 402 259 438 q 235 317 235 366 q 243 243 235 277 q 272 185 252 210 q 321 146 291 160 q 394 132 351 132 q 480 144 441 132 q 545 170 518 157 l 583 43 m 277 987 l 397 987 l 562 741 l 418 741 l 362 831 l 332 887 l 298 832 l 230 741 l 96 741 l 277 987 z "},"Č":{"ha":1003,"x_min":95,"x_max":941,"o":"m 941 70 q 856 30 899 46 q 769 2 812 13 q 688 -14 727 -9 q 616 -18 649 -18 q 523 -15 572 -18 q 426 0 474 -11 q 333 32 378 12 q 250 85 288 52 q 186 153 215 115 q 138 238 158 191 q 106 340 117 284 q 95 461 95 395 q 130 652 95 565 q 235 808 165 739 q 311 866 269 842 q 399 906 352 890 q 497 929 446 922 q 602 937 548 937 q 768 919 688 937 q 927 863 848 901 l 871 697 q 742 749 806 732 q 609 767 677 767 q 490 751 547 767 q 388 693 432 736 q 325 595 349 654 q 301 461 301 535 q 326 321 301 384 q 395 220 351 258 q 447 185 421 199 q 502 165 473 172 q 563 155 530 158 q 632 153 595 153 q 698 158 665 153 q 764 174 731 164 q 828 198 797 184 q 886 229 859 212 l 941 70 m 336 1121 l 336 1176 l 476 1176 l 549 1122 l 593 1085 l 636 1124 l 704 1176 l 846 1176 l 846 1122 l 665 1001 l 527 1001 l 336 1121 z "},"č":{"ha":616,"x_min":61,"x_max":591,"o":"m 583 43 q 537 17 562 28 q 485 -2 513 6 q 426 -14 456 -9 q 365 -18 395 -18 q 226 6 283 -18 q 132 75 168 31 q 78 181 95 119 q 61 317 61 242 q 85 457 61 396 q 148 564 109 519 q 247 630 187 608 q 381 652 307 652 q 498 638 449 652 q 583 606 547 624 l 542 471 q 476 493 509 484 q 401 503 442 503 q 333 493 363 503 q 281 461 303 483 q 247 402 259 438 q 235 317 235 366 q 243 243 235 277 q 272 185 252 210 q 321 146 291 160 q 394 132 351 132 q 480 144 441 132 q 545 170 518 157 l 583 43 m 125 1015 l 260 1015 l 328 923 l 362 868 l 392 924 l 448 1015 l 591 1015 l 427 768 l 307 768 l 125 1015 z "},"Ď":{"ha":1003,"x_min":136,"x_max":931,"o":"m 136 920 q 203 926 164 924 q 285 930 243 928 q 367 932 327 932 q 437 932 408 932 q 663 898 569 932 q 816 801 756 863 q 903 654 876 739 q 931 467 931 569 q 920 347 931 406 q 883 234 908 288 q 817 134 857 180 q 720 56 777 89 q 589 4 663 22 q 420 -15 514 -15 q 381 -14 405 -15 q 330 -12 357 -13 q 273 -9 302 -11 q 217 -7 243 -8 q 169 -4 191 -5 q 136 -1 147 -3 l 136 920 m 452 762 q 418 762 436 762 q 384 761 401 762 q 353 760 368 760 q 330 758 338 759 l 330 161 q 351 159 336 160 q 385 158 367 158 q 418 157 402 157 q 440 157 434 157 q 579 183 524 157 q 667 252 634 209 q 712 351 699 296 q 725 465 725 406 q 722 515 725 490 q 713 567 720 541 q 696 616 707 592 q 670 662 686 640 q 587 733 640 705 q 452 762 534 762 m 189 1121 l 189 1176 l 329 1176 l 401 1122 l 446 1085 l 489 1124 l 557 1176 l 699 1176 l 699 1122 l 517 1001 l 380 1001 l 189 1121 z "},"ď":{"ha":1019,"x_min":61,"x_max":939,"o":"m 665 222 q 666 117 665 172 q 677 -1 667 62 l 559 -1 l 536 87 l 521 87 q 478 39 500 59 q 433 6 457 19 q 381 -13 410 -7 q 319 -18 353 -18 q 207 4 255 -18 q 126 68 159 26 q 77 171 94 111 q 61 306 61 231 q 80 449 61 385 q 136 558 98 513 q 229 627 173 603 q 361 651 286 651 q 435 644 404 651 q 496 628 466 637 l 496 934 l 665 934 l 665 222 m 361 123 q 450 150 418 123 q 496 223 481 176 l 496 477 q 473 492 485 486 q 449 502 462 498 q 420 508 436 506 q 385 510 405 510 q 310 494 339 510 q 264 450 281 477 q 241 385 248 422 q 235 307 235 349 q 241 236 235 269 q 262 178 248 203 q 301 139 277 154 q 361 123 325 125 m 939 920 q 923 839 937 881 q 888 760 908 797 q 848 692 869 722 q 811 649 827 662 l 728 694 q 766 800 753 742 q 778 920 778 859 l 939 920 z "},"Đ":{"ha":1003,"x_min":25,"x_max":931,"o":"m 25 541 l 136 541 l 136 920 q 203 926 164 924 q 285 930 243 928 q 367 932 327 932 q 437 932 408 932 q 663 898 569 932 q 816 801 756 863 q 903 654 876 739 q 931 467 931 569 q 920 347 931 406 q 883 234 908 288 q 817 134 857 180 q 720 56 777 89 q 589 4 663 22 q 420 -15 514 -15 q 381 -14 405 -15 q 330 -12 357 -13 q 273 -9 302 -11 q 217 -7 243 -8 q 169 -4 191 -5 q 136 -1 147 -3 l 136 387 l 25 387 l 25 541 m 452 762 q 418 762 436 762 q 384 761 401 762 q 353 760 368 760 q 330 758 338 759 l 330 541 l 507 541 l 507 387 l 330 387 l 330 161 q 351 159 336 160 q 385 158 367 158 q 418 157 402 157 q 440 157 434 157 q 579 183 524 157 q 667 252 634 209 q 712 351 699 296 q 725 465 725 406 q 722 515 725 490 q 713 567 720 541 q 696 616 707 592 q 670 662 686 640 q 587 733 640 705 q 452 762 534 762 z "},"đ":{"ha":772,"x_min":61,"x_max":764,"o":"m 665 814 l 764 814 l 764 716 l 665 716 l 665 222 q 666 117 665 172 q 677 -1 667 62 l 559 -1 l 536 87 l 521 87 q 478 39 500 59 q 433 6 457 19 q 381 -13 410 -7 q 319 -18 353 -18 q 207 4 255 -18 q 126 68 159 26 q 77 171 94 111 q 61 306 61 231 q 80 449 61 385 q 136 558 98 513 q 229 627 173 603 q 361 651 286 651 q 435 644 404 651 q 496 628 466 637 l 496 716 l 292 716 l 292 814 l 496 814 l 496 934 l 665 934 l 665 814 m 361 123 q 450 150 418 123 q 496 223 481 176 l 496 477 q 473 492 485 486 q 449 502 462 498 q 420 508 436 506 q 385 510 405 510 q 310 494 339 510 q 264 450 281 477 q 241 385 248 422 q 235 307 235 349 q 241 236 235 269 q 262 178 248 203 q 301 139 277 154 q 361 123 325 125 z "},"Ē":{"ha":926,"x_min":142,"x_max":822,"o":"m 142 920 l 816 920 l 816 749 l 337 749 l 337 549 l 779 549 l 779 378 l 337 378 l 337 171 l 822 171 l 822 0 l 142 0 l 142 920 m 222 1136 l 713 1136 l 713 1015 l 222 1015 l 222 1136 z "},"ē":{"ha":616,"x_min":41,"x_max":579,"o":"m 559 41 q 467 -2 523 14 q 342 -18 412 -18 q 219 -1 273 -18 q 128 53 166 16 q 62 165 83 97 q 41 313 41 234 q 65 460 41 395 q 126 567 89 524 q 218 631 164 610 q 336 652 272 652 q 441 634 395 652 q 517 583 486 616 q 564 502 548 550 q 579 394 579 454 q 576 331 579 364 q 568 273 573 298 l 213 273 q 220 209 213 239 q 245 157 227 179 q 292 124 262 134 q 359 115 322 115 q 440 129 404 115 q 502 161 477 143 l 559 41 m 326 519 q 272 507 294 519 q 238 475 251 495 q 219 429 225 455 q 213 376 214 403 l 421 376 q 423 413 423 396 q 397 490 422 461 q 326 519 372 519 m 91 892 l 552 892 l 552 767 l 91 767 l 91 892 z "},"Ė":{"ha":926,"x_min":142,"x_max":822,"o":"m 142 920 l 816 920 l 816 749 l 337 749 l 337 549 l 779 549 l 779 378 l 337 378 l 337 171 l 822 171 l 822 0 l 142 0 l 142 920 m 353 1084 q 384 1140 353 1117 q 476 1164 414 1164 q 570 1140 538 1164 q 602 1084 602 1117 q 570 1025 602 1048 q 476 1001 538 1001 q 384 1025 414 1001 q 353 1084 353 1048 z "},"ė":{"ha":616,"x_min":41,"x_max":579,"o":"m 559 41 q 467 -2 523 14 q 342 -18 412 -18 q 219 -1 273 -18 q 128 53 166 16 q 62 165 83 97 q 41 313 41 234 q 65 460 41 395 q 126 567 89 524 q 218 631 164 610 q 336 652 272 652 q 441 634 395 652 q 517 583 486 616 q 564 502 548 550 q 579 394 579 454 q 576 331 579 364 q 568 273 573 298 l 213 273 q 220 209 213 239 q 245 157 227 179 q 292 124 262 134 q 359 115 322 115 q 440 129 404 115 q 502 161 477 143 l 559 41 m 326 519 q 272 507 294 519 q 238 475 251 495 q 219 429 225 455 q 213 376 214 403 l 421 376 q 423 413 423 396 q 397 490 422 461 q 326 519 372 519 m 210 865 q 219 903 210 886 q 243 933 228 921 q 280 953 259 946 q 326 960 301 960 q 376 953 353 960 q 414 933 398 946 q 439 903 430 921 q 448 865 448 886 q 414 793 448 818 q 326 768 381 768 q 280 775 301 768 q 243 793 259 781 q 219 824 228 806 q 210 865 210 842 z "},"Ę":{"ha":926,"x_min":149,"x_max":848,"o":"m 149 920 l 823 920 l 823 749 l 344 749 l 344 549 l 785 549 l 785 378 l 344 378 l 344 171 l 829 171 l 829 0 l 773 0 q 693 -98 692 -35 q 711 -142 693 -124 q 761 -159 730 -159 q 789 -157 776 -159 q 819 -144 802 -154 l 848 -229 q 778 -261 825 -245 q 678 -277 732 -277 q 556 -241 598 -277 q 514 -149 514 -206 q 550 -61 514 -100 q 647 0 587 -22 l 149 0 l 149 920 z "},"ę":{"ha":616,"x_min":41,"x_max":579,"o":"m 559 41 q 475 0 525 15 q 445 -28 456 -13 q 426 -91 426 -52 q 441 -131 426 -115 q 488 -147 456 -147 q 538 -136 511 -147 l 564 -210 q 537 -226 553 -218 q 500 -240 521 -234 q 457 -250 479 -246 q 412 -254 435 -254 q 295 -222 334 -254 q 256 -137 256 -190 q 280 -70 256 -100 q 340 -18 304 -41 q 219 -1 272 -18 q 128 53 165 16 q 62 165 83 97 q 41 313 41 234 q 65 460 41 395 q 126 567 89 524 q 218 631 164 610 q 336 652 272 652 q 441 634 395 652 q 517 583 486 616 q 564 502 548 550 q 579 394 579 454 q 576 331 579 364 q 568 273 573 298 l 213 273 q 220 209 213 239 q 245 157 227 179 q 292 124 262 134 q 359 115 322 115 q 440 129 404 115 q 502 161 477 143 l 559 41 m 326 519 q 272 507 294 519 q 238 475 251 495 q 219 429 225 455 q 213 376 214 403 l 421 376 q 423 413 423 396 q 397 490 422 461 q 326 519 372 519 z "},"Ě":{"ha":926,"x_min":142,"x_max":822,"o":"m 142 920 l 816 920 l 816 749 l 337 749 l 337 549 l 779 549 l 779 378 l 337 378 l 337 171 l 822 171 l 822 0 l 142 0 l 142 920 m 209 1121 l 209 1176 l 349 1176 l 421 1122 l 466 1085 l 509 1124 l 576 1176 l 719 1176 l 719 1122 l 537 1001 l 399 1001 l 209 1121 z "},"ě":{"ha":616,"x_min":41,"x_max":579,"o":"m 559 41 q 467 -2 523 14 q 342 -18 412 -18 q 219 -1 273 -18 q 128 53 166 16 q 62 165 83 97 q 41 313 41 234 q 65 460 41 395 q 126 567 89 524 q 218 631 164 610 q 336 652 272 652 q 441 634 395 652 q 517 583 486 616 q 564 502 548 550 q 579 394 579 454 q 576 331 579 364 q 568 273 573 298 l 213 273 q 220 209 213 239 q 245 157 227 179 q 292 124 262 134 q 359 115 322 115 q 440 129 404 115 q 502 161 477 143 l 559 41 m 326 519 q 272 507 294 519 q 238 475 251 495 q 219 429 225 455 q 213 376 214 403 l 421 376 q 423 413 423 396 q 397 490 422 461 q 326 519 372 519 m 89 1015 l 223 1015 l 292 923 l 326 868 l 355 924 l 411 1015 l 555 1015 l 391 768 l 271 768 l 89 1015 z "},"Ĝ":{"ha":1080,"x_min":95,"x_max":968,"o":"m 600 484 l 968 484 l 968 71 q 873 26 922 43 q 779 -2 825 8 q 691 -15 733 -12 q 613 -18 648 -18 q 510 -12 562 -18 q 408 9 458 -5 q 312 50 358 24 q 229 111 267 75 q 129 262 163 175 q 95 462 95 349 q 105 562 95 515 q 131 651 115 610 q 171 727 148 692 q 220 790 194 762 q 307 861 260 833 q 406 906 355 889 q 510 930 457 923 q 611 937 562 937 q 784 922 697 937 q 947 871 871 906 l 890 704 q 766 749 833 731 q 631 767 699 767 q 565 764 598 767 q 501 752 532 760 q 442 730 470 744 q 391 694 414 715 q 325 594 348 654 q 301 457 301 535 q 335 299 301 365 q 429 199 370 234 q 520 163 470 174 q 633 153 570 153 q 673 154 650 153 q 721 159 696 155 q 768 170 745 163 q 810 187 792 177 l 810 345 l 600 365 l 600 484 m 526 1183 l 664 1183 l 846 1061 l 846 1008 l 703 1008 l 635 1060 l 593 1099 l 548 1061 l 475 1008 l 336 1008 l 336 1063 l 526 1183 z "},"ĝ":{"ha":694,"x_min":41,"x_max":612,"o":"m 612 24 q 596 -100 612 -47 q 546 -190 580 -154 q 459 -244 512 -226 q 334 -263 407 -263 q 247 -257 287 -263 q 173 -241 206 -251 q 113 -218 139 -231 q 68 -192 87 -205 l 134 -71 q 207 -109 163 -92 q 305 -125 251 -125 q 381 -113 353 -125 q 424 -80 410 -101 q 443 -32 439 -59 q 448 26 448 -4 l 448 79 l 433 79 q 418 59 429 70 q 391 38 408 48 q 350 22 374 28 q 294 15 326 15 q 104 91 168 15 q 41 316 41 167 q 126 567 41 482 q 374 651 211 651 q 510 640 453 651 q 612 613 567 628 l 612 24 m 328 146 q 371 152 353 146 q 403 167 389 157 q 426 189 416 176 q 443 218 435 202 l 443 490 q 399 505 420 500 q 354 510 378 510 q 291 499 317 510 q 246 467 264 489 q 220 409 229 444 q 212 323 212 373 q 242 189 212 231 q 328 146 272 146 m 283 987 l 403 987 l 567 741 l 423 741 l 368 831 l 338 887 l 304 832 l 235 741 l 101 741 l 283 987 z "},"Ğ":{"ha":1080,"x_min":95,"x_max":968,"o":"m 600 484 l 968 484 l 968 71 q 873 26 922 43 q 779 -2 825 8 q 691 -15 733 -12 q 613 -18 648 -18 q 510 -12 562 -18 q 408 9 458 -5 q 312 50 358 24 q 229 111 267 75 q 129 262 163 175 q 95 462 95 349 q 105 562 95 515 q 131 651 115 610 q 171 727 148 692 q 220 790 194 762 q 307 861 260 833 q 406 906 355 889 q 510 930 457 923 q 611 937 562 937 q 784 922 697 937 q 947 871 871 906 l 890 704 q 766 749 833 731 q 631 767 699 767 q 565 764 598 767 q 501 752 532 760 q 442 730 470 744 q 391 694 414 715 q 325 594 348 654 q 301 457 301 535 q 335 299 301 365 q 429 199 370 234 q 520 163 470 174 q 633 153 570 153 q 673 154 650 153 q 721 159 696 155 q 768 170 745 163 q 810 187 792 177 l 810 345 l 600 365 l 600 484 m 373 1191 q 457 1141 403 1157 q 578 1124 511 1124 q 696 1143 646 1124 q 773 1191 745 1161 l 843 1145 q 798 1081 826 1108 q 733 1036 769 1053 q 657 1009 697 1018 q 576 1000 616 1000 q 498 1007 538 1000 q 419 1030 457 1014 q 351 1074 382 1047 q 299 1139 319 1101 l 373 1191 z "},"ğ":{"ha":694,"x_min":41,"x_max":612,"o":"m 612 24 q 596 -100 612 -47 q 546 -190 580 -154 q 459 -244 512 -226 q 334 -263 407 -263 q 247 -257 287 -263 q 173 -241 206 -251 q 113 -218 139 -231 q 68 -192 87 -205 l 134 -71 q 207 -109 163 -92 q 305 -125 251 -125 q 381 -113 353 -125 q 424 -80 410 -101 q 443 -32 439 -59 q 448 26 448 -4 l 448 79 l 433 79 q 418 59 429 70 q 391 38 408 48 q 350 22 374 28 q 294 15 326 15 q 104 91 168 15 q 41 316 41 167 q 126 567 41 482 q 374 651 211 651 q 510 640 453 651 q 612 613 567 628 l 612 24 m 328 146 q 371 152 353 146 q 403 167 389 157 q 426 189 416 176 q 443 218 435 202 l 443 490 q 399 505 420 500 q 354 510 378 510 q 291 499 317 510 q 246 467 264 489 q 220 409 229 444 q 212 323 212 373 q 242 189 212 231 q 328 146 272 146 m 186 956 q 252 899 216 920 q 338 878 288 878 q 421 898 388 878 q 480 956 455 918 l 564 922 q 537 859 555 890 q 491 802 519 827 q 424 762 463 777 q 337 746 386 746 q 192 789 250 746 q 102 913 135 831 l 186 956 z "},"Ģ":{"ha":1080,"x_min":95,"x_max":968,"o":"m 600 484 l 968 484 l 968 71 q 873 26 922 43 q 779 -2 825 8 q 691 -15 733 -12 q 613 -18 648 -18 q 510 -12 562 -18 q 408 9 458 -5 q 312 50 358 24 q 229 111 267 75 q 129 262 163 175 q 95 462 95 349 q 105 562 95 515 q 131 651 115 610 q 171 727 148 692 q 220 790 194 762 q 307 861 260 833 q 406 906 355 889 q 510 930 457 923 q 611 937 562 937 q 784 922 697 937 q 947 871 871 906 l 890 704 q 766 749 833 731 q 631 767 699 767 q 565 764 598 767 q 501 752 532 760 q 442 730 470 744 q 391 694 414 715 q 325 594 348 654 q 301 457 301 535 q 335 299 301 365 q 429 199 370 234 q 520 163 470 174 q 633 153 570 153 q 673 154 650 153 q 721 159 696 155 q 768 170 745 163 q 810 187 792 177 l 810 345 l 600 365 l 600 484 m 466 -138 q 492 -77 466 -100 q 559 -53 519 -53 q 641 -85 609 -53 q 672 -171 672 -117 q 656 -249 672 -216 q 617 -305 640 -282 q 570 -343 595 -328 q 526 -362 545 -357 l 479 -283 q 518 -262 498 -276 q 540 -220 537 -248 q 490 -201 513 -222 q 466 -138 466 -180 z "},"ģ":{"ha":694,"x_min":41,"x_max":612,"o":"m 612 24 q 596 -100 612 -47 q 546 -190 580 -154 q 459 -244 512 -226 q 334 -263 407 -263 q 247 -257 287 -263 q 173 -241 206 -251 q 113 -218 139 -231 q 68 -192 87 -205 l 134 -71 q 207 -109 163 -92 q 305 -125 251 -125 q 381 -113 353 -125 q 424 -80 410 -101 q 443 -32 439 -59 q 448 26 448 -4 l 448 79 l 433 79 q 418 59 429 70 q 391 38 408 48 q 350 22 374 28 q 294 15 326 15 q 104 91 168 15 q 41 316 41 167 q 126 567 41 482 q 374 651 211 651 q 510 640 453 651 q 612 613 567 628 l 612 24 m 328 146 q 371 152 353 146 q 403 167 389 157 q 426 189 416 176 q 443 218 435 202 l 443 490 q 399 505 420 500 q 354 510 378 510 q 291 499 317 510 q 246 467 264 489 q 220 409 229 444 q 212 323 212 373 q 242 189 212 231 q 328 146 272 146 m 447 795 q 420 734 447 758 q 354 710 394 710 q 272 742 304 710 q 241 828 241 774 q 257 906 241 873 q 295 962 273 939 q 343 1000 318 985 q 387 1019 368 1015 l 434 941 q 395 919 414 933 q 373 878 376 905 q 423 858 399 879 q 447 795 447 838 z "},"Ĥ":{"ha":1080,"x_min":142,"x_max":938,"o":"m 743 380 l 336 380 l 336 0 l 142 0 l 142 920 l 336 920 l 336 550 l 743 550 l 743 920 l 938 920 l 938 0 l 743 0 l 743 380 m 463 1183 l 600 1183 l 782 1061 l 782 1008 l 640 1008 l 572 1060 l 529 1099 l 484 1061 l 412 1008 l 272 1008 l 272 1063 l 463 1183 z "},"ĥ":{"ha":772,"x_min":-64,"x_max":680,"o":"m 511 0 l 511 349 q 507 403 511 376 q 491 452 503 430 q 458 489 479 475 q 403 503 437 503 q 324 473 358 503 q 271 391 290 442 l 271 0 l 102 0 l 102 934 l 271 934 l 271 557 l 286 557 q 319 594 300 576 q 362 624 338 611 q 415 645 386 637 q 478 652 444 652 q 557 640 520 652 q 621 596 593 627 q 664 514 648 566 q 680 386 680 463 l 680 0 l 511 0 m 126 1183 l 264 1183 l 446 1061 l 446 1008 l 303 1008 l 235 1060 l 193 1099 l 148 1061 l 75 1008 l -64 1008 l -64 1063 l 126 1183 z "},"Ħ":{"ha":1080,"x_min":37,"x_max":1044,"o":"m 37 789 l 142 789 l 142 920 l 336 920 l 336 789 l 743 789 l 743 920 l 938 920 l 938 789 l 1044 789 l 1044 677 l 938 677 l 938 0 l 743 0 l 743 380 l 336 380 l 336 0 l 142 0 l 142 677 l 37 677 l 37 789 m 336 677 l 336 550 l 743 550 l 743 677 l 336 677 z "},"ħ":{"ha":772,"x_min":3,"x_max":680,"o":"m 511 0 l 511 336 q 507 389 511 362 q 491 439 503 416 q 458 475 479 461 q 403 490 437 490 q 324 459 358 490 q 271 377 290 429 l 271 0 l 102 0 l 102 700 l 3 700 l 3 800 l 102 800 l 102 934 l 271 934 l 271 800 l 477 800 l 477 700 l 271 700 l 271 544 l 286 544 q 319 580 300 563 q 362 611 338 597 q 415 631 386 624 q 478 639 444 639 q 557 626 520 639 q 621 583 593 613 q 664 501 648 552 q 680 372 680 450 l 680 0 l 511 0 z "},"Ī":{"ha":541,"x_min":31,"x_max":522,"o":"m 174 814 l 64 814 l 64 920 l 476 920 l 476 814 l 368 814 l 368 105 l 476 105 l 476 0 l 64 0 l 64 105 l 174 105 l 174 814 m 31 1136 l 522 1136 l 522 1015 l 31 1015 l 31 1136 z "},"ī":{"ha":386,"x_min":-17,"x_max":444,"o":"m 109 635 l 278 635 l 278 0 l 109 0 l 109 635 m -17 892 l 444 892 l 444 767 l -17 767 l -17 892 z "},"Į":{"ha":541,"x_min":51,"x_max":493,"o":"m 160 814 l 51 814 l 51 920 l 463 920 l 463 814 l 354 814 l 354 105 l 463 105 l 463 0 l 418 0 q 338 -98 336 -35 q 356 -142 338 -124 q 406 -159 375 -159 q 433 -157 420 -159 q 464 -144 446 -154 l 493 -229 q 423 -261 469 -245 q 323 -277 377 -277 q 201 -241 243 -277 q 159 -149 159 -206 q 195 -61 159 -100 q 292 0 231 -22 l 51 0 l 51 105 l 160 105 l 160 814 z "},"į":{"ha":386,"x_min":31,"x_max":336,"o":"m 111 635 l 280 635 l 280 0 l 269 0 q 195 -90 193 -33 q 211 -130 195 -114 q 257 -146 228 -146 q 282 -144 271 -146 q 310 -133 294 -142 l 336 -210 q 273 -240 315 -226 q 181 -254 231 -254 q 69 -222 108 -254 q 31 -137 31 -190 q 64 -56 31 -92 q 152 0 97 -20 l 111 0 l 111 635 m 86 865 q 95 903 86 886 q 120 933 104 921 q 157 953 136 946 q 202 960 178 960 q 252 953 230 960 q 291 933 275 946 q 315 903 307 921 q 324 865 324 886 q 291 793 324 818 q 202 768 258 768 q 157 775 178 768 q 120 793 136 781 q 95 824 104 806 q 86 865 86 842 z "},"İ":{"ha":541,"x_min":64,"x_max":476,"o":"m 174 814 l 64 814 l 64 920 l 476 920 l 476 814 l 368 814 l 368 105 l 476 105 l 476 0 l 64 0 l 64 105 l 174 105 l 174 814 m 143 1084 q 174 1140 143 1117 q 267 1164 205 1164 q 361 1140 329 1164 q 393 1084 393 1117 q 361 1025 393 1048 q 267 1001 329 1001 q 174 1025 205 1001 q 143 1084 143 1048 z "},"ı":{"ha":386,"x_min":109,"x_max":278,"o":"m 109 635 l 278 635 l 278 0 l 109 0 l 109 635 z "},"Ĵ":{"ha":694,"x_min":30,"x_max":715,"o":"m 364 920 l 559 920 l 559 263 q 536 141 559 198 q 469 45 513 85 q 426 17 450 28 q 373 -3 401 5 q 315 -14 345 -11 q 257 -18 286 -18 q 203 -15 231 -18 q 146 -5 176 -12 q 88 15 117 2 q 30 49 58 28 l 94 206 q 141 177 119 187 q 179 161 162 166 q 211 155 197 156 q 237 154 225 154 q 293 164 269 154 q 333 193 317 174 q 357 237 349 211 q 364 293 364 262 l 364 920 m 395 1183 l 533 1183 l 715 1061 l 715 1008 l 572 1008 l 505 1060 l 462 1099 l 417 1061 l 345 1008 l 205 1008 l 205 1063 l 395 1183 z "},"ĵ":{"ha":463,"x_min":-24,"x_max":442,"o":"m 119 635 l 288 635 l 288 -24 q 241 -202 288 -140 q 89 -263 194 -263 q 3 -254 49 -263 l 3 -113 q 62 -108 39 -117 q 98 -82 85 -100 q 115 -37 111 -64 q 119 24 119 -11 l 119 635 m 158 987 l 278 987 l 442 741 l 298 741 l 243 831 l 213 887 l 179 832 l 111 741 l -24 741 l 158 987 z "},"Ķ":{"ha":1080,"x_min":149,"x_max":1071,"o":"m 432 389 l 343 389 l 343 0 l 149 0 l 149 920 l 343 920 l 343 515 l 422 535 l 789 920 l 1032 920 l 642 532 l 587 482 l 645 429 l 1071 0 l 809 0 l 432 389 m 443 -138 q 469 -77 443 -100 q 536 -53 496 -53 q 617 -85 586 -53 q 649 -171 649 -117 q 633 -249 649 -216 q 594 -305 617 -282 q 547 -343 572 -328 q 503 -362 522 -357 l 456 -283 q 495 -262 475 -276 q 517 -220 514 -248 q 467 -201 490 -222 q 443 -138 443 -180 z "},"ķ":{"ha":772,"x_min":102,"x_max":762,"o":"m 334 263 l 272 263 l 272 0 l 102 0 l 102 934 l 272 934 l 272 360 l 330 383 l 541 635 l 729 635 l 511 395 l 461 339 l 514 286 l 762 0 l 557 0 l 334 263 m 299 -138 q 326 -77 299 -100 q 392 -53 352 -53 q 474 -85 442 -53 q 505 -171 505 -117 q 489 -249 505 -216 q 451 -305 473 -282 q 403 -343 428 -328 q 359 -362 378 -357 l 312 -283 q 351 -262 332 -276 q 373 -220 370 -248 q 323 -201 347 -222 q 299 -138 299 -180 z "},"Ĺ":{"ha":926,"x_min":149,"x_max":876,"o":"m 876 0 l 149 0 l 149 920 l 343 920 l 343 171 l 876 171 l 876 0 m 342 1163 l 568 1163 l 568 1122 l 339 1008 l 192 1008 l 342 1163 z "},"ĺ":{"ha":386,"x_min":75,"x_max":473,"o":"m 243 222 q 254 153 243 176 q 300 130 265 130 q 334 135 317 130 q 372 148 352 140 l 382 12 q 310 -12 346 -3 q 231 -20 274 -20 q 115 24 155 -20 q 75 146 75 68 l 75 934 l 243 934 l 243 222 m 248 1163 l 473 1163 l 473 1122 l 245 1008 l 98 1008 l 248 1163 z "},"Ļ":{"ha":926,"x_min":149,"x_max":876,"o":"m 876 0 l 149 0 l 149 920 l 343 920 l 343 171 l 876 171 l 876 0 m 329 -138 q 355 -77 329 -100 q 422 -53 382 -53 q 504 -85 472 -53 q 535 -171 535 -117 q 519 -249 535 -216 q 480 -305 503 -282 q 433 -343 458 -328 q 389 -362 408 -357 l 342 -283 q 381 -262 361 -276 q 403 -220 400 -248 q 353 -201 376 -222 q 329 -138 329 -180 z "},"ļ":{"ha":386,"x_min":75,"x_max":382,"o":"m 243 222 q 254 153 243 176 q 300 130 265 130 q 334 135 317 130 q 372 148 352 140 l 382 12 q 310 -12 346 -3 q 231 -20 274 -20 q 115 24 155 -20 q 75 146 75 68 l 75 934 l 243 934 l 243 222 m 136 -138 q 162 -77 136 -100 q 229 -53 189 -53 q 310 -85 279 -53 q 342 -171 342 -117 q 326 -249 342 -216 q 287 -305 310 -282 q 240 -343 264 -328 q 196 -362 215 -357 l 149 -283 q 188 -262 168 -276 q 210 -220 207 -248 q 159 -201 183 -222 q 136 -138 136 -180 z "},"Ľ":{"ha":926,"x_min":149,"x_max":876,"o":"m 876 0 l 149 0 l 149 920 l 343 920 l 343 171 l 876 171 l 876 0 m 727 920 q 710 839 725 881 q 676 760 696 797 q 635 692 656 722 q 599 649 614 662 l 516 694 q 553 800 541 742 q 566 920 566 859 l 727 920 z "},"ľ":{"ha":651,"x_min":88,"x_max":585,"o":"m 256 222 q 268 153 256 176 q 314 130 279 130 q 348 135 330 130 q 386 148 366 140 l 396 12 q 323 -12 359 -3 q 245 -20 288 -20 q 129 24 169 -20 q 88 146 88 68 l 88 934 l 256 934 l 256 222 m 585 920 q 568 839 583 881 q 534 760 553 797 q 493 692 514 722 q 456 649 472 662 l 374 694 q 411 800 399 742 q 423 920 423 859 l 585 920 z "},"Ł":{"ha":926,"x_min":66,"x_max":798,"o":"m 66 421 l 165 482 l 165 920 l 359 920 l 359 603 l 501 690 l 501 522 l 359 435 l 359 171 l 798 171 l 798 0 l 165 0 l 165 317 l 66 257 l 66 421 z "},"ł":{"ha":386,"x_min":-46,"x_max":385,"o":"m -46 405 l 68 477 l 68 934 l 237 934 l 237 581 l 351 652 l 351 496 l 237 427 l 237 221 q 296 130 237 130 q 363 144 326 130 l 385 12 q 316 -9 360 1 q 225 -20 273 -20 q 109 15 149 -20 q 68 125 68 49 l 68 325 l -46 254 l -46 405 z "},"Ń":{"ha":1003,"x_min":122,"x_max":881,"o":"m 376 488 l 301 607 l 296 607 l 307 480 l 307 0 l 122 0 l 122 926 l 262 926 l 631 428 l 704 299 l 710 299 l 697 435 l 697 920 l 881 920 l 881 -6 l 741 -6 l 376 488 m 556 1163 l 782 1163 l 782 1122 l 553 1008 l 406 1008 l 556 1163 z "},"ń":{"ha":772,"x_min":102,"x_max":687,"o":"m 517 0 l 517 348 q 489 467 517 430 q 409 503 461 503 q 360 493 382 503 q 320 467 338 483 q 290 433 302 452 q 271 397 277 414 l 271 0 l 102 0 l 102 635 l 235 635 l 253 544 l 271 544 q 306 585 285 565 q 352 620 326 604 q 406 644 377 635 q 467 652 435 652 q 554 640 514 652 q 624 596 594 627 q 670 514 653 566 q 687 383 687 462 l 687 0 l 517 0 m 423 958 l 609 958 l 609 920 l 444 749 l 344 749 l 423 958 z "},"Ņ":{"ha":1003,"x_min":122,"x_max":881,"o":"m 376 488 l 301 607 l 296 607 l 307 480 l 307 0 l 122 0 l 122 926 l 262 926 l 631 428 l 704 299 l 710 299 l 697 435 l 697 920 l 881 920 l 881 -6 l 741 -6 l 376 488 m 363 -138 q 389 -77 363 -100 q 456 -53 416 -53 q 537 -85 506 -53 q 569 -171 569 -117 q 553 -249 569 -216 q 514 -305 537 -282 q 467 -343 492 -328 q 423 -362 442 -357 l 376 -283 q 415 -262 395 -276 q 437 -220 434 -248 q 387 -201 410 -222 q 363 -138 363 -180 z "},"ņ":{"ha":772,"x_min":102,"x_max":687,"o":"m 517 0 l 517 348 q 489 467 517 430 q 409 503 461 503 q 360 493 382 503 q 320 467 338 483 q 290 433 302 452 q 271 397 277 414 l 271 0 l 102 0 l 102 635 l 235 635 l 253 544 l 271 544 q 306 585 285 565 q 352 620 326 604 q 406 644 377 635 q 467 652 435 652 q 554 640 514 652 q 624 596 594 627 q 670 514 653 566 q 687 383 687 462 l 687 0 l 517 0 m 233 -138 q 260 -77 233 -100 q 326 -53 286 -53 q 408 -85 376 -53 q 439 -171 439 -117 q 424 -249 439 -216 q 385 -305 408 -282 q 337 -343 362 -328 q 294 -362 313 -357 l 246 -283 q 285 -262 266 -276 q 307 -220 304 -248 q 257 -201 281 -222 q 233 -138 233 -180 z "},"Ň":{"ha":1003,"x_min":122,"x_max":881,"o":"m 376 488 l 301 607 l 296 607 l 307 480 l 307 0 l 122 0 l 122 926 l 262 926 l 631 428 l 704 299 l 710 299 l 697 435 l 697 920 l 881 920 l 881 -6 l 741 -6 l 376 488 m 248 1121 l 248 1176 l 387 1176 l 460 1122 l 505 1085 l 547 1124 l 615 1176 l 758 1176 l 758 1122 l 576 1001 l 438 1001 l 248 1121 z "},"ň":{"ha":772,"x_min":102,"x_max":687,"o":"m 517 0 l 517 348 q 489 467 517 430 q 409 503 461 503 q 360 493 382 503 q 320 467 338 483 q 290 433 302 452 q 271 397 277 414 l 271 0 l 102 0 l 102 635 l 235 635 l 253 544 l 271 544 q 306 585 285 565 q 352 620 326 604 q 406 644 377 635 q 467 652 435 652 q 554 640 514 652 q 624 596 594 627 q 670 514 653 566 q 687 383 687 462 l 687 0 l 517 0 m 155 1015 l 289 1015 l 357 923 l 391 868 l 421 924 l 477 1015 l 621 1015 l 456 768 l 336 768 l 155 1015 z "},"Ō":{"ha":1080,"x_min":78,"x_max":1002,"o":"m 78 458 q 111 662 78 572 q 205 812 144 751 q 351 905 266 873 q 539 937 435 937 q 735 903 649 937 q 880 805 821 868 q 971 654 940 742 q 1002 460 1002 566 q 971 264 1002 353 q 880 113 940 176 q 735 16 821 50 q 539 -19 649 -19 q 351 13 435 -19 q 205 106 266 45 q 111 256 144 168 q 78 458 78 345 m 283 460 q 302 322 283 380 q 354 226 320 264 q 434 170 387 188 q 539 151 481 151 q 653 175 605 151 q 733 240 702 199 q 780 338 765 281 q 795 460 795 395 q 780 581 795 525 q 733 679 765 637 q 653 743 702 720 q 539 767 605 767 q 434 749 481 767 q 354 692 387 730 q 302 596 320 654 q 283 460 283 538 m 285 1136 l 775 1136 l 775 1015 l 285 1015 l 285 1136 z "},"ō":{"ha":694,"x_min":41,"x_max":654,"o":"m 41 317 q 61 452 41 391 q 120 558 81 514 q 216 628 159 603 q 348 652 273 652 q 481 627 424 652 q 577 556 539 602 q 634 450 615 511 q 654 317 654 389 q 634 183 654 245 q 577 77 615 122 q 481 6 539 32 q 348 -19 424 -19 q 216 6 273 -19 q 120 75 159 31 q 61 181 81 119 q 41 317 41 243 m 215 317 q 224 229 215 266 q 251 169 234 192 q 293 134 269 145 q 348 123 317 123 q 409 137 384 123 q 450 178 434 152 q 473 239 466 203 q 481 317 481 275 q 473 394 481 359 q 450 456 466 430 q 409 496 434 481 q 348 511 384 511 q 293 499 317 511 q 251 465 269 488 q 224 405 234 441 q 215 317 215 368 m 118 892 l 579 892 l 579 767 l 118 767 l 118 892 z "},"Ő":{"ha":1080,"x_min":78,"x_max":1002,"o":"m 78 458 q 111 662 78 572 q 205 812 144 751 q 351 905 266 873 q 539 937 435 937 q 735 903 649 937 q 880 805 821 868 q 971 654 940 742 q 1002 460 1002 566 q 971 264 1002 353 q 880 113 940 176 q 735 16 821 50 q 539 -19 649 -19 q 351 13 435 -19 q 205 106 266 45 q 111 256 144 168 q 78 458 78 345 m 283 460 q 302 322 283 380 q 354 226 320 264 q 434 170 387 188 q 539 151 481 151 q 653 175 605 151 q 733 240 702 199 q 780 338 765 281 q 795 460 795 395 q 780 581 795 525 q 733 679 765 637 q 653 743 702 720 q 539 767 605 767 q 434 749 481 767 q 354 692 387 730 q 302 596 320 654 q 283 460 283 538 m 388 1151 l 578 1151 l 578 1130 l 435 1008 l 302 1008 l 388 1151 m 670 1151 l 869 1151 l 869 1130 l 665 1008 l 531 1008 l 670 1151 z "},"ő":{"ha":694,"x_min":41,"x_max":667,"o":"m 41 317 q 61 452 41 391 q 120 558 81 514 q 216 628 159 603 q 348 652 273 652 q 481 627 424 652 q 577 556 539 602 q 634 450 615 511 q 654 317 654 389 q 634 183 654 245 q 577 77 615 122 q 481 6 539 32 q 348 -19 424 -19 q 216 6 273 -19 q 120 75 159 31 q 61 181 81 119 q 41 317 41 243 m 215 317 q 224 229 215 266 q 251 169 234 192 q 293 134 269 145 q 348 123 317 123 q 409 137 384 123 q 450 178 434 152 q 473 239 466 203 q 481 317 481 275 q 473 394 481 359 q 450 456 466 430 q 409 496 434 481 q 348 511 384 511 q 293 499 317 511 q 251 465 269 488 q 224 405 234 441 q 215 317 215 368 m 219 969 l 386 969 l 386 951 l 274 797 l 168 797 l 219 969 m 487 969 l 667 969 l 667 951 l 491 797 l 380 797 l 487 969 z "},"Œ":{"ha":1389,"x_min":54,"x_max":1293,"o":"m 642 733 q 571 756 611 745 q 477 767 532 767 q 386 749 426 767 q 318 693 346 730 q 275 597 290 655 q 260 460 260 539 q 273 335 260 391 q 313 238 286 278 q 384 175 340 197 q 489 153 427 153 q 533 155 510 153 q 576 161 555 157 q 614 170 597 165 q 642 179 631 174 l 642 733 m 642 0 q 568 -13 610 -8 q 481 -18 526 -18 q 294 16 374 -18 q 160 114 214 51 q 81 265 107 177 q 54 460 54 353 q 83 662 54 573 q 167 812 112 751 q 301 905 222 873 q 481 937 380 937 q 533 936 510 937 q 575 931 556 934 q 610 926 594 929 q 642 920 626 922 l 1286 920 l 1286 749 l 836 749 l 836 549 l 1249 549 l 1249 378 l 836 378 l 836 171 l 1293 171 l 1293 0 l 642 0 z "},"œ":{"ha":1003,"x_min":39,"x_max":967,"o":"m 947 41 q 855 -2 911 14 q 730 -18 800 -18 q 609 0 661 -18 q 515 60 557 18 q 437 3 486 25 q 319 -19 389 -19 q 194 6 247 -19 q 107 75 142 31 q 56 181 73 119 q 39 317 39 243 q 56 452 39 391 q 108 558 73 514 q 197 628 143 603 q 326 652 252 652 q 445 628 397 652 q 522 568 492 604 q 607 631 555 610 q 724 652 660 652 q 829 634 783 652 q 905 583 874 616 q 951 502 936 550 q 967 394 967 454 q 964 331 967 364 q 956 273 961 298 l 601 273 q 611 206 603 235 q 637 157 620 177 q 681 125 654 136 q 747 115 707 115 q 828 129 792 115 q 890 161 865 143 l 947 41 m 214 317 q 220 229 214 266 q 239 169 226 192 q 274 134 253 145 q 326 123 296 123 q 381 137 359 123 q 414 178 402 152 q 431 239 427 203 q 435 317 435 275 q 431 394 435 359 q 414 456 427 430 q 381 496 402 481 q 326 511 359 511 q 274 499 296 511 q 239 465 253 488 q 220 405 226 441 q 214 317 214 368 m 714 519 q 660 507 682 519 q 626 475 639 495 q 607 429 613 455 q 601 376 602 403 l 809 376 q 811 413 811 396 q 785 490 810 461 q 714 519 760 519 z "},"Ŕ":{"ha":1003,"x_min":142,"x_max":972,"o":"m 142 910 q 216 920 174 916 q 300 927 257 924 q 383 931 342 930 q 454 932 424 932 q 527 929 490 932 q 601 919 565 926 q 671 900 637 911 q 731 871 704 888 q 813 785 782 838 q 844 659 844 732 q 828 557 844 602 q 786 479 812 512 q 723 426 759 447 q 645 395 686 405 l 692 348 l 972 0 l 732 0 l 463 356 l 336 372 l 336 0 l 142 0 l 142 910 m 457 762 q 424 761 441 762 q 390 761 407 761 q 359 759 374 760 q 336 757 345 758 l 336 503 l 442 503 q 517 508 479 503 q 582 530 554 514 q 623 572 608 546 q 637 642 637 599 q 624 694 637 668 q 586 735 610 720 q 528 756 562 750 q 457 762 494 762 m 496 1163 l 722 1163 l 722 1122 l 494 1008 l 347 1008 l 496 1163 z "},"ŕ":{"ha":616,"x_min":111,"x_max":593,"o":"m 238 635 l 262 543 l 277 543 q 325 596 301 575 q 373 628 349 616 q 422 645 397 640 q 475 649 447 649 q 533 641 502 649 q 593 612 564 632 l 538 456 q 513 471 527 465 q 487 483 500 478 q 461 491 473 488 q 439 494 448 494 q 354 472 395 494 q 280 398 313 450 l 280 0 l 111 0 l 111 635 l 238 635 m 340 958 l 526 958 l 526 920 l 360 749 l 260 749 l 340 958 z "},"Ŗ":{"ha":1003,"x_min":142,"x_max":972,"o":"m 142 910 q 216 920 174 916 q 300 927 257 924 q 383 931 342 930 q 454 932 424 932 q 527 929 490 932 q 601 919 565 926 q 671 900 637 911 q 731 871 704 888 q 813 785 782 838 q 844 659 844 732 q 828 557 844 602 q 786 479 812 512 q 723 426 759 447 q 645 395 686 405 l 692 348 l 972 0 l 732 0 l 463 356 l 336 372 l 336 0 l 142 0 l 142 910 m 457 762 q 424 761 441 762 q 390 761 407 761 q 359 759 374 760 q 336 757 345 758 l 336 503 l 442 503 q 517 508 479 503 q 582 530 554 514 q 623 572 608 546 q 637 642 637 599 q 624 694 637 668 q 586 735 610 720 q 528 756 562 750 q 457 762 494 762 m 368 -138 q 395 -77 368 -100 q 461 -53 421 -53 q 543 -85 511 -53 q 574 -171 574 -117 q 558 -249 574 -216 q 520 -305 543 -282 q 472 -343 497 -328 q 429 -362 448 -357 l 381 -283 q 420 -262 401 -276 q 442 -220 439 -248 q 392 -201 416 -222 q 368 -138 368 -180 z "},"ŗ":{"ha":616,"x_min":111,"x_max":593,"o":"m 238 635 l 262 543 l 277 543 q 325 596 301 575 q 373 628 349 616 q 422 645 397 640 q 475 649 447 649 q 533 641 502 649 q 593 612 564 632 l 538 456 q 513 471 527 465 q 487 483 500 478 q 461 491 473 488 q 439 494 448 494 q 354 472 395 494 q 280 398 313 450 l 280 0 l 111 0 l 111 635 l 238 635 m 156 -138 q 182 -77 156 -100 q 249 -53 209 -53 q 331 -85 299 -53 q 362 -171 362 -117 q 346 -249 362 -216 q 308 -305 330 -282 q 260 -343 285 -328 q 216 -362 235 -357 l 169 -283 q 208 -262 189 -276 q 230 -220 227 -248 q 180 -201 203 -222 q 156 -138 156 -180 z "},"Ř":{"ha":1003,"x_min":142,"x_max":972,"o":"m 142 910 q 216 920 174 916 q 300 927 257 924 q 383 931 342 930 q 454 932 424 932 q 527 929 490 932 q 601 919 565 926 q 671 900 637 911 q 731 871 704 888 q 813 785 782 838 q 844 659 844 732 q 828 557 844 602 q 786 479 812 512 q 723 426 759 447 q 645 395 686 405 l 692 348 l 972 0 l 732 0 l 463 356 l 336 372 l 336 0 l 142 0 l 142 910 m 457 762 q 424 761 441 762 q 390 761 407 761 q 359 759 374 760 q 336 757 345 758 l 336 503 l 442 503 q 517 508 479 503 q 582 530 554 514 q 623 572 608 546 q 637 642 637 599 q 624 694 637 668 q 586 735 610 720 q 528 756 562 750 q 457 762 494 762 m 197 1121 l 197 1176 l 336 1176 l 409 1122 l 454 1085 l 496 1124 l 564 1176 l 707 1176 l 707 1122 l 525 1001 l 387 1001 l 197 1121 z "},"ř":{"ha":616,"x_min":99,"x_max":593,"o":"m 238 635 l 262 543 l 277 543 q 325 596 301 575 q 373 628 349 616 q 422 645 397 640 q 475 649 447 649 q 533 641 502 649 q 593 612 564 632 l 538 456 q 513 471 527 465 q 487 483 500 478 q 461 491 473 488 q 439 494 448 494 q 354 472 395 494 q 280 398 313 450 l 280 0 l 111 0 l 111 635 l 238 635 m 99 1015 l 233 1015 l 302 923 l 336 868 l 366 924 l 421 1015 l 565 1015 l 401 768 l 281 768 l 99 1015 z "},"Ś":{"ha":772,"x_min":95,"x_max":769,"o":"m 574 252 q 559 298 574 279 q 517 334 543 318 q 455 362 490 349 q 381 388 420 375 q 287 426 334 404 q 202 480 240 448 q 141 558 165 513 q 117 665 117 604 q 141 785 117 734 q 210 870 165 836 q 316 921 254 904 q 454 937 378 937 q 618 922 542 937 q 747 880 696 907 l 685 717 q 644 736 669 726 q 589 753 619 745 q 523 765 558 760 q 450 770 487 770 q 348 747 384 770 q 312 683 312 724 q 322 644 312 661 q 350 614 332 627 q 390 590 368 600 q 438 570 413 579 q 490 552 464 561 q 540 532 516 543 q 624 491 583 514 q 697 437 665 468 q 749 366 730 406 q 769 275 769 326 q 743 143 769 199 q 668 52 716 88 q 554 -1 621 16 q 407 -18 487 -18 q 304 -12 353 -18 q 215 3 256 -6 q 143 22 174 12 q 95 42 113 33 l 159 212 q 199 193 174 203 q 256 172 224 182 q 325 156 288 163 q 397 149 361 149 q 530 174 485 149 q 574 252 574 199 m 446 1163 l 672 1163 l 672 1122 l 444 1008 l 296 1008 l 446 1163 z "},"ś":{"ha":541,"x_min":34,"x_max":507,"o":"m 83 171 q 126 146 105 157 q 168 129 146 136 q 212 118 189 121 q 262 115 235 115 q 321 131 304 115 q 338 170 338 146 q 326 207 338 193 q 295 231 313 221 q 253 247 276 240 q 210 260 231 253 q 156 282 184 268 q 104 320 127 297 q 66 377 81 343 q 51 456 51 410 q 68 541 51 504 q 116 602 85 577 q 192 640 147 627 q 290 652 236 652 q 341 650 317 652 q 388 643 366 648 q 434 629 411 637 q 484 610 458 621 l 448 482 q 374 508 412 496 q 293 519 336 519 q 240 505 259 519 q 221 463 221 491 q 234 426 221 439 q 267 404 247 412 q 310 390 286 395 q 355 377 334 384 q 412 353 385 368 q 460 317 439 339 q 494 265 481 296 q 507 193 507 235 q 492 108 507 146 q 448 41 478 69 q 371 -2 418 14 q 258 -18 323 -18 q 128 -2 186 -18 q 34 35 71 14 l 83 171 m 271 958 l 457 958 l 457 920 l 292 749 l 192 749 l 271 958 z "},"Ŝ":{"ha":772,"x_min":95,"x_max":769,"o":"m 574 252 q 559 298 574 279 q 517 334 543 318 q 455 362 490 349 q 381 388 420 375 q 287 426 334 404 q 202 480 240 448 q 141 558 165 513 q 117 665 117 604 q 141 785 117 734 q 210 870 165 836 q 316 921 254 904 q 454 937 378 937 q 618 922 542 937 q 747 880 696 907 l 685 717 q 644 736 669 726 q 589 753 619 745 q 523 765 558 760 q 450 770 487 770 q 348 747 384 770 q 312 683 312 724 q 322 644 312 661 q 350 614 332 627 q 390 590 368 600 q 438 570 413 579 q 490 552 464 561 q 540 532 516 543 q 624 491 583 514 q 697 437 665 468 q 749 366 730 406 q 769 275 769 326 q 743 143 769 199 q 668 52 716 88 q 554 -1 621 16 q 407 -18 487 -18 q 304 -12 353 -18 q 215 3 256 -6 q 143 22 174 12 q 95 42 113 33 l 159 212 q 199 193 174 203 q 256 172 224 182 q 325 156 288 163 q 397 149 361 149 q 530 174 485 149 q 574 252 574 199 m 387 1183 l 525 1183 l 707 1061 l 707 1008 l 564 1008 l 496 1060 l 454 1099 l 409 1061 l 336 1008 l 197 1008 l 197 1063 l 387 1183 z "},"ŝ":{"ha":541,"x_min":34,"x_max":513,"o":"m 83 171 q 126 146 105 157 q 168 129 146 136 q 212 118 189 121 q 262 115 235 115 q 321 131 304 115 q 338 170 338 146 q 326 207 338 193 q 295 231 313 221 q 253 247 276 240 q 210 260 231 253 q 156 282 184 268 q 104 320 127 297 q 66 377 81 343 q 51 456 51 410 q 68 541 51 504 q 116 602 85 577 q 192 640 147 627 q 290 652 236 652 q 341 650 317 652 q 388 643 366 648 q 434 629 411 637 q 484 610 458 621 l 448 482 q 374 508 412 496 q 293 519 336 519 q 240 505 259 519 q 221 463 221 491 q 234 426 221 439 q 267 404 247 412 q 310 390 286 395 q 355 377 334 384 q 412 353 385 368 q 460 317 439 339 q 494 265 481 296 q 507 193 507 235 q 492 108 507 146 q 448 41 478 69 q 371 -2 418 14 q 258 -18 323 -18 q 128 -2 186 -18 q 34 35 71 14 l 83 171 m 229 987 l 349 987 l 513 741 l 369 741 l 313 831 l 283 887 l 250 832 l 181 741 l 47 741 l 229 987 z "},"Ş":{"ha":772,"x_min":47,"x_max":722,"o":"m 527 252 q 511 298 527 279 q 469 334 496 318 q 408 362 443 349 q 334 388 373 375 q 240 426 287 404 q 155 480 193 448 q 94 558 117 513 q 70 665 70 604 q 94 785 70 734 q 162 870 118 836 q 269 921 207 904 q 406 937 331 937 q 571 922 494 937 q 699 880 649 907 l 637 717 q 596 736 621 726 q 541 753 572 745 q 475 765 511 760 q 402 770 439 770 q 300 747 336 770 q 264 683 264 724 q 275 644 264 661 q 302 614 285 627 q 343 590 320 600 q 391 570 366 579 q 443 552 416 561 q 492 532 469 543 q 576 491 535 514 q 650 437 617 468 q 702 366 682 406 q 722 275 722 326 q 700 155 722 206 q 639 67 678 103 q 544 11 600 31 q 421 -16 489 -9 l 385 -68 q 484 -96 448 -73 q 520 -170 520 -119 q 504 -224 520 -201 q 459 -262 488 -247 q 392 -286 430 -278 q 309 -294 353 -294 q 262 -293 286 -294 q 213 -286 238 -292 l 227 -224 q 292 -224 267 -227 q 331 -215 317 -220 q 349 -200 345 -209 q 353 -182 353 -192 q 323 -148 353 -159 q 227 -133 293 -136 l 306 -16 q 221 -7 261 -14 q 148 7 181 -1 q 89 25 114 16 q 47 42 63 34 l 112 212 q 152 193 126 203 q 209 172 177 182 q 277 156 241 163 q 349 149 313 149 q 482 174 437 149 q 527 252 527 199 z "},"ş":{"ha":541,"x_min":34,"x_max":507,"o":"m 83 171 q 126 146 105 157 q 168 129 146 136 q 212 118 189 121 q 262 115 235 115 q 321 131 304 115 q 338 170 338 146 q 326 207 338 193 q 295 231 313 221 q 253 247 276 240 q 210 260 231 253 q 156 282 184 268 q 104 320 127 297 q 66 377 81 343 q 51 456 51 410 q 68 541 51 504 q 116 602 85 577 q 192 640 147 627 q 290 652 236 652 q 341 650 317 652 q 388 643 366 648 q 434 629 411 637 q 484 610 458 621 l 448 482 q 374 508 412 496 q 293 519 336 519 q 240 505 259 519 q 221 463 221 491 q 234 426 221 439 q 267 404 247 412 q 310 390 286 395 q 355 377 334 384 q 412 353 385 368 q 460 317 439 339 q 494 265 481 296 q 507 193 507 235 q 496 118 507 153 q 462 56 485 83 q 403 11 439 29 q 317 -14 367 -7 l 290 -62 q 381 -88 348 -66 q 414 -156 414 -110 q 399 -206 414 -184 q 358 -241 385 -227 q 296 -263 331 -256 q 220 -271 261 -271 q 176 -270 198 -271 q 132 -263 155 -269 l 144 -207 q 204 -206 182 -209 q 240 -197 227 -203 q 257 -184 252 -192 q 261 -168 261 -176 q 233 -136 261 -146 q 144 -122 205 -125 l 210 -16 q 109 4 154 -10 q 34 35 64 18 l 83 171 z "},"Š":{"ha":772,"x_min":95,"x_max":769,"o":"m 574 252 q 559 298 574 279 q 517 334 543 318 q 455 362 490 349 q 381 388 420 375 q 287 426 334 404 q 202 480 240 448 q 141 558 165 513 q 117 665 117 604 q 141 785 117 734 q 210 870 165 836 q 316 921 254 904 q 454 937 378 937 q 618 922 542 937 q 747 880 696 907 l 685 717 q 644 736 669 726 q 589 753 619 745 q 523 765 558 760 q 450 770 487 770 q 348 747 384 770 q 312 683 312 724 q 322 644 312 661 q 350 614 332 627 q 390 590 368 600 q 438 570 413 579 q 490 552 464 561 q 540 532 516 543 q 624 491 583 514 q 697 437 665 468 q 749 366 730 406 q 769 275 769 326 q 743 143 769 199 q 668 52 716 88 q 554 -1 621 16 q 407 -18 487 -18 q 304 -12 353 -18 q 215 3 256 -6 q 143 22 174 12 q 95 42 113 33 l 159 212 q 199 193 174 203 q 256 172 224 182 q 325 156 288 163 q 397 149 361 149 q 530 174 485 149 q 574 252 574 199 m 181 1121 l 181 1176 l 321 1176 l 393 1122 l 438 1085 l 481 1124 l 549 1176 l 691 1176 l 691 1122 l 509 1001 l 372 1001 l 181 1121 z "},"š":{"ha":541,"x_min":34,"x_max":508,"o":"m 83 171 q 126 146 105 157 q 168 129 146 136 q 212 118 189 121 q 262 115 235 115 q 321 131 304 115 q 338 170 338 146 q 326 207 338 193 q 295 231 313 221 q 253 247 276 240 q 210 260 231 253 q 156 282 184 268 q 104 320 127 297 q 66 377 81 343 q 51 456 51 410 q 68 541 51 504 q 116 602 85 577 q 192 640 147 627 q 290 652 236 652 q 341 650 317 652 q 388 643 366 648 q 434 629 411 637 q 484 610 458 621 l 448 482 q 374 508 412 496 q 293 519 336 519 q 240 505 259 519 q 221 463 221 491 q 234 426 221 439 q 267 404 247 412 q 310 390 286 395 q 355 377 334 384 q 412 353 385 368 q 460 317 439 339 q 494 265 481 296 q 507 193 507 235 q 492 108 507 146 q 448 41 478 69 q 371 -2 418 14 q 258 -18 323 -18 q 128 -2 186 -18 q 34 35 71 14 l 83 171 m 42 1015 l 176 1015 l 245 923 l 279 868 l 309 924 l 364 1015 l 508 1015 l 344 768 l 224 768 l 42 1015 z "},"Ţ":{"ha":926,"x_min":47,"x_max":879,"o":"m 879 749 l 560 749 l 560 0 l 523 0 l 478 -68 q 577 -96 541 -73 q 613 -170 613 -119 q 596 -224 613 -201 q 551 -262 580 -247 q 484 -286 522 -278 q 401 -294 446 -294 q 354 -293 378 -294 q 306 -286 330 -292 l 319 -224 q 385 -224 359 -227 q 423 -215 410 -220 q 441 -200 437 -209 q 446 -182 446 -192 q 416 -148 446 -159 q 319 -133 386 -136 l 409 0 l 366 0 l 366 749 l 47 749 l 47 920 l 879 920 l 879 749 z "},"ţ":{"ha":463,"x_min":14,"x_max":456,"o":"m 14 635 l 109 635 l 109 779 l 279 823 l 279 635 l 435 635 l 435 494 l 279 494 l 279 267 q 281 202 279 229 q 292 160 284 176 q 314 137 300 144 q 351 130 328 130 q 373 132 362 130 q 395 138 385 134 q 413 145 405 141 q 426 153 421 149 l 456 22 q 439 12 450 17 q 412 1 427 6 q 378 -9 397 -5 q 340 -17 359 -14 l 313 -62 q 404 -88 370 -66 q 437 -156 437 -110 q 422 -206 437 -184 q 380 -241 407 -227 q 318 -263 353 -256 q 242 -271 283 -271 q 199 -270 221 -271 q 154 -263 177 -269 l 166 -207 q 227 -206 204 -209 q 262 -197 250 -203 q 279 -184 275 -192 q 283 -168 283 -176 q 256 -136 283 -146 q 166 -122 228 -125 l 237 -12 q 142 48 176 2 q 109 176 109 94 l 109 494 l 14 494 l 14 635 z "},"Ť":{"ha":926,"x_min":47,"x_max":879,"o":"m 879 749 l 560 749 l 560 0 l 366 0 l 366 749 l 47 749 l 47 920 l 879 920 l 879 749 m 202 1121 l 202 1176 l 342 1176 l 414 1122 l 459 1085 l 502 1124 l 570 1176 l 712 1176 l 712 1122 l 530 1001 l 393 1001 l 202 1121 z "},"ť":{"ha":724,"x_min":107,"x_max":665,"o":"m 107 635 l 203 635 l 203 779 l 372 823 l 372 635 l 529 635 l 529 494 l 372 494 l 372 267 q 375 202 372 229 q 386 160 378 176 q 408 137 394 144 q 444 130 422 130 q 467 132 456 130 q 488 138 478 134 q 507 145 498 141 q 519 153 515 149 l 549 22 q 527 9 543 16 q 490 -4 511 2 q 445 -15 469 -11 q 397 -20 420 -20 q 315 -8 351 -20 q 254 27 279 3 q 216 88 229 51 q 203 176 203 125 l 203 494 l 107 494 l 107 635 m 665 974 q 649 893 663 935 q 614 814 634 851 q 574 746 595 777 q 537 703 553 716 l 454 749 q 492 854 479 796 q 504 974 504 913 l 665 974 z "},"Ū":{"ha":1003,"x_min":125,"x_max":878,"o":"m 694 920 l 878 920 l 878 330 q 851 175 878 240 q 774 67 823 110 q 659 4 726 24 q 515 -16 593 -16 q 350 4 422 -16 q 227 65 277 24 q 151 166 177 105 q 125 307 125 227 l 125 920 l 319 920 l 319 343 q 365 202 319 248 q 513 155 411 155 q 589 166 555 155 q 646 199 623 176 q 682 257 669 222 q 694 343 694 293 l 694 920 m 254 1136 l 744 1136 l 744 1015 l 254 1015 l 254 1136 z "},"ū":{"ha":772,"x_min":92,"x_max":688,"o":"m 262 635 l 262 283 q 265 230 262 257 q 279 181 269 203 q 310 145 290 159 q 363 132 330 132 q 412 142 389 132 q 452 167 435 152 q 481 199 469 182 q 498 230 492 216 l 498 635 l 667 635 l 667 193 q 672 92 667 142 q 688 0 677 41 l 563 0 l 530 99 l 517 99 q 427 12 481 42 q 304 -18 372 -18 q 216 -5 255 -18 q 149 39 176 8 q 107 121 121 71 q 92 246 92 172 l 92 635 l 262 635 m 151 892 l 612 892 l 612 767 l 151 767 l 151 892 z "},"Ŭ":{"ha":1003,"x_min":125,"x_max":878,"o":"m 694 920 l 878 920 l 878 330 q 851 175 878 240 q 774 67 823 110 q 659 4 726 24 q 515 -16 593 -16 q 350 4 422 -16 q 227 65 277 24 q 151 166 177 105 q 125 307 125 227 l 125 920 l 319 920 l 319 343 q 365 202 319 248 q 513 155 411 155 q 589 166 555 155 q 646 199 623 176 q 682 257 669 222 q 694 343 694 293 l 694 920 m 326 1191 q 409 1141 355 1157 q 530 1124 463 1124 q 648 1143 599 1124 q 726 1191 698 1161 l 795 1145 q 750 1081 779 1108 q 686 1036 722 1053 q 609 1009 650 1018 q 529 1000 569 1000 q 450 1007 491 1000 q 372 1030 410 1014 q 303 1074 334 1047 q 252 1139 272 1101 l 326 1191 z "},"ŭ":{"ha":772,"x_min":92,"x_max":688,"o":"m 262 635 l 262 283 q 265 230 262 257 q 279 181 269 203 q 310 145 290 159 q 363 132 330 132 q 412 142 389 132 q 452 167 435 152 q 481 199 469 182 q 498 230 492 216 l 498 635 l 667 635 l 667 193 q 672 92 667 142 q 688 0 677 41 l 563 0 l 530 99 l 517 99 q 427 12 481 42 q 304 -18 372 -18 q 216 -5 255 -18 q 149 39 176 8 q 107 121 121 71 q 92 246 92 172 l 92 635 l 262 635 m 241 956 q 308 899 272 920 q 394 878 343 878 q 477 898 444 878 q 536 956 511 918 l 620 922 q 592 859 610 890 q 546 802 574 827 q 480 762 518 777 q 393 746 441 746 q 248 789 305 746 q 157 913 191 831 l 241 956 z "},"Ů":{"ha":1003,"x_min":125,"x_max":878,"o":"m 694 920 l 878 920 l 878 330 q 851 175 878 240 q 774 67 823 110 q 659 4 726 24 q 515 -16 593 -16 q 350 4 422 -16 q 227 65 277 24 q 151 166 177 105 q 125 307 125 227 l 125 920 l 319 920 l 319 343 q 365 202 319 248 q 513 155 411 155 q 589 166 555 155 q 646 199 623 176 q 682 257 669 222 q 694 343 694 293 l 694 920 m 318 1063 q 326 1108 318 1086 q 354 1146 334 1130 q 410 1172 375 1162 q 500 1181 446 1181 q 641 1149 600 1181 q 682 1063 682 1118 q 673 1018 682 1039 q 644 981 665 997 q 587 957 623 966 q 500 947 552 947 q 413 956 448 947 q 358 980 378 964 q 328 1017 337 996 q 318 1063 318 1038 m 436 1063 q 451 1034 436 1044 q 500 1023 465 1023 q 550 1033 536 1023 q 564 1063 564 1043 q 549 1094 564 1084 q 500 1105 534 1105 q 436 1063 436 1105 z "},"ů":{"ha":772,"x_min":92,"x_max":688,"o":"m 262 635 l 262 283 q 265 230 262 257 q 279 181 269 203 q 310 145 290 159 q 363 132 330 132 q 412 142 389 132 q 452 167 435 152 q 481 199 469 182 q 498 230 492 216 l 498 635 l 667 635 l 667 193 q 672 92 667 142 q 688 0 677 41 l 563 0 l 530 99 l 517 99 q 427 12 481 42 q 304 -18 372 -18 q 216 -5 255 -18 q 149 39 176 8 q 107 121 121 71 q 92 246 92 172 l 92 635 l 262 635 m 213 873 q 253 966 213 928 q 372 1004 293 1004 q 490 970 447 1004 q 532 873 532 937 q 521 825 532 848 q 490 785 510 802 q 439 756 469 767 q 372 746 408 746 q 254 782 296 746 q 213 873 213 817 m 308 873 q 327 839 308 851 q 372 827 346 827 q 420 839 401 827 q 439 873 439 850 q 419 911 439 899 q 372 924 398 924 q 327 912 346 924 q 308 873 308 900 z "},"Ű":{"ha":1003,"x_min":125,"x_max":878,"o":"m 694 920 l 878 920 l 878 330 q 851 175 878 240 q 774 67 823 110 q 659 4 726 24 q 515 -16 593 -16 q 350 4 422 -16 q 227 65 277 24 q 151 166 177 105 q 125 307 125 227 l 125 920 l 319 920 l 319 343 q 365 202 319 248 q 513 155 411 155 q 589 166 555 155 q 646 199 623 176 q 682 257 669 222 q 694 343 694 293 l 694 920 m 347 1151 l 538 1151 l 538 1130 l 395 1008 l 262 1008 l 347 1151 m 629 1151 l 828 1151 l 828 1130 l 625 1008 l 490 1008 l 629 1151 z "},"ű":{"ha":772,"x_min":92,"x_max":688,"o":"m 262 635 l 262 283 q 265 230 262 257 q 279 181 269 203 q 310 145 290 159 q 363 132 330 132 q 412 142 389 132 q 452 167 435 152 q 481 199 469 182 q 498 230 492 216 l 498 635 l 667 635 l 667 193 q 672 92 667 142 q 688 0 677 41 l 563 0 l 530 99 l 517 99 q 427 12 481 42 q 304 -18 372 -18 q 216 -5 255 -18 q 149 39 176 8 q 107 121 121 71 q 92 246 92 172 l 92 635 l 262 635 m 235 969 l 402 969 l 402 951 l 290 797 l 184 797 l 235 969 m 503 969 l 684 969 l 684 951 l 507 797 l 397 797 l 503 969 z "},"Ų":{"ha":1003,"x_min":109,"x_max":840,"o":"m 656 920 l 840 920 l 840 330 q 786 119 840 198 q 639 7 732 41 q 587 -38 605 -10 q 571 -98 570 -66 q 589 -142 571 -124 q 639 -159 607 -159 q 667 -157 654 -159 q 696 -144 680 -154 l 725 -229 q 656 -261 702 -245 q 556 -277 610 -277 q 434 -241 476 -277 q 392 -149 392 -206 q 412 -74 392 -108 q 468 -16 433 -41 q 200 69 292 -12 q 109 307 109 149 l 109 920 l 302 920 l 302 343 q 349 197 302 238 q 486 155 395 155 q 614 199 572 155 q 656 343 656 243 l 656 920 z "},"ų":{"ha":772,"x_min":85,"x_max":743,"o":"m 255 635 l 255 283 q 258 230 255 257 q 273 181 262 203 q 303 145 283 159 q 356 132 323 132 q 405 142 382 132 q 445 167 428 152 q 474 199 463 182 q 491 230 486 216 l 491 635 l 661 635 l 661 193 q 666 92 661 142 q 681 0 671 41 l 674 0 q 601 -90 600 -33 q 617 -130 601 -114 q 663 -146 634 -146 q 689 -144 677 -146 q 716 -133 701 -142 l 743 -210 q 679 -240 721 -226 q 587 -254 637 -254 q 475 -222 513 -254 q 436 -137 436 -190 q 473 -53 436 -90 q 556 0 505 -20 l 523 99 l 511 99 q 420 12 474 42 q 298 -18 366 -18 q 209 -5 248 -18 q 142 39 170 8 q 100 121 115 71 q 85 246 85 172 l 85 635 l 255 635 z "},"Ÿ":{"ha":1003,"x_min":22,"x_max":981,"o":"m 404 338 l 22 920 l 262 920 l 468 587 l 510 509 l 515 509 l 557 589 l 762 920 l 981 920 l 599 340 l 599 0 l 404 0 l 404 338 m 241 1075 q 267 1132 241 1111 q 350 1154 292 1154 q 431 1132 405 1154 q 456 1075 456 1111 q 431 1021 456 1041 q 350 1000 405 1000 q 267 1021 292 1000 q 241 1075 241 1041 m 547 1075 q 572 1132 547 1111 q 653 1154 598 1154 q 736 1132 711 1154 q 762 1075 762 1111 q 736 1021 762 1041 q 653 1000 711 1000 q 572 1021 598 1000 q 547 1075 547 1041 z "},"Ź":{"ha":926,"x_min":79,"x_max":859,"o":"m 79 171 l 572 694 l 639 749 l 92 749 l 92 920 l 847 920 l 847 749 l 351 220 l 288 171 l 859 171 l 859 0 l 79 0 l 79 171 m 511 1163 l 737 1163 l 737 1122 l 509 1008 l 361 1008 l 511 1163 z "},"ź":{"ha":616,"x_min":47,"x_max":570,"o":"m 47 144 l 310 425 l 309 425 l 387 494 l 64 494 l 64 635 l 570 635 l 570 490 l 313 206 l 314 206 l 234 142 l 570 142 l 570 0 l 47 0 l 47 144 m 331 958 l 517 958 l 517 920 l 351 749 l 252 749 l 331 958 z "},"Ż":{"ha":926,"x_min":79,"x_max":859,"o":"m 79 171 l 572 694 l 639 749 l 92 749 l 92 920 l 847 920 l 847 749 l 351 220 l 288 171 l 859 171 l 859 0 l 79 0 l 79 171 m 331 1084 q 362 1140 331 1117 q 454 1164 393 1164 q 549 1140 517 1164 q 581 1084 581 1117 q 549 1025 581 1048 q 454 1001 517 1001 q 362 1025 393 1001 q 331 1084 331 1048 z "},"ż":{"ha":616,"x_min":47,"x_max":570,"o":"m 47 144 l 310 425 l 309 425 l 387 494 l 64 494 l 64 635 l 570 635 l 570 490 l 313 206 l 314 206 l 234 142 l 570 142 l 570 0 l 47 0 l 47 144 m 187 865 q 196 903 187 886 q 221 933 205 921 q 258 953 237 946 q 303 960 279 960 q 353 953 331 960 q 392 933 376 946 q 416 903 408 921 q 425 865 425 886 q 392 793 425 818 q 303 768 359 768 q 258 775 279 768 q 221 793 237 781 q 196 824 205 806 q 187 865 187 842 z "},"Ž":{"ha":926,"x_min":79,"x_max":859,"o":"m 79 171 l 572 694 l 639 749 l 92 749 l 92 920 l 847 920 l 847 749 l 351 220 l 288 171 l 859 171 l 859 0 l 79 0 l 79 171 m 198 1121 l 198 1176 l 338 1176 l 410 1122 l 455 1085 l 498 1124 l 566 1176 l 708 1176 l 708 1122 l 526 1001 l 389 1001 l 198 1121 z "},"ž":{"ha":616,"x_min":47,"x_max":570,"o":"m 47 144 l 310 425 l 309 425 l 387 494 l 64 494 l 64 635 l 570 635 l 570 490 l 313 206 l 314 206 l 234 142 l 570 142 l 570 0 l 47 0 l 47 144 m 62 1015 l 197 1015 l 265 923 l 299 868 l 329 924 l 385 1015 l 528 1015 l 364 768 l 244 768 l 62 1015 z "},"ſ":{"ha":386,"x_min":14,"x_max":477,"o":"m 14 635 l 106 635 l 106 743 q 121 833 106 796 q 164 890 137 869 q 228 923 191 912 q 317 934 264 934 q 363 931 340 934 q 408 924 387 928 q 447 915 429 920 q 477 905 465 909 l 443 776 q 396 788 418 783 q 349 792 373 792 q 292 775 311 792 q 274 717 274 758 l 274 0 l 106 0 l 106 494 l 14 494 l 14 635 z "},"ƒ":{"ha":694,"x_min":-43,"x_max":706,"o":"m 433 463 l 336 -53 q 312 -135 328 -96 q 269 -201 296 -173 q 200 -247 241 -230 q 102 -263 159 -263 q 28 -256 67 -263 q -43 -235 -10 -250 l -18 -98 q -3 -104 -12 -100 q 19 -112 7 -109 q 45 -119 31 -116 q 73 -121 59 -121 q 137 -94 110 -121 q 176 -2 165 -67 l 258 463 l 157 463 l 157 604 l 283 604 l 309 754 q 378 887 324 841 q 528 934 433 934 q 616 924 570 934 q 706 896 662 913 l 665 772 q 606 788 634 782 q 564 793 578 793 q 506 771 531 793 q 474 705 481 749 l 458 604 l 616 604 l 616 463 l 433 463 z "},"Ǵ":{"ha":1080,"x_min":95,"x_max":968,"o":"m 600 484 l 968 484 l 968 71 q 873 26 922 43 q 779 -2 825 8 q 691 -15 733 -12 q 613 -18 648 -18 q 510 -12 562 -18 q 408 9 458 -5 q 312 50 358 24 q 229 111 267 75 q 129 262 163 175 q 95 462 95 349 q 105 562 95 515 q 131 651 115 610 q 171 727 148 692 q 220 790 194 762 q 307 861 260 833 q 406 906 355 889 q 510 930 457 923 q 611 937 562 937 q 784 922 697 937 q 947 871 871 906 l 890 704 q 766 749 833 731 q 631 767 699 767 q 565 764 598 767 q 501 752 532 760 q 442 730 470 744 q 391 694 414 715 q 325 594 348 654 q 301 457 301 535 q 335 299 301 365 q 429 199 370 234 q 520 163 470 174 q 633 153 570 153 q 673 154 650 153 q 721 159 696 155 q 768 170 745 163 q 810 187 792 177 l 810 345 l 600 365 l 600 484 m 667 1163 l 893 1163 l 893 1122 l 665 1008 l 517 1008 l 667 1163 z "},"ǵ":{"ha":694,"x_min":41,"x_max":612,"o":"m 612 24 q 596 -100 612 -47 q 546 -190 580 -154 q 459 -244 512 -226 q 334 -263 407 -263 q 247 -257 287 -263 q 173 -241 206 -251 q 113 -218 139 -231 q 68 -192 87 -205 l 134 -71 q 207 -109 163 -92 q 305 -125 251 -125 q 381 -113 353 -125 q 424 -80 410 -101 q 443 -32 439 -59 q 448 26 448 -4 l 448 79 l 433 79 q 418 59 429 70 q 391 38 408 48 q 350 22 374 28 q 294 15 326 15 q 104 91 168 15 q 41 316 41 167 q 126 567 41 482 q 374 651 211 651 q 510 640 453 651 q 612 613 567 628 l 612 24 m 328 146 q 371 152 353 146 q 403 167 389 157 q 426 189 416 176 q 443 218 435 202 l 443 490 q 399 505 420 500 q 354 510 378 510 q 291 499 317 510 q 246 467 264 489 q 220 409 229 444 q 212 323 212 373 q 242 189 212 231 q 328 146 272 146 m 363 958 l 549 958 l 549 920 l 384 749 l 284 749 l 363 958 z "},"Ș":{"ha":772,"x_min":95,"x_max":769,"o":"m 574 252 q 559 298 574 279 q 517 334 543 318 q 455 362 490 349 q 381 388 420 375 q 287 426 334 404 q 202 480 240 448 q 141 558 165 513 q 117 665 117 604 q 141 785 117 734 q 210 870 165 836 q 316 921 254 904 q 454 937 378 937 q 618 922 542 937 q 747 880 696 907 l 685 717 q 644 736 669 726 q 589 753 619 745 q 523 765 558 760 q 450 770 487 770 q 348 747 384 770 q 312 683 312 724 q 322 644 312 661 q 350 614 332 627 q 390 590 368 600 q 438 570 413 579 q 490 552 464 561 q 540 532 516 543 q 624 491 583 514 q 697 437 665 468 q 749 366 730 406 q 769 275 769 326 q 743 143 769 199 q 668 52 716 88 q 554 -1 621 16 q 407 -18 487 -18 q 304 -12 353 -18 q 215 3 256 -6 q 143 22 174 12 q 95 42 113 33 l 159 212 q 199 193 174 203 q 256 172 224 182 q 325 156 288 163 q 397 149 361 149 q 530 174 485 149 q 574 252 574 199 m 319 -138 q 345 -77 319 -100 q 412 -53 372 -53 q 493 -85 462 -53 q 525 -171 525 -117 q 509 -249 525 -216 q 470 -305 493 -282 q 423 -343 448 -328 q 379 -362 398 -357 l 332 -283 q 371 -262 351 -276 q 393 -220 390 -248 q 342 -201 366 -222 q 319 -138 319 -180 z "},"ș":{"ha":541,"x_min":34,"x_max":507,"o":"m 83 171 q 126 146 105 157 q 168 129 146 136 q 212 118 189 121 q 262 115 235 115 q 321 131 304 115 q 338 170 338 146 q 326 207 338 193 q 295 231 313 221 q 253 247 276 240 q 210 260 231 253 q 156 282 184 268 q 104 320 127 297 q 66 377 81 343 q 51 456 51 410 q 68 541 51 504 q 116 602 85 577 q 192 640 147 627 q 290 652 236 652 q 341 650 317 652 q 388 643 366 648 q 434 629 411 637 q 484 610 458 621 l 448 482 q 374 508 412 496 q 293 519 336 519 q 240 505 259 519 q 221 463 221 491 q 234 426 221 439 q 267 404 247 412 q 310 390 286 395 q 355 377 334 384 q 412 353 385 368 q 460 317 439 339 q 494 265 481 296 q 507 193 507 235 q 492 108 507 146 q 448 41 478 69 q 371 -2 418 14 q 258 -18 323 -18 q 128 -2 186 -18 q 34 35 71 14 l 83 171 m 165 -138 q 192 -77 165 -100 q 258 -53 218 -53 q 340 -85 309 -53 q 372 -171 372 -117 q 356 -249 372 -216 q 317 -305 340 -282 q 270 -343 294 -328 q 226 -362 245 -357 l 178 -283 q 217 -262 198 -276 q 239 -220 237 -248 q 189 -201 213 -222 q 165 -138 165 -180 z "},"Ț":{"ha":926,"x_min":47,"x_max":879,"o":"m 879 749 l 560 749 l 560 0 l 366 0 l 366 749 l 47 749 l 47 920 l 879 920 l 879 749 m 364 -138 q 391 -77 364 -100 q 457 -53 417 -53 q 539 -85 507 -53 q 570 -171 570 -117 q 554 -249 570 -216 q 516 -305 538 -282 q 468 -343 493 -328 q 425 -362 444 -357 l 377 -283 q 416 -262 397 -276 q 438 -220 435 -248 q 388 -201 412 -222 q 364 -138 364 -180 z "},"ț":{"ha":463,"x_min":14,"x_max":456,"o":"m 14 635 l 109 635 l 109 779 l 279 823 l 279 635 l 435 635 l 435 494 l 279 494 l 279 267 q 281 202 279 229 q 292 160 284 176 q 314 137 300 144 q 351 130 328 130 q 373 132 362 130 q 395 138 385 134 q 413 145 405 141 q 426 153 421 149 l 456 22 q 433 9 449 16 q 396 -4 417 2 q 351 -15 375 -11 q 303 -20 327 -20 q 222 -8 258 -20 q 161 27 186 3 q 122 88 136 51 q 109 176 109 125 l 109 494 l 14 494 l 14 635 m 182 -138 q 208 -77 182 -100 q 275 -53 235 -53 q 356 -85 325 -53 q 388 -171 388 -117 q 372 -249 388 -216 q 333 -305 356 -282 q 286 -343 311 -328 q 242 -362 261 -357 l 195 -283 q 234 -262 214 -276 q 256 -220 253 -248 q 205 -201 229 -222 q 182 -138 182 -180 z "},"ȷ":{"ha":463,"x_min":3,"x_max":288,"o":"m 119 635 l 288 635 l 288 -24 q 241 -202 288 -140 q 89 -263 194 -263 q 3 -254 49 -263 l 3 -113 q 62 -108 39 -117 q 98 -82 85 -100 q 115 -37 111 -64 q 119 24 119 -11 l 119 635 z "},"ʼ":{"ha":463,"x_min":119,"x_max":330,"o":"m 119 847 q 147 911 119 886 q 217 935 175 935 q 300 902 269 935 q 330 819 330 869 q 312 726 330 763 q 269 665 294 688 q 216 627 243 641 q 170 608 189 613 l 123 686 q 174 714 153 696 q 197 762 195 732 q 144 782 170 760 q 119 847 119 804 z "},"ˆ":{"ha":463,"x_min":-1,"x_max":465,"o":"m 180 987 l 300 987 l 465 741 l 321 741 l 265 831 l 235 887 l 201 832 l 133 741 l -1 741 l 180 987 z "},"ˇ":{"ha":463,"x_min":-1,"x_max":465,"o":"m -1 1015 l 133 1015 l 201 923 l 235 868 l 265 924 l 321 1015 l 465 1015 l 300 768 l 180 768 l -1 1015 z "},"˘":{"ha":463,"x_min":0,"x_max":463,"o":"m 84 956 q 150 899 115 920 q 237 878 186 878 q 320 898 286 878 q 378 956 353 918 l 463 922 q 435 859 453 890 q 389 802 417 827 q 322 762 361 777 q 235 746 284 746 q 91 789 148 746 q 0 913 33 831 l 84 956 z "},"˙":{"ha":463,"x_min":113,"x_max":351,"o":"m 113 865 q 122 903 113 886 q 146 933 131 921 q 183 953 162 946 q 229 960 204 960 q 279 953 256 960 q 317 933 301 946 q 342 903 333 921 q 351 865 351 886 q 317 793 351 818 q 229 768 284 768 q 183 775 204 768 q 146 793 162 781 q 122 824 131 806 q 113 865 113 842 z "},"˚":{"ha":463,"x_min":71,"x_max":391,"o":"m 71 873 q 111 966 71 928 q 230 1004 151 1004 q 348 970 305 1004 q 391 873 391 937 q 379 825 391 848 q 348 785 368 802 q 297 756 328 767 q 230 746 267 746 q 113 782 154 746 q 71 873 71 817 m 166 873 q 185 839 166 851 q 230 827 204 827 q 278 839 259 827 q 298 873 298 850 q 277 911 298 899 q 230 924 256 924 q 185 912 204 924 q 166 873 166 900 z "},"˛":{"ha":463,"x_min":60,"x_max":393,"o":"m 332 5 q 262 -37 286 -12 q 239 -98 237 -63 q 257 -142 239 -124 q 307 -159 275 -159 q 335 -157 321 -159 q 365 -144 348 -154 l 393 -229 q 324 -261 370 -245 q 224 -277 278 -277 q 102 -241 144 -277 q 60 -149 60 -206 q 101 -58 60 -98 q 209 5 142 -18 l 332 5 z "},"˜":{"ha":463,"x_min":-11,"x_max":473,"o":"m -11 889 q 70 959 33 939 q 142 979 108 979 q 197 969 170 979 q 251 948 224 960 q 304 927 277 937 q 361 918 331 918 q 450 952 404 918 l 473 854 q 397 792 433 810 q 330 774 362 774 q 272 785 299 774 q 218 806 245 795 q 162 827 191 817 q 102 837 134 837 q 58 829 80 837 q 9 801 35 822 l -11 889 z "},"˝":{"ha":463,"x_min":5,"x_max":505,"o":"m 56 969 l 223 969 l 223 951 l 111 797 l 5 797 l 56 969 m 324 969 l 505 969 l 505 951 l 328 797 l 218 797 l 324 969 z "},"́":{"ha":0,"x_min":-338,"x_max":-73,"o":"m -259 958 l -73 958 l -73 920 l -239 749 l -338 749 l -259 958 z "},"Δ":{"ha":871,"x_min":27,"x_max":844,"o":"m 27 0 l 27 99 l 378 926 l 490 926 l 844 99 l 844 0 l 27 0 m 237 163 l 631 163 l 471 541 l 433 642 l 429 642 l 391 540 l 237 163 z "},"Ω":{"ha":1112,"x_min":83,"x_max":1029,"o":"m 83 154 l 235 154 l 354 151 l 354 174 l 290 191 q 210 237 247 208 q 145 307 172 266 q 101 402 117 349 q 85 524 85 456 q 119 692 85 616 q 214 823 153 768 q 363 907 276 878 q 556 937 450 937 q 754 906 667 937 q 903 820 842 875 q 995 688 963 764 q 1027 520 1027 611 q 1010 400 1027 453 q 965 307 993 347 q 901 239 937 267 q 827 193 865 211 l 757 174 l 757 151 l 879 154 l 1029 154 l 1029 0 l 601 0 l 601 288 q 677 308 638 293 q 748 349 716 322 q 801 418 780 376 q 821 517 821 459 q 807 606 821 562 q 762 686 793 650 q 680 743 731 721 q 555 764 629 764 q 359 701 427 764 q 292 513 292 637 q 311 415 292 456 q 361 347 330 374 q 432 306 393 320 q 511 288 471 292 l 511 0 l 83 0 l 83 154 z "},"μ":{"ha":787,"x_min":95,"x_max":720,"o":"m 264 604 l 264 283 q 292 167 264 207 q 386 127 319 127 q 480 156 448 127 q 530 241 513 186 l 530 604 l 699 604 l 699 197 q 703 97 699 146 q 720 0 707 47 l 594 0 l 552 96 l 547 96 q 475 14 517 43 q 374 -15 433 -15 q 300 2 331 -15 q 243 49 270 19 l 237 49 l 265 -81 l 265 -249 l 95 -249 l 95 604 l 264 604 z "},"π":{"ha":761,"x_min":0,"x_max":739,"o":"m 640 197 q 651 149 640 163 q 682 134 663 134 q 701 137 695 134 q 720 142 707 139 l 739 28 q 714 17 726 23 q 688 6 703 11 q 653 -3 673 1 q 603 -7 633 -7 q 547 4 570 -7 q 508 35 523 15 q 485 81 492 54 q 477 142 477 109 l 477 463 l 330 463 l 330 0 l 163 0 l 163 463 q 134 456 145 461 q 115 444 122 450 q 104 431 108 437 q 97 420 100 425 l 0 490 q 23 537 9 516 q 55 573 37 558 q 99 596 74 588 q 159 604 125 604 l 728 604 l 728 463 l 640 463 l 640 197 z "},"Ё":{"ha":926,"x_min":142,"x_max":822,"o":"m 142 920 l 816 920 l 816 749 l 337 749 l 337 549 l 779 549 l 779 378 l 337 378 l 337 171 l 822 171 l 822 0 l 142 0 l 142 920 m 222 1075 q 248 1132 222 1111 q 331 1154 273 1154 q 412 1132 386 1154 q 437 1075 437 1111 q 412 1021 437 1041 q 331 1000 386 1000 q 248 1021 273 1000 q 222 1075 222 1041 m 528 1075 q 553 1132 528 1111 q 634 1154 579 1154 q 718 1132 692 1154 q 743 1075 743 1111 q 718 1021 743 1041 q 634 1000 692 1000 q 553 1021 579 1000 q 528 1075 528 1041 z "},"Ђ":{"ha":1111,"x_min":27,"x_max":1050,"o":"m 513 0 l 318 0 l 318 749 l 27 749 l 27 920 l 807 920 l 807 749 l 513 749 l 513 575 q 543 583 524 578 q 587 592 562 588 q 642 600 612 597 q 705 603 671 603 q 771 600 738 603 q 837 588 805 596 q 898 566 869 580 q 953 530 928 551 q 1023 438 996 494 q 1050 304 1050 382 q 1027 162 1050 221 q 961 65 1005 103 q 852 9 918 27 q 703 -9 787 -9 q 666 -8 684 -9 q 633 -7 648 -8 q 608 -6 618 -7 q 592 -4 597 -5 l 592 164 q 650 162 631 162 q 681 161 669 161 q 746 168 716 161 q 798 190 776 175 q 831 231 819 205 q 844 292 844 256 q 828 361 844 334 q 786 405 812 389 q 726 426 760 420 q 656 432 692 432 q 621 430 641 432 q 582 426 602 429 q 543 418 562 422 q 513 408 525 414 l 513 0 z "},"Ѓ":{"ha":884,"x_min":149,"x_max":823,"o":"m 823 749 l 344 749 l 344 0 l 149 0 l 149 920 l 823 920 l 823 749 m 541 1163 l 766 1163 l 766 1122 l 538 1008 l 391 1008 l 541 1163 z "},"Є":{"ha":942,"x_min":78,"x_max":885,"o":"m 781 548 l 781 394 l 288 394 q 332 282 302 328 q 404 207 361 236 q 499 165 446 178 q 610 153 551 153 q 676 157 643 153 q 739 170 709 162 q 795 188 770 178 q 840 208 821 198 l 885 46 q 810 16 850 28 q 729 -4 770 3 q 646 -15 688 -12 q 568 -18 605 -18 q 450 -7 509 -18 q 336 30 391 5 q 235 93 282 54 q 153 184 188 131 q 98 306 118 237 q 78 460 78 374 q 114 658 78 570 q 215 808 151 746 q 369 904 279 870 q 566 937 458 937 q 651 933 608 937 q 733 922 694 929 q 807 905 772 915 q 870 884 842 895 l 832 722 q 716 754 779 741 q 581 767 652 767 q 485 755 530 767 q 401 716 439 743 q 334 649 363 690 q 291 548 306 607 l 781 548 z "},"Ѕ":{"ha":772,"x_min":95,"x_max":769,"o":"m 574 252 q 559 298 574 279 q 517 334 543 318 q 455 362 490 349 q 381 388 420 375 q 287 426 334 404 q 202 480 240 448 q 141 558 165 513 q 117 665 117 604 q 141 785 117 734 q 210 870 165 836 q 316 921 254 904 q 454 937 378 937 q 618 922 542 937 q 747 880 696 907 l 685 717 q 644 736 669 726 q 589 753 619 745 q 523 765 558 760 q 450 770 487 770 q 348 747 384 770 q 312 683 312 724 q 322 644 312 661 q 350 614 332 627 q 390 590 368 600 q 438 570 413 579 q 490 552 464 561 q 540 532 516 543 q 624 491 583 514 q 697 437 665 468 q 749 366 730 406 q 769 275 769 326 q 743 143 769 199 q 668 52 716 88 q 554 -1 621 16 q 407 -18 487 -18 q 304 -12 353 -18 q 215 3 256 -6 q 143 22 174 12 q 95 42 113 33 l 159 212 q 199 193 174 203 q 256 172 224 182 q 325 156 288 163 q 397 149 361 149 q 530 174 485 149 q 574 252 574 199 z "},"І":{"ha":541,"x_min":64,"x_max":476,"o":"m 174 814 l 64 814 l 64 920 l 476 920 l 476 814 l 368 814 l 368 105 l 476 105 l 476 0 l 64 0 l 64 105 l 174 105 l 174 814 z "},"Ї":{"ha":541,"x_min":10,"x_max":532,"o":"m 174 814 l 64 814 l 64 920 l 476 920 l 476 814 l 368 814 l 368 105 l 476 105 l 476 0 l 64 0 l 64 105 l 174 105 l 174 814 m 10 1075 q 36 1132 10 1111 q 119 1154 62 1154 q 200 1132 174 1154 q 226 1075 226 1111 q 200 1021 226 1041 q 119 1000 174 1000 q 36 1021 62 1000 q 10 1075 10 1041 m 316 1075 q 342 1132 316 1111 q 422 1154 368 1154 q 506 1132 480 1154 q 532 1075 532 1111 q 506 1021 532 1041 q 422 1000 480 1000 q 342 1021 368 1000 q 316 1075 316 1041 z "},"Ј":{"ha":694,"x_min":30,"x_max":559,"o":"m 364 920 l 559 920 l 559 263 q 536 141 559 198 q 469 45 513 85 q 426 17 450 28 q 373 -3 401 5 q 315 -14 345 -11 q 257 -18 286 -18 q 203 -15 231 -18 q 146 -5 176 -12 q 88 15 117 2 q 30 49 58 28 l 94 206 q 141 177 119 187 q 179 161 162 166 q 211 155 197 156 q 237 154 225 154 q 293 164 269 154 q 333 193 317 174 q 357 237 349 211 q 364 293 364 262 l 364 920 z "},"Љ":{"ha":1393,"x_min":34,"x_max":1334,"o":"m 654 749 l 450 749 q 437 523 444 623 q 417 343 430 423 q 384 201 404 263 q 331 90 363 139 q 284 41 310 60 q 231 10 258 21 q 178 -6 204 -1 q 129 -10 151 -10 q 81 -5 104 -10 q 34 10 58 -1 l 56 173 q 71 170 63 171 q 88 168 79 168 q 134 178 111 168 q 174 213 157 188 q 211 296 195 241 q 238 436 227 350 q 257 641 250 522 q 267 920 264 761 l 848 920 l 848 593 q 871 596 855 594 q 906 599 886 597 q 945 602 925 601 q 981 603 965 603 q 1116 590 1052 603 q 1229 543 1180 576 q 1305 451 1277 509 q 1334 304 1334 393 q 1225 67 1334 147 q 1168 32 1198 47 q 1102 7 1138 17 q 1025 -8 1067 -3 q 935 -13 983 -13 q 882 -12 916 -13 q 809 -9 848 -12 q 728 -3 769 -7 q 654 9 687 1 l 654 749 m 848 164 q 890 160 864 161 q 944 158 916 158 q 1018 164 984 158 q 1076 187 1051 171 q 1114 230 1100 203 q 1128 298 1128 257 q 1113 368 1128 341 q 1074 408 1099 394 q 1016 427 1049 422 q 944 432 982 432 q 920 431 934 432 q 891 428 905 429 q 866 424 878 426 q 848 421 854 422 l 848 164 z "},"Њ":{"ha":1392,"x_min":136,"x_max":1344,"o":"m 650 395 l 330 395 l 330 0 l 136 0 l 136 920 l 330 920 l 330 566 l 650 566 l 650 920 l 845 920 l 845 578 q 868 581 852 579 q 902 584 883 583 q 941 587 921 586 q 979 589 962 589 q 1116 576 1050 589 q 1232 531 1181 564 q 1314 442 1283 498 q 1344 297 1344 385 q 1317 159 1344 218 q 1237 63 1289 101 q 1107 6 1184 24 q 932 -13 1031 -13 q 878 -12 911 -13 q 804 -8 844 -11 q 724 -3 765 -6 q 650 4 684 0 l 650 395 m 845 164 q 886 160 861 161 q 941 158 911 158 q 1019 163 983 158 q 1082 184 1055 169 q 1123 224 1108 199 q 1137 289 1137 249 q 1122 354 1137 329 q 1080 393 1107 379 q 1018 413 1054 408 q 941 418 982 418 q 917 416 930 418 q 888 413 903 415 q 862 410 874 412 q 845 406 850 408 l 845 164 z "},"Ћ":{"ha":1111,"x_min":27,"x_max":1033,"o":"m 513 0 l 318 0 l 318 749 l 27 749 l 27 920 l 807 920 l 807 749 l 513 749 l 513 526 q 611 564 549 548 q 760 581 674 581 q 869 566 819 581 q 955 521 918 551 q 1012 443 991 491 q 1033 327 1033 394 l 1033 0 l 838 0 l 838 263 q 804 378 838 338 q 694 418 770 418 q 589 406 639 418 q 513 373 540 395 l 513 0 z "},"Ќ":{"ha":1007,"x_min":115,"x_max":1037,"o":"m 398 389 l 309 389 l 309 0 l 115 0 l 115 920 l 309 920 l 309 515 l 388 535 l 755 920 l 998 920 l 608 532 l 553 482 l 611 429 l 1037 0 l 775 0 l 398 389 m 519 1163 l 745 1163 l 745 1122 l 517 1008 l 370 1008 l 519 1163 z "},"Ў":{"ha":1019,"x_min":44,"x_max":983,"o":"m 484 532 l 530 429 l 538 429 l 583 538 l 779 920 l 983 920 l 687 360 q 648 289 671 329 q 603 210 626 249 q 558 137 580 170 q 522 85 537 103 q 436 14 482 37 q 328 -9 391 -9 q 248 2 287 -9 q 181 28 210 12 l 230 184 q 278 168 253 174 q 325 161 302 161 q 389 184 359 161 q 438 254 419 206 l 44 920 l 272 920 l 484 532 m 417 1185 q 452 1127 425 1145 q 524 1110 479 1110 q 630 1184 618 1110 l 789 1162 q 706 1039 773 1076 q 522 1001 640 1001 q 416 1008 465 1001 q 331 1034 368 1016 q 271 1082 294 1053 q 241 1158 248 1112 l 417 1185 z "},"Џ":{"ha":1080,"x_min":142,"x_max":938,"o":"m 337 920 l 337 171 l 744 171 l 744 920 l 938 920 l 938 0 l 628 0 l 607 -229 l 483 -229 l 453 0 l 142 0 l 142 920 l 337 920 z "},"А":{"ha":1003,"x_min":27,"x_max":976,"o":"m 687 195 l 305 195 l 222 0 l 27 0 l 429 926 l 572 926 l 976 0 l 770 0 l 687 195 m 371 349 l 622 349 l 541 541 l 500 660 l 494 660 l 452 540 l 371 349 z "},"Б":{"ha":918,"x_min":142,"x_max":848,"o":"m 142 920 l 772 920 l 772 749 l 337 749 l 337 572 q 367 575 349 574 q 405 578 385 577 q 445 581 425 580 q 481 582 465 582 q 629 565 562 582 q 745 513 696 549 q 821 421 793 477 q 848 284 848 364 q 819 151 848 207 q 738 58 790 95 q 612 4 686 22 q 448 -13 538 -13 q 384 -12 423 -13 q 302 -8 345 -11 q 216 -1 258 -5 q 142 9 174 3 l 142 920 m 456 144 q 527 152 493 144 q 586 176 560 159 q 627 219 612 193 q 642 282 642 245 q 626 353 642 326 q 583 396 610 380 q 520 418 556 412 q 443 425 484 425 q 415 424 430 425 q 386 421 400 422 q 359 418 372 420 q 337 415 346 416 l 337 151 q 359 149 345 150 q 390 146 373 147 q 424 145 406 145 q 456 144 441 144 z "},"В":{"ha":926,"x_min":142,"x_max":857,"o":"m 827 703 q 817 635 827 669 q 786 573 807 602 q 730 523 764 544 q 648 492 696 501 l 648 485 q 729 465 691 481 q 796 421 768 449 q 841 352 825 393 q 857 258 857 312 q 823 135 857 186 q 736 51 790 84 q 612 3 682 18 q 471 -13 543 -13 q 407 -13 447 -13 q 320 -11 366 -13 q 227 -5 274 -9 q 142 6 180 -1 l 142 913 q 207 921 170 917 q 286 927 244 924 q 372 931 328 929 q 458 932 416 932 q 548 928 503 932 q 634 914 593 924 q 710 887 675 904 q 771 845 745 870 q 812 784 797 819 q 827 703 827 749 m 469 144 q 538 151 505 144 q 597 173 572 158 q 638 211 623 188 q 653 268 653 235 q 635 335 653 310 q 587 372 616 359 q 521 388 557 385 q 448 391 485 391 l 330 391 l 330 153 q 353 148 336 149 q 391 145 370 146 q 433 144 412 144 q 469 144 454 144 m 406 536 q 429 536 416 536 q 453 537 441 536 q 477 538 466 537 q 498 540 489 538 q 591 587 554 557 q 629 667 629 616 q 614 722 629 701 q 573 755 598 743 q 516 771 548 767 q 453 774 485 774 q 382 773 416 774 q 330 770 348 772 l 330 536 l 406 536 z "},"Г":{"ha":884,"x_min":149,"x_max":823,"o":"m 823 749 l 344 749 l 344 0 l 149 0 l 149 920 l 823 920 l 823 749 z "},"Д":{"ha":956,"x_min":27,"x_max":942,"o":"m 942 -163 l 804 -163 l 783 0 l 186 0 l 165 -163 l 27 -163 l 27 171 l 120 171 q 139 205 127 180 q 167 272 152 230 q 197 374 182 314 q 223 515 212 435 q 240 695 235 595 q 243 920 246 796 l 817 920 l 817 171 l 942 171 l 942 -163 m 621 171 l 621 749 l 421 749 q 413 608 419 684 q 396 455 408 532 q 364 303 384 377 q 315 171 345 230 l 621 171 z "},"Е":{"ha":926,"x_min":142,"x_max":822,"o":"m 142 920 l 816 920 l 816 749 l 337 749 l 337 549 l 779 549 l 779 378 l 337 378 l 337 171 l 822 171 l 822 0 l 142 0 l 142 920 z "},"Ж":{"ha":1373,"x_min":14,"x_max":1359,"o":"m 587 920 l 772 920 l 772 513 l 836 532 l 1099 920 l 1319 920 l 1031 516 l 997 470 l 1046 414 l 1359 0 l 1124 0 l 840 395 l 772 395 l 772 0 l 587 0 l 587 411 l 527 393 l 242 0 l 14 0 l 326 401 l 370 454 l 328 503 l 30 920 l 258 920 l 519 529 l 587 529 l 587 920 z "},"З":{"ha":733,"x_min":26,"x_max":679,"o":"m 170 404 l 170 551 l 191 551 q 243 552 218 551 q 294 554 269 552 q 341 563 318 557 q 386 579 364 568 q 428 614 412 593 q 443 663 443 635 q 431 713 443 693 q 400 743 418 733 q 354 760 379 755 q 293 764 329 764 q 232 760 262 764 q 177 747 203 755 q 130 731 151 740 q 94 714 109 722 l 45 880 q 87 896 60 886 q 151 914 115 905 q 231 929 188 923 q 321 935 275 935 q 443 925 384 935 q 548 888 502 914 q 621 817 593 861 q 649 704 649 772 q 605 574 649 627 q 484 495 561 522 l 484 488 q 628 415 576 473 q 679 263 679 358 q 646 136 679 189 q 560 49 614 83 q 438 -2 507 15 q 298 -18 369 -18 q 209 -14 250 -18 q 134 -1 168 -9 q 73 16 100 7 q 26 35 45 26 l 76 203 q 133 181 106 191 q 186 165 159 172 q 240 156 213 159 q 300 153 268 153 q 361 159 330 153 q 417 180 392 165 q 457 219 441 195 q 473 278 473 243 q 468 317 473 299 q 448 349 462 334 q 413 374 435 363 q 358 391 391 385 q 274 402 314 400 q 191 404 233 404 l 170 404 z "},"И":{"ha":1080,"x_min":142,"x_max":938,"o":"m 743 507 l 751 617 l 747 617 l 680 508 l 286 0 l 142 0 l 142 920 l 336 920 l 336 425 l 325 309 l 332 309 l 403 422 l 791 920 l 938 920 l 938 0 l 743 0 l 743 507 z "},"Й":{"ha":1080,"x_min":142,"x_max":938,"o":"m 743 507 l 751 617 l 747 617 l 680 508 l 286 0 l 142 0 l 142 920 l 336 920 l 336 425 l 325 309 l 332 309 l 403 422 l 791 920 l 938 920 l 938 0 l 743 0 l 743 507 m 462 1185 q 497 1127 469 1145 q 568 1110 524 1110 q 675 1184 663 1110 l 834 1162 q 751 1039 818 1076 q 567 1001 684 1001 q 461 1008 509 1001 q 376 1034 412 1016 q 316 1082 339 1053 q 286 1158 293 1112 l 462 1185 z "},"К":{"ha":1007,"x_min":142,"x_max":996,"o":"m 425 389 l 336 389 l 336 0 l 142 0 l 142 920 l 336 920 l 336 515 l 414 535 l 723 920 l 966 920 l 635 532 l 581 482 l 638 429 l 996 0 l 737 0 l 425 389 z "},"Л":{"ha":1035,"x_min":41,"x_max":899,"o":"m 705 749 l 464 749 q 449 523 457 623 q 426 343 440 422 q 391 201 412 263 q 338 90 370 139 q 290 41 316 60 q 237 10 264 21 q 184 -6 210 -1 q 136 -10 158 -10 q 85 -5 109 -10 q 41 10 62 0 l 62 173 q 96 168 76 168 q 140 179 118 168 q 180 213 163 189 q 218 296 201 241 q 248 435 235 350 q 269 641 261 521 q 280 920 277 760 l 899 920 l 899 0 l 705 0 l 705 749 z "},"М":{"ha":1311,"x_min":142,"x_max":1168,"o":"m 974 468 l 983 625 l 978 625 l 918 521 l 683 164 l 623 164 l 374 522 l 317 623 l 313 623 l 326 469 l 326 0 l 142 0 l 142 920 l 319 920 l 612 495 l 662 414 l 668 414 l 712 498 l 994 920 l 1168 920 l 1168 0 l 974 0 l 974 468 z "},"Н":{"ha":1080,"x_min":142,"x_max":938,"o":"m 743 380 l 336 380 l 336 0 l 142 0 l 142 920 l 336 920 l 336 550 l 743 550 l 743 920 l 938 920 l 938 0 l 743 0 l 743 380 z "},"О":{"ha":1080,"x_min":78,"x_max":1002,"o":"m 78 458 q 111 662 78 572 q 205 812 144 751 q 351 905 266 873 q 539 937 435 937 q 735 903 649 937 q 880 805 821 868 q 971 654 940 742 q 1002 460 1002 566 q 971 264 1002 353 q 880 113 940 176 q 735 16 821 50 q 539 -19 649 -19 q 351 13 435 -19 q 205 106 266 45 q 111 256 144 168 q 78 458 78 345 m 283 460 q 302 322 283 380 q 354 226 320 264 q 434 170 387 188 q 539 151 481 151 q 653 175 605 151 q 733 240 702 199 q 780 338 765 281 q 795 460 795 395 q 780 581 795 525 q 733 679 765 637 q 653 743 702 720 q 539 767 605 767 q 434 749 481 767 q 354 692 387 730 q 302 596 320 654 q 283 460 283 538 z "},"П":{"ha":1080,"x_min":145,"x_max":935,"o":"m 741 749 l 340 749 l 340 0 l 145 0 l 145 920 l 935 920 l 935 0 l 741 0 l 741 749 z "},"Р":{"ha":848,"x_min":125,"x_max":793,"o":"m 125 910 q 254 927 184 921 q 395 932 323 932 q 474 929 434 932 q 553 917 515 925 q 627 893 592 908 q 689 857 661 879 q 764 763 736 821 q 793 625 793 705 q 761 479 793 540 q 676 379 729 418 q 554 322 623 340 q 412 304 485 304 q 392 305 405 304 q 366 306 380 305 q 340 308 353 307 q 319 310 327 309 l 319 0 l 125 0 l 125 910 m 408 762 q 357 760 379 762 q 319 755 335 758 l 319 482 q 335 479 325 481 q 357 477 346 478 q 380 476 369 476 q 397 475 391 475 q 470 482 435 475 q 530 505 504 488 q 571 550 555 522 q 586 621 586 578 q 572 688 586 661 q 534 732 558 715 q 477 755 510 748 q 408 762 445 762 z "},"С":{"ha":1003,"x_min":82,"x_max":928,"o":"m 928 70 q 843 30 886 46 q 756 2 799 13 q 675 -14 714 -9 q 604 -18 636 -18 q 510 -15 559 -18 q 413 0 461 -11 q 320 32 365 12 q 237 85 275 52 q 174 153 202 115 q 125 238 145 191 q 93 340 104 284 q 82 461 82 395 q 117 652 82 565 q 222 808 152 739 q 298 866 256 842 q 386 906 339 890 q 484 929 433 922 q 589 937 535 937 q 755 919 675 937 q 914 863 835 901 l 858 697 q 729 749 793 732 q 596 767 664 767 q 477 751 534 767 q 375 693 419 736 q 312 595 336 654 q 288 461 288 535 q 313 321 288 384 q 382 220 338 258 q 434 185 408 199 q 489 165 460 172 q 550 155 517 158 q 619 153 582 153 q 685 158 652 153 q 751 174 718 164 q 815 198 784 184 q 873 229 846 212 l 928 70 z "},"Т":{"ha":926,"x_min":47,"x_max":879,"o":"m 879 749 l 560 749 l 560 0 l 366 0 l 366 749 l 47 749 l 47 920 l 879 920 l 879 749 z "},"У":{"ha":1019,"x_min":44,"x_max":983,"o":"m 484 532 l 530 429 l 538 429 l 583 538 l 779 920 l 983 920 l 687 360 q 648 289 671 329 q 603 210 626 249 q 558 137 580 170 q 522 85 537 103 q 436 14 482 37 q 328 -9 391 -9 q 248 2 287 -9 q 181 28 210 12 l 230 184 q 278 168 253 174 q 325 161 302 161 q 389 184 359 161 q 438 254 419 206 l 44 920 l 272 920 l 484 532 z "},"Ф":{"ha":1193,"x_min":53,"x_max":1140,"o":"m 499 100 q 441 95 472 97 q 377 93 410 93 q 251 115 310 93 q 148 183 192 138 q 78 298 104 229 q 53 460 53 367 q 78 619 53 548 q 150 739 104 690 q 261 814 197 788 q 404 841 326 841 q 451 839 425 841 q 499 833 477 838 l 499 946 l 692 946 l 692 830 q 752 838 720 836 q 817 841 784 841 q 944 817 884 841 q 1046 747 1003 793 q 1115 632 1090 701 q 1140 473 1140 563 q 1112 310 1140 381 q 1037 191 1084 239 q 927 118 989 143 q 795 93 865 93 q 769 94 783 93 q 741 95 755 94 q 714 98 727 96 q 692 102 701 100 l 692 -26 l 499 -26 l 499 100 m 768 687 q 726 686 748 687 q 685 680 705 684 l 685 250 q 716 247 697 247 q 753 247 735 247 q 826 260 791 247 q 886 300 861 273 q 927 370 912 328 q 942 471 942 412 q 895 630 942 574 q 840 673 872 659 q 768 687 807 687 m 430 247 q 446 247 436 247 q 466 248 455 248 q 488 250 477 249 q 508 254 499 252 l 508 683 q 474 686 492 685 q 436 687 455 687 q 365 674 398 687 q 305 633 331 661 q 264 563 279 606 q 250 461 250 520 q 299 302 250 357 q 357 260 324 274 q 430 247 391 247 z "},"Х":{"ha":1003,"x_min":37,"x_max":966,"o":"m 372 467 l 66 920 l 301 920 l 469 660 l 511 590 l 555 660 l 736 920 l 951 920 l 628 479 l 966 0 l 733 0 l 537 279 l 490 347 l 444 279 l 252 0 l 37 0 l 372 467 z "},"Ц":{"ha":1080,"x_min":142,"x_max":1040,"o":"m 1040 -163 l 901 -163 l 880 0 l 142 0 l 142 920 l 336 920 l 336 171 l 718 171 l 718 920 l 911 920 l 911 171 l 1040 171 l 1040 -163 z "},"Ч":{"ha":1019,"x_min":113,"x_max":877,"o":"m 307 920 l 307 635 q 319 564 307 594 q 354 515 332 534 q 408 487 376 496 q 478 477 439 477 q 533 481 505 477 q 588 490 562 484 q 638 504 614 496 q 682 523 663 513 l 682 920 l 877 920 l 877 0 l 682 0 l 682 368 q 564 331 633 346 q 406 315 494 315 q 293 330 346 315 q 199 376 239 345 q 136 455 159 407 q 113 572 113 504 l 113 920 l 307 920 z "},"Ш":{"ha":1525,"x_min":149,"x_max":1376,"o":"m 149 0 l 149 920 l 343 920 l 343 171 l 665 171 l 665 920 l 860 920 l 860 171 l 1182 171 l 1182 920 l 1376 920 l 1376 0 l 149 0 z "},"Щ":{"ha":1525,"x_min":142,"x_max":1497,"o":"m 142 0 l 142 920 l 336 920 l 336 171 l 655 171 l 655 920 l 850 920 l 850 171 l 1168 171 l 1168 920 l 1362 920 l 1362 171 l 1497 171 l 1497 -163 l 1359 -163 l 1337 0 l 142 0 z "},"Ъ":{"ha":1063,"x_min":46,"x_max":995,"o":"m 281 749 l 46 749 l 46 920 l 475 920 l 475 593 q 497 596 482 594 q 532 599 513 597 q 571 602 551 601 q 607 603 591 603 q 673 600 637 603 q 744 588 709 596 q 814 568 780 581 q 875 537 848 555 q 923 495 901 519 q 961 441 945 471 q 986 376 977 411 q 995 300 995 340 q 968 163 995 220 q 886 65 941 106 q 756 6 831 24 q 582 -13 681 -13 q 526 -12 563 -13 q 446 -9 490 -12 q 359 -2 403 -7 q 281 9 315 2 l 281 749 m 592 158 q 667 164 631 158 q 730 186 703 170 q 773 228 757 201 q 789 296 789 255 q 772 366 789 339 q 728 407 755 392 q 665 427 701 421 q 592 432 629 432 q 564 431 582 432 q 529 428 547 430 q 495 425 511 427 q 475 421 480 422 l 475 164 q 497 162 484 163 q 527 160 511 161 q 561 158 543 159 q 592 158 578 158 z "},"Ы":{"ha":1364,"x_min":152,"x_max":1212,"o":"m 1018 920 l 1212 920 l 1212 0 l 1018 0 l 1018 920 m 152 920 l 347 920 l 347 593 q 369 596 353 594 q 404 599 385 597 q 443 602 422 601 q 479 603 463 603 q 545 600 509 603 q 616 588 581 596 q 686 568 652 581 q 747 537 720 555 q 795 495 773 519 q 833 441 817 471 q 858 376 849 411 q 867 300 867 340 q 840 163 867 220 q 758 65 812 106 q 628 6 703 24 q 454 -13 553 -13 q 398 -12 435 -13 q 318 -9 361 -12 q 230 -2 275 -7 q 152 9 186 2 l 152 920 m 464 158 q 539 165 503 158 q 602 189 575 172 q 645 231 629 205 q 661 296 661 258 q 644 362 661 336 q 600 404 627 389 q 537 426 572 420 q 464 432 501 432 q 436 431 454 432 q 400 428 418 430 q 367 425 382 427 q 347 421 351 422 l 347 164 q 369 162 355 163 q 399 160 382 161 q 432 158 415 159 q 464 158 450 158 z "},"Ь":{"ha":918,"x_min":142,"x_max":857,"o":"m 142 920 l 337 920 l 337 593 q 359 596 344 594 q 394 599 375 597 q 433 602 413 601 q 469 603 453 603 q 535 600 500 603 q 607 588 571 596 q 676 568 642 581 q 737 537 710 555 q 786 495 764 519 q 824 441 808 471 q 848 376 840 411 q 857 300 857 340 q 830 163 857 220 q 748 65 803 106 q 618 6 694 24 q 444 -13 543 -13 q 388 -12 425 -13 q 308 -8 351 -11 q 221 -2 265 -6 q 142 9 176 2 l 142 920 m 448 158 q 524 164 487 158 q 589 186 561 170 q 634 228 617 201 q 651 296 651 255 q 633 366 651 339 q 587 407 616 392 q 522 427 558 421 q 448 432 485 432 q 420 431 437 432 q 387 428 404 430 q 356 425 370 427 q 337 421 342 422 l 337 164 q 358 162 345 163 q 386 160 370 161 q 417 158 401 159 q 448 158 433 158 z "},"Э":{"ha":942,"x_min":57,"x_max":864,"o":"m 214 544 l 669 544 q 640 633 661 593 q 583 704 618 674 q 498 750 547 734 q 389 767 450 767 q 234 750 304 767 q 105 702 165 734 l 63 864 q 144 896 101 882 q 232 919 188 909 q 318 932 276 928 q 397 937 361 937 q 516 926 458 937 q 626 892 574 916 q 721 832 677 869 q 797 743 765 795 q 846 622 828 690 q 864 467 864 553 q 825 251 864 342 q 719 100 787 159 q 560 11 652 40 q 363 -18 469 -18 q 280 -14 322 -18 q 197 -1 237 -9 q 121 18 157 7 q 57 43 85 29 l 108 210 q 161 187 132 197 q 224 169 191 176 q 294 157 258 161 q 367 153 330 153 q 472 166 422 153 q 562 208 522 179 q 630 281 602 236 q 670 390 659 326 l 214 390 l 214 544 z "},"Ю":{"ha":1564,"x_min":149,"x_max":1476,"o":"m 344 550 l 517 550 q 570 714 530 642 q 672 836 610 787 q 815 911 734 886 q 992 937 896 937 q 1195 903 1105 937 q 1348 805 1285 868 q 1443 654 1410 742 q 1476 460 1476 566 q 1443 264 1476 353 q 1348 113 1410 176 q 1196 16 1285 50 q 992 -19 1106 -19 q 812 7 895 -19 q 668 85 730 34 q 566 210 606 136 q 515 380 527 284 l 344 380 l 344 0 l 149 0 l 149 920 l 344 920 l 344 550 m 716 460 q 736 322 716 380 q 792 226 756 264 q 880 170 829 188 q 992 151 930 151 q 1114 175 1062 151 q 1200 240 1166 199 q 1252 338 1235 281 q 1269 460 1269 395 q 1252 581 1269 525 q 1200 679 1235 637 q 1114 743 1166 720 q 992 767 1062 767 q 880 749 931 767 q 793 692 829 730 q 736 596 756 654 q 716 460 716 538 z "},"Я":{"ha":1003,"x_min":38,"x_max":854,"o":"m 854 0 l 660 0 l 660 359 l 528 335 l 271 0 l 38 0 l 280 300 l 343 369 q 279 395 314 376 q 214 444 244 413 q 163 519 184 475 q 143 624 143 564 q 154 708 143 669 q 185 779 165 747 q 233 835 205 810 q 294 878 260 860 q 354 903 321 893 q 423 920 387 913 q 497 929 459 926 q 574 932 536 932 q 633 932 598 932 q 706 928 667 931 q 783 921 745 926 q 854 910 822 917 l 854 0 m 543 762 q 470 756 505 762 q 409 736 435 751 q 366 695 383 720 q 349 628 349 669 q 366 561 349 589 q 410 516 382 532 q 475 493 438 499 q 552 486 511 486 l 660 486 l 660 757 q 637 759 652 758 q 606 761 623 760 q 572 761 589 761 q 543 762 555 762 z "},"а":{"ha":694,"x_min":58,"x_max":630,"o":"m 100 594 q 172 621 138 611 q 239 637 206 631 q 304 645 271 643 q 374 646 338 646 q 487 630 441 646 q 561 585 533 614 q 602 514 589 555 q 614 422 614 473 q 609 300 614 360 q 604 172 604 239 q 610 82 604 125 q 630 -1 616 39 l 492 -1 l 465 93 l 450 93 q 408 43 431 63 q 359 12 385 23 q 306 -5 334 0 q 251 -9 279 -9 q 172 3 208 -9 q 111 41 136 16 q 72 101 85 66 q 58 183 58 137 q 81 288 58 245 q 150 357 105 331 q 228 385 184 376 q 322 393 273 393 q 344 393 330 393 q 374 390 358 392 q 409 386 391 389 q 444 378 427 382 q 447 402 446 391 q 448 422 448 412 q 441 460 448 445 q 423 486 435 475 q 388 504 412 497 q 332 511 364 511 q 278 507 303 511 q 230 497 253 503 q 186 483 208 491 q 144 466 165 475 l 100 594 m 314 125 q 358 132 337 125 q 396 151 378 139 q 426 177 413 162 q 446 208 438 192 l 446 279 q 424 284 436 281 q 399 289 412 287 q 373 292 386 291 q 348 294 359 294 q 293 285 315 294 q 257 263 271 277 q 237 233 243 250 q 231 200 231 216 q 252 143 231 161 q 314 125 273 125 z "},"б":{"ha":694,"x_min":43,"x_max":654,"o":"m 189 499 q 223 542 204 522 q 267 575 242 561 q 322 597 292 589 q 391 605 353 605 q 503 585 454 605 q 585 528 551 565 q 636 439 618 491 q 654 325 654 388 q 631 176 654 240 q 568 69 608 112 q 472 4 528 26 q 351 -18 416 -18 q 219 4 276 -18 q 122 75 161 27 q 63 197 83 123 q 43 372 43 271 q 58 560 43 481 q 100 693 73 638 q 162 782 126 747 q 239 836 197 816 q 325 864 280 855 q 414 878 370 873 q 529 893 484 885 q 596 920 574 902 l 602 773 q 559 752 585 760 q 505 742 534 745 q 449 736 477 738 q 398 734 420 735 q 305 715 345 730 q 237 672 265 701 q 194 602 210 644 q 176 499 179 559 l 189 499 m 218 296 q 225 230 218 261 q 249 175 233 198 q 289 137 264 151 q 347 123 313 123 q 407 137 381 123 q 449 176 432 151 q 473 233 465 200 q 481 302 481 265 q 473 366 481 336 q 448 418 465 396 q 408 452 432 439 q 351 464 383 464 q 288 450 313 464 q 247 413 262 436 q 224 359 231 389 q 218 296 218 329 z "},"в":{"ha":750,"x_min":102,"x_max":689,"o":"m 102 635 q 221 642 151 638 q 372 645 292 645 q 432 643 401 645 q 494 636 464 642 q 553 619 525 630 q 601 591 581 608 q 634 548 622 573 q 646 487 646 522 q 641 442 646 465 q 624 400 636 420 q 591 363 612 380 q 538 338 570 347 l 538 333 q 652 279 616 319 q 689 178 689 239 q 669 95 689 130 q 609 36 650 59 q 506 1 568 12 q 356 -11 443 -11 q 223 -7 288 -11 q 102 0 157 -4 l 102 635 m 267 129 q 319 123 292 125 q 372 122 347 122 q 418 124 393 122 q 464 134 443 126 q 500 157 486 142 q 514 199 514 172 q 500 241 514 226 q 467 264 487 256 q 424 274 447 272 q 382 276 401 276 l 267 276 l 267 129 m 384 376 q 458 394 433 376 q 483 444 483 413 q 477 473 483 460 q 458 494 472 486 q 422 507 445 503 q 366 512 400 512 q 337 511 352 512 q 309 510 322 511 q 285 509 296 509 q 267 507 274 508 l 267 376 l 384 376 z "},"г":{"ha":631,"x_min":109,"x_max":590,"o":"m 590 484 l 288 484 l 288 0 l 109 0 l 109 635 l 590 635 l 590 484 z "},"д":{"ha":703,"x_min":12,"x_max":696,"o":"m 696 -144 l 578 -144 l 556 0 l 153 0 l 130 -144 l 12 -144 l 12 150 l 81 150 q 114 234 100 189 q 137 338 128 280 q 151 469 146 396 q 155 635 155 542 l 610 635 l 610 150 l 696 150 l 696 -144 m 442 142 l 442 494 l 300 494 q 296 423 298 465 q 289 333 294 381 q 273 235 283 285 q 244 142 262 185 l 442 142 z "},"е":{"ha":616,"x_min":41,"x_max":579,"o":"m 559 41 q 467 -2 523 14 q 342 -18 412 -18 q 219 -1 273 -18 q 128 53 166 16 q 62 165 83 97 q 41 313 41 234 q 65 460 41 395 q 126 567 89 524 q 218 631 164 610 q 336 652 272 652 q 441 634 395 652 q 517 583 486 616 q 564 502 548 550 q 579 394 579 454 q 576 331 579 364 q 568 273 573 298 l 213 273 q 220 209 213 239 q 245 157 227 179 q 292 124 262 134 q 359 115 322 115 q 440 129 404 115 q 502 161 477 143 l 559 41 m 326 519 q 272 507 294 519 q 238 475 251 495 q 219 429 225 455 q 213 376 214 403 l 421 376 q 423 413 423 396 q 397 490 422 461 q 326 519 372 519 z "},"ж":{"ha":1007,"x_min":7,"x_max":1000,"o":"m 359 258 l 199 0 l 7 0 l 200 288 l 227 329 l 182 382 l 14 635 l 198 635 l 351 377 l 418 377 l 418 635 l 577 635 l 577 360 l 637 382 l 791 635 l 972 635 l 801 380 l 772 336 l 814 283 l 1000 0 l 804 0 l 644 263 l 577 263 l 577 0 l 418 0 l 418 279 l 359 258 z "},"з":{"ha":558,"x_min":26,"x_max":524,"o":"m 159 263 l 159 377 l 210 377 q 296 394 265 377 q 328 442 328 412 q 319 472 328 460 q 295 491 310 484 q 260 502 280 498 q 219 505 241 505 q 138 493 175 505 q 75 468 102 481 l 41 593 q 148 634 92 622 q 265 646 205 646 q 440 603 383 646 q 498 482 498 559 q 490 440 498 461 q 469 401 483 420 q 434 367 454 382 q 389 342 414 352 l 389 332 q 490 279 456 317 q 524 176 524 241 q 508 103 524 138 q 456 41 491 68 q 367 -1 421 15 q 239 -16 313 -16 q 172 -12 203 -16 q 114 0 140 -7 q 66 17 88 7 q 26 35 44 26 q 43 100 34 68 q 64 166 53 133 q 137 137 96 149 q 233 125 178 125 q 355 199 355 125 q 347 228 355 216 q 321 248 340 239 q 272 259 303 256 q 194 263 241 263 l 159 263 z "},"и":{"ha":800,"x_min":102,"x_max":699,"o":"m 529 286 l 534 374 l 460 288 l 203 0 l 102 0 l 102 635 l 271 635 l 271 336 l 268 249 l 339 336 l 597 635 l 699 635 l 699 0 l 529 0 l 529 286 z "},"й":{"ha":800,"x_min":102,"x_max":699,"o":"m 529 286 l 534 374 l 460 288 l 203 0 l 102 0 l 102 635 l 271 635 l 271 336 l 268 249 l 339 336 l 597 635 l 699 635 l 699 0 l 529 0 l 529 286 m 311 921 q 325 875 316 893 q 346 846 334 857 q 374 830 358 835 q 410 826 390 826 q 474 847 451 826 q 508 920 497 867 l 645 884 q 613 807 635 840 q 558 753 590 774 q 486 721 526 732 q 404 711 446 711 q 319 720 359 711 q 245 750 278 730 q 188 804 212 771 q 155 884 165 837 l 311 921 z "},"к":{"ha":800,"x_min":109,"x_max":780,"o":"m 351 263 l 278 263 l 278 0 l 109 0 l 109 635 l 278 635 l 278 360 l 345 383 l 557 635 l 753 635 l 532 391 l 485 340 l 538 286 l 780 0 l 575 0 l 351 263 z "},"л":{"ha":779,"x_min":14,"x_max":677,"o":"m 509 484 l 348 484 q 332 294 344 383 q 296 137 321 204 q 229 32 271 71 q 122 -7 187 -7 q 14 9 46 -7 l 38 159 q 76 153 58 153 q 126 174 104 153 q 163 248 149 195 q 176 311 170 275 q 186 395 182 347 q 194 502 191 442 q 200 635 198 562 l 677 635 l 677 0 l 509 0 l 509 484 z "},"м":{"ha":946,"x_min":94,"x_max":852,"o":"m 692 288 l 697 419 l 695 419 l 628 318 l 500 115 l 440 115 l 299 318 l 242 419 l 239 419 l 243 290 l 243 0 l 94 0 l 94 635 l 272 635 l 429 397 l 477 318 l 479 318 l 528 401 l 675 635 l 852 635 l 852 0 l 692 0 l 692 288 z "},"н":{"ha":800,"x_min":102,"x_max":699,"o":"m 530 245 l 271 245 l 271 0 l 102 0 l 102 635 l 271 635 l 271 399 l 530 399 l 530 635 l 699 635 l 699 0 l 530 0 l 530 245 z "},"о":{"ha":694,"x_min":41,"x_max":654,"o":"m 41 317 q 61 452 41 391 q 120 558 81 514 q 216 628 159 603 q 348 652 273 652 q 481 627 424 652 q 577 556 539 602 q 634 450 615 511 q 654 317 654 389 q 634 183 654 245 q 577 77 615 122 q 481 6 539 32 q 348 -19 424 -19 q 216 6 273 -19 q 120 75 159 31 q 61 181 81 119 q 41 317 41 243 m 215 317 q 224 229 215 266 q 251 169 234 192 q 293 134 269 145 q 348 123 317 123 q 409 137 384 123 q 450 178 434 152 q 473 239 466 203 q 481 317 481 275 q 473 394 481 359 q 450 456 466 430 q 409 496 434 481 q 348 511 384 511 q 293 499 317 511 q 251 465 269 488 q 224 405 234 441 q 215 317 215 368 z "},"п":{"ha":800,"x_min":102,"x_max":699,"o":"m 529 484 l 271 484 l 271 0 l 102 0 l 102 635 l 699 635 l 699 0 l 529 0 l 529 484 z "},"р":{"ha":772,"x_min":102,"x_max":711,"o":"m 102 635 l 222 635 l 243 556 l 258 556 q 467 652 332 652 q 653 571 595 652 q 711 332 711 489 q 692 188 711 252 q 636 77 673 123 q 541 5 598 31 q 408 -20 484 -20 q 334 -12 368 -20 q 271 9 301 -4 l 271 -249 l 102 -249 l 102 635 m 414 511 q 322 485 357 511 q 271 405 288 460 l 271 158 q 320 132 292 142 q 387 122 349 122 q 456 133 428 122 q 503 167 485 143 q 529 229 521 191 q 537 323 537 267 q 532 398 537 364 q 512 457 526 433 q 475 496 498 482 q 414 511 451 511 z "},"с":{"ha":616,"x_min":61,"x_max":583,"o":"m 583 43 q 537 17 562 28 q 485 -2 513 6 q 426 -14 456 -9 q 365 -18 395 -18 q 226 6 283 -18 q 132 75 168 31 q 78 181 95 119 q 61 317 61 242 q 85 457 61 396 q 148 564 109 519 q 247 630 187 608 q 381 652 307 652 q 498 638 449 652 q 583 606 547 624 l 542 471 q 476 493 509 484 q 401 503 442 503 q 333 493 363 503 q 281 461 303 483 q 247 402 259 438 q 235 317 235 366 q 243 243 235 277 q 272 185 252 210 q 321 146 291 160 q 394 132 351 132 q 480 144 441 132 q 545 170 518 157 l 583 43 z "},"т":{"ha":682,"x_min":31,"x_max":652,"o":"m 652 484 l 429 484 l 429 0 l 253 0 l 253 484 l 31 484 l 31 635 l 652 635 l 652 484 z "},"у":{"ha":694,"x_min":17,"x_max":681,"o":"m 349 306 l 377 218 l 380 218 l 401 306 l 507 635 l 681 635 l 475 60 q 450 -7 463 26 q 423 -71 437 -41 q 396 -126 410 -101 q 370 -171 382 -152 q 290 -242 334 -222 q 194 -263 245 -263 q 124 -252 163 -263 q 53 -217 85 -241 l 93 -95 q 118 -106 105 -102 q 141 -113 130 -111 q 162 -116 153 -115 q 176 -117 171 -117 q 217 -110 195 -117 q 257 -85 240 -103 q 283 -44 271 -71 q 303 8 296 -18 l 17 635 l 221 635 l 349 306 z "},"ф":{"ha":961,"x_min":44,"x_max":916,"o":"m 399 -3 q 342 -16 368 -14 q 296 -18 317 -18 q 192 2 238 -18 q 112 65 145 23 q 62 169 79 106 q 44 317 44 232 q 64 458 44 397 q 120 562 83 520 q 208 625 156 604 q 323 646 259 646 q 358 644 340 646 q 399 638 376 642 l 399 934 l 562 934 l 562 637 q 614 644 593 642 q 652 646 635 646 q 771 625 721 646 q 853 562 821 603 q 901 463 885 522 q 916 330 916 404 q 897 187 916 251 q 843 77 878 123 q 758 6 808 31 q 645 -18 707 -18 q 602 -14 623 -18 q 562 -4 581 -10 l 562 -249 l 399 -249 l 399 -3 m 554 121 q 585 116 570 117 q 620 115 600 115 q 675 127 652 115 q 715 165 699 139 q 739 232 731 191 q 747 330 747 273 q 741 399 747 366 q 720 458 735 432 q 679 499 705 484 q 612 515 653 515 q 584 512 597 515 q 554 504 571 509 l 554 121 m 406 505 q 373 512 385 510 q 345 515 361 515 q 288 504 313 515 q 247 470 264 493 q 221 408 230 446 q 213 317 213 370 q 245 169 213 222 q 340 115 277 115 q 372 117 356 115 q 406 125 388 120 l 406 505 z "},"х":{"ha":694,"x_min":16,"x_max":678,"o":"m 226 325 l 30 635 l 235 635 l 305 512 l 356 420 l 408 512 l 483 635 l 669 635 l 471 330 l 678 0 l 478 0 l 394 142 l 342 233 l 288 143 l 203 0 l 16 0 l 226 325 z "},"ц":{"ha":800,"x_min":102,"x_max":783,"o":"m 783 -144 l 663 -144 l 643 0 l 102 0 l 102 635 l 271 635 l 271 150 l 513 150 l 513 635 l 682 635 l 682 150 l 783 150 l 783 -144 z "},"ч":{"ha":783,"x_min":92,"x_max":678,"o":"m 261 635 l 261 488 q 268 415 261 444 q 289 370 275 387 q 327 348 304 354 q 383 341 351 341 q 421 344 403 341 q 456 352 440 347 q 486 362 473 357 q 510 373 500 368 l 510 635 l 678 635 l 678 0 l 510 0 l 510 256 q 485 241 502 250 q 442 222 467 231 q 383 206 416 213 q 310 199 350 199 q 219 212 260 199 q 151 253 179 224 q 107 326 122 281 q 92 437 92 372 l 92 635 l 261 635 z "},"ш":{"ha":1173,"x_min":110,"x_max":1063,"o":"m 110 0 l 110 635 l 279 635 l 279 150 l 503 150 l 503 635 l 671 635 l 671 150 l 895 150 l 895 635 l 1063 635 l 1063 0 l 110 0 z "},"щ":{"ha":1173,"x_min":102,"x_max":1156,"o":"m 1156 -144 l 1038 -144 l 1015 0 l 102 0 l 102 635 l 271 635 l 271 150 l 495 150 l 495 635 l 665 635 l 665 150 l 888 150 l 888 635 l 1058 635 l 1058 150 l 1156 150 l 1156 -144 z "},"ъ":{"ha":810,"x_min":27,"x_max":766,"o":"m 353 414 q 421 425 388 421 q 486 429 454 429 q 594 418 545 429 q 678 385 644 407 q 714 353 699 371 q 742 313 730 334 q 760 269 753 292 q 766 222 766 245 q 747 122 766 165 q 690 50 729 79 q 589 6 650 21 q 439 -8 527 -8 q 298 -6 363 -8 q 184 -1 233 -4 l 184 484 l 27 484 l 27 635 l 353 635 l 353 414 m 353 142 q 379 137 365 139 q 407 135 393 136 q 433 133 420 134 q 456 133 446 133 q 556 155 524 133 q 589 221 589 177 q 555 285 589 262 q 458 308 521 308 q 399 303 424 308 q 353 293 374 298 l 353 142 z "},"ы":{"ha":1084,"x_min":111,"x_max":974,"o":"m 805 635 l 974 635 l 974 0 l 805 0 l 805 635 m 280 142 q 306 137 292 139 q 335 135 320 136 q 362 133 349 134 q 385 133 376 133 q 483 155 453 133 q 513 221 513 177 q 481 285 513 262 q 388 308 450 308 q 327 303 353 308 q 280 293 300 298 l 280 142 m 280 414 q 351 425 315 421 q 418 429 387 429 q 604 385 536 429 q 667 313 644 357 q 690 222 690 269 q 672 122 690 165 q 617 50 655 79 q 517 6 578 21 q 369 -8 456 -8 q 226 -6 293 -8 q 111 -1 159 -4 l 111 635 l 280 635 l 280 414 z "},"ь":{"ha":734,"x_min":109,"x_max":690,"o":"m 278 142 q 303 137 290 139 q 331 135 317 136 q 358 133 345 134 q 380 133 371 133 q 481 155 448 133 q 513 221 513 177 q 479 285 513 262 q 383 308 446 308 q 323 303 349 308 q 278 293 298 298 l 278 142 m 278 414 q 347 426 313 422 q 413 429 382 429 q 520 418 472 429 q 603 385 569 407 q 639 353 623 371 q 667 313 655 334 q 684 269 678 292 q 690 222 690 245 q 672 122 690 165 q 614 50 654 79 q 513 6 575 21 q 364 -8 452 -8 q 223 -6 288 -8 q 109 -1 157 -4 l 109 635 l 278 635 l 278 414 z "},"э":{"ha":600,"x_min":31,"x_max":559,"o":"m 150 380 l 390 380 q 374 431 386 408 q 342 473 362 455 q 292 500 321 490 q 222 511 262 511 q 177 507 197 511 q 141 498 157 504 q 110 486 125 493 q 79 472 96 479 l 35 593 q 74 615 53 604 q 122 634 96 625 q 179 647 148 642 q 250 652 211 652 q 378 631 323 652 q 472 572 434 609 q 536 465 513 531 q 559 317 559 398 q 539 181 559 243 q 480 76 519 120 q 380 6 440 31 q 240 -18 320 -18 q 31 30 120 -18 l 71 160 q 139 134 104 144 q 218 123 175 123 q 297 135 266 123 q 347 165 328 146 q 376 210 366 184 q 391 263 385 235 l 150 263 l 150 380 z "},"ю":{"ha":1061,"x_min":102,"x_max":1014,"o":"m 271 397 l 397 397 q 428 501 405 454 q 490 582 452 548 q 582 634 529 615 q 702 652 635 652 q 839 627 781 652 q 937 556 898 602 q 995 450 975 511 q 1014 317 1014 389 q 995 183 1014 245 q 937 77 975 122 q 839 6 898 32 q 702 -19 781 -19 q 488 51 568 -19 q 394 256 409 121 l 271 256 l 271 0 l 102 0 l 102 635 l 271 635 l 271 397 m 563 317 q 573 229 563 266 q 601 169 583 192 q 645 134 619 145 q 702 123 670 123 q 765 137 739 123 q 808 178 791 152 q 833 239 825 203 q 841 317 841 275 q 833 394 841 359 q 808 456 825 430 q 765 496 791 481 q 702 511 739 511 q 645 499 670 511 q 601 465 619 488 q 573 405 583 441 q 563 317 563 368 z "}}}
